<?xml version="1.0"?>
<svg width="494" height="382" xmlns="http://www.w3.org/2000/svg" version="1.1">
 <polygon points="4,378 4,4 490,4 490,378 4,378" stroke="#fffffe00" fill="none"/>
 <polygon points="24,196 29,196 42,196 62,196 85,196 111,196 137,196 160,196 180,196 193,196 198,196 200,196 202,195 203,195 205,194 206,192 208,191 209,189 209,188 210,186 210,184 210,181 210,173 210,161 210,146 210,130 210,114 210,99 210,87 210,79 210,76 210,74 209,72 209,71 208,69 206,68 205,66 203,65 202,65 200,64 198,64 193,64 180,64 160,64 137,64 111,64 85,64 62,64 42,64 29,64 24,64 22,64 20,65 19,65 17,66 16,68 14,69 13,71 13,72 12,74 12,76 12,79 12,87 12,99 12,114 12,130 12,146 12,161 12,173 12,181 12,184 12,186 13,188 13,189 14,191 16,192 17,194 19,195 20,195 22,196 24,196" stroke="#afd870" fill="none"/>
 <text x="90" y="79" fill="#afd870" font-family="Arial" font-size="12">Plugin</text>
 <polygon points="202,142 23,142 20,145 20,168 199,168 202,165 202,142" stroke="#90c4e4" fill="none"/>
 <polyline points="199,145 20,145" stroke="#90c4e4" fill="none"/>
 <polyline points="199,145 199,168" stroke="#90c4e4" fill="none"/>
 <polyline points="199,145 202,142" stroke="#90c4e4" fill="none"/>
 <text x="28" y="157" fill="#000000" font-family="Arial" font-size="12">Plugin/IoDatastorage.cs</text>
 <polygon points="169,98 56,98 53,101 53,124 166,124 169,121 169,98" stroke="#90c4e4" fill="none"/>
 <polyline points="166,101 53,101" stroke="#90c4e4" fill="none"/>
 <polyline points="166,101 166,124" stroke="#90c4e4" fill="none"/>
 <polyline points="166,101 169,98" stroke="#90c4e4" fill="none"/>
 <text x="61" y="113" fill="#000000" font-family="Arial" font-size="12">Plugin/Gui1.cs</text>
 <polygon points="296,272 301,272 314,272 334,272 357,272 383,272 409,272 432,272 452,272 465,272 470,272 472,272 474,271 475,271 477,270 478,268 480,267 481,265 481,264 482,262 482,260 482,257 482,249 482,237 482,222 482,206 482,190 482,175 482,163 482,155 482,152 482,150 481,148 481,147 480,145 478,144 477,142 475,141 474,141 472,140 470,140 465,140 452,140 432,140 409,140 383,140 357,140 334,140 314,140 301,140 296,140 294,140 292,141 291,141 289,142 288,144 286,145 285,147 285,148 284,150 284,152 284,155 284,163 284,175 284,190 284,206 284,222 284,237 284,249 284,257 284,260 284,262 285,264 285,265 286,267 288,268 289,270 291,271 292,271 294,272 296,272" stroke="#afd870" fill="none"/>
 <text x="355" y="155" fill="#afd870" font-family="Arial" font-size="12">Adapter</text>
 <polygon points="464,218 305,218 303,221 303,244 461,244 464,241 464,218" stroke="#90c4e4" fill="none"/>
 <polyline points="461,221 303,221" stroke="#90c4e4" fill="none"/>
 <polyline points="461,221 461,244" stroke="#90c4e4" fill="none"/>
 <polyline points="461,221 464,218" stroke="#90c4e4" fill="none"/>
 <text x="311" y="233" fill="#000000" font-family="Arial" font-size="12">Adapter/IoHandler.cs</text>
 <polygon points="474,174 295,174 292,177 292,200 471,200 474,197 474,174" stroke="#90c4e4" fill="none"/>
 <polyline points="471,177 292,177" stroke="#90c4e4" fill="none"/>
 <polyline points="471,177 471,200" stroke="#90c4e4" fill="none"/>
 <polyline points="471,177 474,174" stroke="#90c4e4" fill="none"/>
 <text x="300" y="189" fill="#000000" font-family="Arial" font-size="12">Adapter/GuiReaction.cs</text>
 <polygon points="48,370 52,370 61,370 75,370 93,370 112,370 130,370 148,370 162,370 171,370 175,370 177,370 179,369 180,369 182,368 183,366 185,365 186,363 186,362 187,360 187,358 187,354 187,343 187,327 187,308 187,287 187,266 187,247 187,231 187,220 187,216 187,214 186,212 186,211 185,209 183,208 182,206 180,205 179,205 177,204 175,204 171,204 162,204 148,204 130,204 112,204 93,204 75,204 61,204 52,204 48,204 46,204 44,205 43,205 41,206 40,208 38,209 37,211 37,212 36,214 36,216 36,220 36,231 36,247 36,266 36,287 36,308 36,327 36,343 36,354 36,358 36,360 37,362 37,363 38,365 40,366 41,368 43,369 44,369 46,370 48,370" stroke="#afd870" fill="none"/>
 <text x="95" y="219" fill="#afd870" font-family="Arial" font-size="12">Kern</text>
 <polygon points="56,350 59,350 68,350 80,350 95,350 112,350 128,350 143,350 155,350 164,350 167,350 169,350 171,349 172,349 174,348 175,346 177,345 178,343 178,342 179,340 179,338 179,336 179,329 179,319 179,307 179,294 179,281 179,269 179,259 179,252 179,250 179,248 178,246 178,245 177,243 175,242 174,240 172,239 171,239 169,238 167,238 164,238 155,238 143,238 128,238 112,238 95,238 80,238 68,238 59,238 56,238 54,238 52,239 51,239 49,240 48,242 46,243 45,245 45,246 44,248 44,250 44,252 44,259 44,269 44,281 44,294 44,307 44,319 44,329 44,336 44,338 44,340 45,342 45,343 46,345 48,346 49,348 51,349 52,349 54,350 56,350" stroke="#fcad56" fill="none"/>
 <text x="52" y="253" fill="#fcad56" font-family="Arial" font-size="12">Kern/Program.cs</text>
 <polygon points="132,272 86,272 86,298 136,298 136,276 132,272" stroke="#90c4e4" fill="none"/>
 <polyline points="132,272 132,276" stroke="#90c4e4" fill="none"/>
 <polyline points="136,276 132,276" stroke="#90c4e4" fill="none"/>
 <text x="94" y="287" fill="#000000" font-family="Arial" font-size="12">Main</text>
 <polygon points="166,316 52,316 52,342 171,342 171,320 166,316" stroke="#90c4e4" fill="none"/>
 <polyline points="166,316 166,320" stroke="#90c4e4" fill="none"/>
 <polyline points="171,320 166,320" stroke="#90c4e4" fill="none"/>
 <text x="60" y="331" fill="#000000" font-family="Arial" font-size="12">myControlGui1</text>
 <polygon points="79,56 81,56 86,56 93,56 102,56 112,56 121,56 130,56 137,56 142,56 144,56 146,56 148,55 149,55 151,54 152,52 154,51 155,49 155,48 156,46 156,44 156,43 156,42 156,40 156,37 156,34 156,31 156,28 156,26 156,25 156,24 156,22 155,20 155,19 154,17 152,16 151,14 149,13 148,13 146,12 144,12 142,12 137,12 130,12 121,12 112,12 102,12 93,12 86,12 81,12 79,12 77,12 75,13 74,13 72,14 71,16 69,17 68,19 68,20 67,22 67,24 67,25 67,26 67,28 67,31 67,34 67,37 67,40 67,42 67,43 67,44 67,46 68,48 68,49 69,51 71,52 72,54 74,55 75,55 77,56 79,56" stroke="#afd870" fill="none"/>
 <text x="75" y="27" fill="#afd870" font-family="Arial" font-size="12">Properties</text>
 <polyline points="169,123 173,124 177,125 182,126 186,127 190,128 194,129 198,130 202,131 206,132 210,133 223,137 237,141 251,145 264,149 278,153 291,157 304,161 316,165 328,169 339,172" stroke="#4e8cb9" fill="none"/>
 <text x="243" y="134" fill="#000000" font-family="Arial" font-size="12">4</text>
 <polygon points="339,171 344,174 338,174 339,171" stroke="#4e8cb9" fill="#4e8cb9"/>
 <polyline points="316,218 313,217 309,216 306,215 303,214 300,214 296,213 293,212 290,211 287,210 284,209 275,206 267,203 259,199 253,196 247,193 241,190 235,187 227,183 219,180 210,177 207,176 205,175 202,175 199,174 197,173 194,172 191,171 188,171 186,170 183,169" stroke="#4e8cb9" fill="none"/>
 <text x="238" y="182" fill="#000000" font-family="Arial" font-size="12">10</text>
 <polygon points="183,171 178,168 183,168 183,171" stroke="#4e8cb9" fill="#4e8cb9"/>
 <polyline points="136,280 149,277 164,274 181,271 199,268 217,264 237,260 256,256 275,252 294,249 312,245" stroke="#4e8cb9" fill="none"/>
 <text x="243" y="250" fill="#000000" font-family="Arial" font-size="12">1</text>
 <polygon points="312,243 317,244 312,247 312,243" stroke="#4e8cb9" fill="#4e8cb9"/>
 <polyline points="171,319 175,318 179,317 183,316 187,315 191,314 195,313 199,311 203,310 206,308 210,307 216,305 221,303 226,301 230,299 234,297 238,295 242,292 246,289 251,286 256,282 260,279 263,276 265,273 267,270 269,267 271,264 274,261 276,258 280,256 284,253 286,252 287,251 289,251 290,250 292,249 293,248 295,248 296,247 298,247 299,246" stroke="#4e8cb9" fill="none"/>
 <text x="243" y="275" fill="#000000" font-family="Arial" font-size="12">1</text>
 <polygon points="299,244 304,244 300,247 299,244" stroke="#4e8cb9" fill="#4e8cb9"/>
</svg>
