<?xml version="1.0"?>
<svg width="777" height="508" xmlns="http://www.w3.org/2000/svg" version="1.1">
 <polygon points="4,504 4,4 773,4 773,504 4,504" stroke="#fffffe00" fill="none"/>
 <polygon points="224,486 232,486 254,486 287,486 326,486 369,486 412,486 451,486 484,486 506,486 514,486 516,486 518,485 519,485 521,484 522,482 524,481 525,479 525,478 526,476 526,474 526,461 526,427 526,377 526,316 526,249 526,182 526,121 526,71 526,37 526,24 526,22 525,20 525,19 524,17 522,16 521,14 519,13 518,13 516,12 514,12 506,12 484,12 451,12 412,12 369,12 326,12 287,12 254,12 232,12 224,12 222,12 220,13 219,13 217,14 216,16 214,17 213,19 213,20 212,22 212,24 212,37 212,71 212,121 212,182 212,249 212,316 212,377 212,427 212,461 212,474 212,476 213,478 213,479 214,481 216,482 217,484 219,485 220,485 222,486 224,486" stroke="#afd870" fill="none"/>
 <text x="341" y="27" fill="#afd870" font-family="Arial" font-size="12">Adapter</text>
 <polygon points="232,466 240,466 260,466 291,466 328,466 369,466 410,466 447,466 478,466 498,466 506,466 508,466 510,465 511,465 513,464 514,462 516,461 517,459 517,458 518,456 518,454 518,443 518,413 518,368 518,315 518,256 518,197 518,144 518,99 518,69 518,58 518,56 517,54 517,53 516,51 514,50 513,48 511,47 510,47 508,46 506,46 498,46 478,46 447,46 410,46 369,46 328,46 291,46 260,46 240,46 232,46 230,46 228,47 227,47 225,48 224,50 222,51 221,53 221,54 220,56 220,58 220,69 220,99 220,144 220,197 220,256 220,315 220,368 220,413 220,443 220,454 220,456 221,458 221,459 222,461 224,462 225,464 227,465 228,465 230,466 232,466" stroke="#fcad56" fill="none"/>
 <text x="297" y="61" fill="#fcad56" font-family="Arial" font-size="12">Adapter/IoHandler.cs</text>
 <polygon points="414,80 320,80 320,106 419,106 419,84 414,80" stroke="#90c4e4" fill="none"/>
 <polyline points="414,80 414,84" stroke="#90c4e4" fill="none"/>
 <polyline points="419,84 414,84" stroke="#90c4e4" fill="none"/>
 <text x="328" y="95" fill="#000000" font-family="Arial" font-size="12">ControlGui1</text>
 <polygon points="411,124 323,124 323,150 415,150 415,128 411,124" stroke="#90c4e4" fill="none"/>
 <polyline points="411,124 411,128" stroke="#90c4e4" fill="none"/>
 <polyline points="415,128 411,128" stroke="#90c4e4" fill="none"/>
 <text x="331" y="139" fill="#000000" font-family="Arial" font-size="12">myStorage</text>
 <polygon points="416,212 318,212 318,238 420,238 420,216 416,212" stroke="#90c4e4" fill="none"/>
 <polyline points="416,212 416,216" stroke="#90c4e4" fill="none"/>
 <polyline points="420,216 416,216" stroke="#90c4e4" fill="none"/>
 <text x="326" y="227" fill="#000000" font-family="Arial" font-size="12">InputHandler</text>
 <polygon points="485,344 249,344 249,370 489,370 489,348 485,344" stroke="#90c4e4" fill="none"/>
 <polyline points="485,344 485,348" stroke="#90c4e4" fill="none"/>
 <polyline points="489,348 485,348" stroke="#90c4e4" fill="none"/>
 <text x="257" y="359" fill="#000000" font-family="Arial" font-size="12">int_InputHandler_VerifyUserInput</text>
 <polygon points="425,256 309,256 309,282 429,282 429,260 425,256" stroke="#90c4e4" fill="none"/>
 <polyline points="425,256 425,260" stroke="#90c4e4" fill="none"/>
 <polyline points="429,260 425,260" stroke="#90c4e4" fill="none"/>
 <text x="317" y="271" fill="#000000" font-family="Arial" font-size="12">mydatastorage</text>
 <polygon points="422,300 312,300 312,326 427,326 427,304 422,300" stroke="#90c4e4" fill="none"/>
 <polyline points="422,300 422,304" stroke="#90c4e4" fill="none"/>
 <polyline points="427,304 422,304" stroke="#90c4e4" fill="none"/>
 <text x="320" y="315" fill="#000000" font-family="Arial" font-size="12">OutputHandler</text>
 <polygon points="432,168 302,168 302,194 437,194 437,172 432,168" stroke="#90c4e4" fill="none"/>
 <polyline points="432,168 432,172" stroke="#90c4e4" fill="none"/>
 <polyline points="437,172 432,172" stroke="#90c4e4" fill="none"/>
 <text x="310" y="183" fill="#000000" font-family="Arial" font-size="12">myIoDatastorage</text>
 <polygon points="506,388 228,388 228,414 510,414 510,392 506,388" stroke="#90c4e4" fill="none"/>
 <polyline points="506,388 506,392" stroke="#90c4e4" fill="none"/>
 <polyline points="510,392 506,392" stroke="#90c4e4" fill="none"/>
 <text x="236" y="403" fill="#000000" font-family="Arial" font-size="12">v_OutputHandler_ReceiveDataStream</text>
 <polygon points="414,432 320,432 320,458 419,458 419,436 414,432" stroke="#90c4e4" fill="none"/>
 <polyline points="414,432 414,436" stroke="#90c4e4" fill="none"/>
 <polyline points="419,436 414,436" stroke="#90c4e4" fill="none"/>
 <text x="328" y="447" fill="#000000" font-family="Arial" font-size="12">ControlGui1</text>
 <polygon points="587,313 592,313 605,313 625,313 648,313 674,313 700,313 723,313 743,313 756,313 761,313 763,313 765,312 766,312 768,311 769,309 771,308 772,306 772,305 773,303 773,301 773,295 773,277 773,251 773,220 773,186 773,152 773,121 773,95 773,77 773,71 773,69 772,67 772,66 771,64 769,63 768,61 766,60 765,60 763,59 761,59 756,59 743,59 723,59 700,59 674,59 648,59 625,59 605,59 592,59 587,59 585,59 583,60 582,60 580,61 579,63 577,64 576,66 576,67 575,69 575,71 575,77 575,95 575,121 575,152 575,186 575,220 575,251 575,277 575,295 575,301 575,303 576,305 576,306 577,308 579,309 580,311 582,312 583,312 585,313 587,313" stroke="#afd870" fill="none"/>
 <text x="653" y="74" fill="#afd870" font-family="Arial" font-size="12">Plugin</text>
 <polygon points="595,293 599,293 611,293 629,293 651,293 674,293 697,293 719,293 737,293 749,293 753,293 755,293 757,292 758,292 760,291 761,289 763,288 764,286 764,285 765,283 765,281 765,276 765,263 765,243 765,219 765,193 765,167 765,143 765,123 765,110 765,105 765,103 764,101 764,100 763,98 761,97 760,95 758,94 757,94 755,93 753,93 749,93 737,93 719,93 697,93 674,93 651,93 629,93 611,93 599,93 595,93 593,93 591,94 590,94 588,95 587,97 585,98 584,100 584,101 583,103 583,105 583,110 583,123 583,143 583,167 583,193 583,219 583,243 583,263 583,276 583,281 583,283 584,285 584,286 585,288 587,289 588,291 590,292 591,292 593,293 595,293" stroke="#fcad56" fill="none"/>
 <text x="591" y="108" fill="#fcad56" font-family="Arial" font-size="12">Plugin/IoDatastorage.cs</text>
 <polygon points="705,171 638,171 638,197 710,197 710,175 705,171" stroke="#90c4e4" fill="none"/>
 <polyline points="705,171 705,175" stroke="#90c4e4" fill="none"/>
 <polyline points="710,175 705,175" stroke="#90c4e4" fill="none"/>
 <text x="646" y="186" fill="#000000" font-family="Arial" font-size="12">Storage</text>
 <polygon points="704,127 639,127 639,153 708,153 708,131 704,127" stroke="#90c4e4" fill="none"/>
 <polyline points="704,127 704,131" stroke="#90c4e4" fill="none"/>
 <polyline points="708,131 704,131" stroke="#90c4e4" fill="none"/>
 <text x="648" y="142" fill="#000000" font-family="Arial" font-size="12">myGui1</text>
 <polygon points="727,215 616,215 616,241 731,241 731,219 727,215" stroke="#90c4e4" fill="none"/>
 <polyline points="727,215 727,219" stroke="#90c4e4" fill="none"/>
 <polyline points="731,219 727,219" stroke="#90c4e4" fill="none"/>
 <text x="625" y="230" fill="#000000" font-family="Arial" font-size="12">IoDatastorage</text>
 <polygon points="725,259 618,259 618,285 730,285 730,263 725,259" stroke="#90c4e4" fill="none"/>
 <polyline points="725,259 725,263" stroke="#90c4e4" fill="none"/>
 <polyline points="730,263 725,263" stroke="#90c4e4" fill="none"/>
 <text x="626" y="274" fill="#000000" font-family="Arial" font-size="12">s_PathTextfile</text>
 <polygon points="55,189 57,189 62,189 69,189 78,189 88,189 97,189 106,189 113,189 118,189 120,189 122,189 124,188 125,188 127,187 128,185 130,184 131,182 131,181 132,179 132,177 132,176 132,175 132,173 132,170 132,167 132,164 132,161 132,159 132,158 132,157 132,155 131,153 131,152 130,150 128,149 127,147 125,146 124,146 122,145 120,145 118,145 113,145 106,145 97,145 88,145 78,145 69,145 62,145 57,145 55,145 53,145 51,146 50,146 48,147 47,149 45,150 44,152 44,153 43,155 43,157 43,158 43,159 43,161 43,164 43,167 43,170 43,173 43,175 43,176 43,177 43,179 44,181 44,182 45,184 47,185 48,187 50,188 51,188 53,189 55,189" stroke="#afd870" fill="none"/>
 <text x="52" y="160" fill="#afd870" font-family="Arial" font-size="12">Properties</text>
 <polygon points="24,496 28,496 37,496 51,496 69,496 88,496 106,496 124,496 138,496 147,496 151,496 153,496 155,495 156,495 158,494 159,492 161,491 162,489 162,488 163,486 163,484 163,480 163,469 163,453 163,434 163,413 163,392 163,373 163,357 163,346 163,342 163,340 162,338 162,337 161,335 159,334 158,332 156,331 155,331 153,330 151,330 147,330 138,330 124,330 106,330 88,330 69,330 51,330 37,330 28,330 24,330 22,330 20,331 19,331 17,332 16,334 14,335 13,337 13,338 12,340 12,342 12,346 12,357 12,373 12,392 12,413 12,434 12,453 12,469 12,480 12,484 12,486 13,488 13,489 14,491 16,492 17,494 19,495 20,495 22,496 24,496" stroke="#afd870" fill="none"/>
 <text x="72" y="345" fill="#afd870" font-family="Arial" font-size="12">Kern</text>
 <polygon points="32,476 35,476 44,476 56,476 71,476 88,476 104,476 119,476 131,476 140,476 143,476 145,476 147,475 148,475 150,474 151,472 153,471 154,469 154,468 155,466 155,464 155,462 155,455 155,445 155,433 155,420 155,407 155,395 155,385 155,378 155,376 155,374 154,372 154,371 153,369 151,368 150,366 148,365 147,365 145,364 143,364 140,364 131,364 119,364 104,364 88,364 71,364 56,364 44,364 35,364 32,364 30,364 28,365 27,365 25,366 24,368 22,369 21,371 21,372 20,374 20,376 20,378 20,385 20,395 20,407 20,420 20,433 20,445 20,455 20,462 20,464 20,466 21,468 21,469 22,471 24,472 25,474 27,475 28,475 30,476 32,476" stroke="#fcad56" fill="none"/>
 <text x="29" y="379" fill="#fcad56" font-family="Arial" font-size="12">Kern/Program.cs</text>
 <polygon points="108,398 63,398 63,424 113,424 113,402 108,398" stroke="#90c4e4" fill="none"/>
 <polyline points="108,398 108,402" stroke="#90c4e4" fill="none"/>
 <polyline points="113,402 108,402" stroke="#90c4e4" fill="none"/>
 <text x="71" y="413" fill="#000000" font-family="Arial" font-size="12">Main</text>
 <polygon points="143,442 28,442 28,468 147,468 147,446 143,442" stroke="#90c4e4" fill="none"/>
 <polyline points="143,442 143,446" stroke="#90c4e4" fill="none"/>
 <polyline points="147,446 143,446" stroke="#90c4e4" fill="none"/>
 <text x="37" y="457" fill="#000000" font-family="Arial" font-size="12">myControlGui1</text>
 <polyline points="419,93 429,93 439,94 450,95 461,97 472,98 483,101 494,103 505,107 516,111 526,115 530,117 534,119 537,121 540,124 542,126 544,129 546,131 549,134 552,138 555,141 557,144 559,146 561,148 563,151 564,153 566,155 568,157 570,158 572,160 575,162 580,165 586,167 591,170 597,172 603,174 609,175 615,177 621,178 626,179 632,180" stroke="#4e8cb9" fill="none"/>
 <text x="547" y="125" fill="#000000" font-family="Arial" font-size="12">1</text>
 <polygon points="633,179 637,181 632,182 633,179" stroke="#4e8cb9" fill="#4e8cb9"/>
 <polyline points="419,85 431,84 443,82 456,81 470,80 484,80 498,80 512,80 527,82 541,83 555,86 565,88 575,91 586,95 595,99 605,103 614,107 623,111 632,116 640,120 647,124" stroke="#4e8cb9" fill="none"/>
 <text x="547" y="78" fill="#000000" font-family="Arial" font-size="12">1</text>
 <polygon points="648,123 651,127 646,126 648,123" stroke="#4e8cb9" fill="#4e8cb9"/>
 <polyline points="415,143 425,144 435,146 446,147 457,149 468,150 480,152 492,154 503,155 515,157 526,159 537,161 548,163 559,165 571,166 582,168 593,170 603,172 613,174 623,175 632,177" stroke="#4e8cb9" fill="none"/>
 <text x="547" y="156" fill="#000000" font-family="Arial" font-size="12">1</text>
 <polygon points="633,175 637,178 632,179 633,175" stroke="#4e8cb9" fill="#4e8cb9"/>
 <polyline points="420,226 431,226 443,226 455,226 467,226 480,227 494,227 507,227 520,227 533,227 546,227 552,227 559,227 565,227 572,227 579,227 585,227 592,227 598,228 605,228 611,228" stroke="#4e8cb9" fill="none"/>
 <text x="547" y="220" fill="#000000" font-family="Arial" font-size="12">1</text>
 <polygon points="611,226 616,228 611,229 611,226" stroke="#4e8cb9" fill="#4e8cb9"/>
 <polyline points="419,370 432,372 445,374 459,375 473,375 488,375 502,373 516,370 530,366 543,360 555,352 561,346 564,340 565,334 566,328 565,321 565,314 565,308 567,301 570,295 575,289 578,286 581,284 585,282 589,280 592,278 596,277 600,275 604,274 608,273 612,272" stroke="#4e8cb9" fill="none"/>
 <text x="547" y="345" fill="#000000" font-family="Arial" font-size="12">2</text>
 <polygon points="612,270 617,271 613,274 612,270" stroke="#4e8cb9" fill="#4e8cb9"/>
 <polyline points="429,264 440,263 452,262 465,261 477,260 490,258 503,257 516,255 529,253 542,252 555,250 560,249 566,248 572,247 577,246 583,246 589,245 594,244 600,243 606,242 611,241" stroke="#4e8cb9" fill="none"/>
 <text x="547" y="243" fill="#000000" font-family="Arial" font-size="12">1</text>
 <polygon points="611,239 616,240 611,242 611,239" stroke="#4e8cb9" fill="#4e8cb9"/>
 <polyline points="427,311 436,310 446,309 456,308 466,306 476,304 486,302 496,300 506,297 516,294 526,291 530,290 533,288 536,287 539,285 541,284 544,282 546,280 549,278 552,276 555,273 558,270 560,268 561,265 563,263 564,261 566,259 567,256 569,254 572,252 575,250 578,248 582,247 585,245 589,243 592,242 596,240 600,239 603,238 607,237 611,236" stroke="#4e8cb9" fill="none"/>
 <text x="547" y="266" fill="#000000" font-family="Arial" font-size="12">1</text>
 <polygon points="611,234 616,234 611,237 611,234" stroke="#4e8cb9" fill="#4e8cb9"/>
 <polyline points="437,190 445,191 454,192 463,194 472,195 481,196 490,197 499,199 508,200 517,202 526,203 534,204 543,206 552,207 561,209 569,210 578,211 586,213 595,214 603,216 611,217" stroke="#4e8cb9" fill="none"/>
 <text x="547" y="200" fill="#000000" font-family="Arial" font-size="12">1</text>
 <polygon points="611,215 616,218 611,219 611,215" stroke="#4e8cb9" fill="#4e8cb9"/>
 <polyline points="510,404 515,402 520,401 525,399 529,397 534,395 538,392 543,390 547,387 551,383 555,380 562,371 566,363 567,353 567,344 565,335 564,325 563,316 564,307 568,298 575,289 578,286 581,284 585,281 589,279 592,277 596,276 600,274 604,273 608,272 612,271" stroke="#4e8cb9" fill="none"/>
 <text x="547" y="373" fill="#000000" font-family="Arial" font-size="12">1</text>
 <polygon points="612,270 617,271 613,273 612,270" stroke="#4e8cb9" fill="#4e8cb9"/>
 <polyline points="113,414 128,416 145,418 165,420 186,423 208,425 230,428 253,431 274,433 295,436 314,438" stroke="#4e8cb9" fill="none"/>
 <text x="184" y="415" fill="#000000" font-family="Arial" font-size="12">1</text>
 <polygon points="315,437 319,439 314,440 315,437" stroke="#4e8cb9" fill="#4e8cb9"/>
 <polyline points="147,453 152,453 156,453 161,453 165,453 170,453 174,452 179,452 183,452 188,452 192,452 204,452 217,451 230,451 243,450 256,450 268,449 280,449 292,448 303,448 314,447" stroke="#4e8cb9" fill="none"/>
 <text x="184" y="445" fill="#000000" font-family="Arial" font-size="12">1</text>
 <polygon points="314,446 319,447 315,449 314,446" stroke="#4e8cb9" fill="#4e8cb9"/>
</svg>
