<?xml version="1.0"?>
<svg width="1986" height="2335" xmlns="http://www.w3.org/2000/svg" version="1.1">
 <polygon points="4,2331 4,4 1983,4 1983,2331 4,2331" stroke="#fffffe00" fill="none"/>
 <polygon points="58,2014 4,2014 4,2050 58,2050 58,2014" stroke="#90c4e4" fill="#1976d2"/>
 <text x="14" y="2034" fill="#ffffff" font-family="Arial" font-size="12">Main</text>
 <polygon points="193,2014 94,2014 94,2050 193,2050 193,2014" stroke="#90c4e4" fill="none"/>
 <text x="103" y="2034" fill="#000000" font-family="Arial" font-size="12">ControlGui1</text>
 <polyline points="58,2032 60,2032 63,2032 65,2032 68,2032 71,2032 73,2032 76,2032 79,2032 81,2032 84,2032" stroke="#4e8cb9" fill="none"/>
 <polygon points="84,2028 94,2032 84,2035 84,2028" stroke="#4e8cb9" fill="#4e8cb9"/>
 <polygon points="439,1933 289,1933 289,1969 439,1969 439,1933" stroke="#90c4e4" fill="none"/>
 <text x="297" y="1953" fill="#000000" font-family="Arial" font-size="12">EnableVisualStyles</text>
 <polyline points="168,2014 173,2010 178,2007 184,2003 190,1999 196,1995 203,1991 209,1987 216,1984 222,1981 229,1978 234,1976 239,1975 244,1973 249,1971 254,1970 259,1968 264,1967 269,1966 274,1964 279,1963" stroke="#4e8cb9" fill="none"/>
 <polygon points="278,1960 288,1961 279,1966 278,1960" stroke="#4e8cb9" fill="#4e8cb9"/>
 <polygon points="498,1987 229,1987 229,2023 498,2023 498,1987" stroke="#90c4e4" fill="none"/>
 <text x="238" y="2007" fill="#000000" font-family="Arial" font-size="12">SetCompatibleTextRenderingDefault</text>
 <polyline points="193,2026 195,2026 198,2025 200,2025 203,2025 206,2025 208,2024 211,2024 214,2024 216,2023 219,2023" stroke="#4e8cb9" fill="none"/>
 <polygon points="218,2019 229,2022 219,2026 218,2019" stroke="#4e8cb9" fill="#4e8cb9"/>
 <polygon points="391,2041 337,2041 337,2077 391,2077 391,2041" stroke="#90c4e4" fill="none"/>
 <text x="348" y="2061" fill="#000000" font-family="Arial" font-size="12">Gui1</text>
 <polyline points="193,2038 205,2040 219,2041 233,2043 247,2045 261,2047 275,2048 289,2050 302,2052 315,2053 326,2055" stroke="#4e8cb9" fill="none"/>
 <polygon points="327,2051 336,2056 326,2058 327,2051" stroke="#4e8cb9" fill="#4e8cb9"/>
 <polygon points="391,2095 337,2095 337,2131 391,2131 391,2095" stroke="#90c4e4" fill="none"/>
 <text x="351" y="2115" fill="#000000" font-family="Arial" font-size="12">Run</text>
 <polyline points="168,2050 173,2054 178,2057 184,2061 190,2065 196,2069 203,2073 209,2077 216,2080 222,2083 229,2086 239,2090 249,2093 259,2096 269,2099 279,2101 289,2103 299,2105 309,2107 318,2108 326,2109" stroke="#4e8cb9" fill="none"/>
 <polygon points="327,2106 336,2111 326,2113 327,2106" stroke="#4e8cb9" fill="#4e8cb9"/>
 <polygon points="739,696 587,696 587,732 739,732 739,696" stroke="#90c4e4" fill="none"/>
 <text x="595" y="716" fill="#000000" font-family="Arial" font-size="12">InitializeComponent</text>
 <polyline points="391,2062 401,2062 412,2063 423,2062 435,2061 446,2059 458,2057 469,2053 480,2047 490,2040 498,2032 513,1995 523,1929 529,1842 532,1741 533,1632 533,1522 532,1419 531,1329 531,1259 534,1216 543,1160 554,1103 567,1047 580,992 594,939 608,889 621,843 634,803 644,769 653,742" stroke="#4e8cb9" fill="none"/>
 <polygon points="650,741 656,732 656,743 650,741" stroke="#4e8cb9" fill="#4e8cb9"/>
 <polygon points="1406,946 1319,946 1319,982 1406,982 1406,946" stroke="#90c4e4" fill="none"/>
 <text x="1328" y="966" fill="#000000" font-family="Arial" font-size="12">FromArgb</text>
 <polyline points="391,2061 400,2061 410,2060 421,2059 432,2058 444,2056 455,2053 467,2049 478,2045 488,2039 498,2032 570,1958 615,1880 641,1800 653,1718 659,1635 666,1553 679,1472 706,1394 754,1319 829,1249 853,1238 884,1232 922,1230 964,1231 1007,1233 1051,1234 1092,1234 1129,1231 1159,1224 1181,1211 1198,1190 1206,1169 1207,1147 1205,1125 1200,1102 1195,1080 1192,1057 1193,1035 1201,1013 1217,991 1224,984 1232,979 1241,974 1250,970 1260,967 1270,964 1280,962 1290,961 1300,960 1309,960" stroke="#4e8cb9" fill="none"/>
 <polygon points="1309,956 1319,960 1309,963 1309,956" stroke="#4e8cb9" fill="#4e8cb9"/>
 <polygon points="706,2095 620,2095 620,2131 706,2131 706,2095" stroke="#90c4e4" fill="none"/>
 <text x="628" y="2115" fill="#000000" font-family="Arial" font-size="12">FromHrgn</text>
 <polyline points="391,2064 407,2067 426,2070 448,2074 471,2079 495,2083 519,2087 544,2092 567,2096 590,2100 610,2104" stroke="#4e8cb9" fill="none"/>
 <polygon points="611,2100 620,2105 610,2107 611,2100" stroke="#4e8cb9" fill="#4e8cb9"/>
 <polygon points="793,2249 793,2233 717,2221 610,2221 534,2233 534,2249 610,2261 717,2261 793,2249" stroke="#c0c0c0" fill="none"/>
 <text x="587" y="2243" fill="#000000" font-family="Arial" font-size="12">CreateRoundRectRgn</text>
 <polyline points="391,2059 400,2059 410,2060 420,2061 432,2062 443,2064 455,2067 466,2070 477,2075 488,2080 498,2086 504,2091 509,2096 513,2101 515,2106 518,2111 520,2117 522,2122 525,2128 529,2134 534,2140 542,2149 551,2157 560,2165 570,2173 579,2181 588,2189 597,2196 606,2203 615,2209 623,2215" stroke="#4e8cb9" fill="none"/>
 <polygon points="626,2213 632,2221 622,2218 626,2213" stroke="#4e8cb9" fill="#4e8cb9"/>
 <polygon points="725,2041 601,2041 601,2077 725,2077 725,2041" stroke="#90c4e4" fill="none"/>
 <text x="609" y="2061" fill="#000000" font-family="Arial" font-size="12">load_Database</text>
 <polyline points="391,2059 406,2059 423,2059 442,2059 462,2059 484,2059 506,2059 528,2059 550,2059 571,2059 591,2059" stroke="#4e8cb9" fill="none"/>
 <polygon points="591,2055 601,2059 591,2062 591,2055" stroke="#4e8cb9" fill="#4e8cb9"/>
 <polygon points="1873,296 1749,296 1749,332 1873,332 1873,296" stroke="#90c4e4" fill="none"/>
 <text x="1757" y="316" fill="#000000" font-family="Arial" font-size="12">SuspendLayout</text>
 <polyline points="674,696 682,683 691,668 703,651 716,632 731,613 748,594 766,576 786,559 807,543 829,530 877,512 938,499 1008,491 1085,485 1165,482 1245,479 1323,476 1395,472 1458,465 1509,454 1538,444 1563,434 1585,424 1604,413 1623,402 1640,391 1659,379 1680,367 1705,354 1733,341 1734,340 1735,340 1737,339 1738,339 1739,338 1740,338 1742,337 1743,337 1745,336 1746,336" stroke="#4e8cb9" fill="none"/>
 <polygon points="1745,332 1755,332 1747,339 1745,332" stroke="#4e8cb9" fill="#4e8cb9"/>
 <polygon points="1107,1650 903,1650 903,1686 1107,1686 1107,1650" stroke="#90c4e4" fill="none"/>
 <text x="911" y="1670" fill="#000000" font-family="Arial" font-size="12">richTextBox1_TextChanged</text>
 <polyline points="666,732 669,764 675,811 683,868 694,936 707,1010 724,1090 745,1173 769,1257 797,1340 829,1419 842,1446 857,1472 872,1498 889,1524 906,1548 922,1571 939,1592 954,1611 968,1628 980,1642" stroke="#4e8cb9" fill="none"/>
 <polygon points="983,1640 987,1650 978,1645 983,1640" stroke="#4e8cb9" fill="#4e8cb9"/>
 <polygon points="1068,1320 942,1320 942,1356 1068,1356 1068,1320" stroke="#90c4e4" fill="none"/>
 <text x="950" y="1340" fill="#000000" font-family="Arial" font-size="12">btn_Save_Click</text>
 <polyline points="667,732 672,768 680,818 691,880 704,948 720,1021 737,1093 757,1161 779,1221 803,1270 829,1303 837,1310 847,1316 856,1322 866,1326 877,1330 888,1333 899,1336 910,1338 920,1339 931,1340" stroke="#4e8cb9" fill="none"/>
 <polygon points="932,1337 941,1341 931,1344 932,1337" stroke="#4e8cb9" fill="#4e8cb9"/>
 <polygon points="1838,350 1784,350 1784,386 1838,386 1838,350" stroke="#90c4e4" fill="none"/>
 <text x="1797" y="370" fill="#000000" font-family="Arial" font-size="12">Add</text>
 <polyline points="677,696 685,685 695,671 707,657 721,641 736,625 752,610 770,594 789,580 808,568 829,557 863,551 932,545 1029,539 1142,532 1265,525 1387,518 1501,511 1596,503 1664,495 1697,487 1706,479 1711,470 1714,461 1716,452 1716,443 1717,433 1718,423 1720,414 1725,404 1733,395 1736,392 1740,389 1744,386 1748,384 1752,382 1756,380 1761,378 1765,377 1770,375 1774,374" stroke="#4e8cb9" fill="none"/>
 <polygon points="1773,370 1784,371 1775,377 1773,370" stroke="#4e8cb9" fill="#4e8cb9"/>
 <polyline points="674,732 682,745 691,761 703,779 716,798 731,817 748,837 766,856 785,874 807,890 829,903 854,913 885,920 921,925 960,929 1002,932 1043,934 1084,936 1121,937 1154,939 1181,941 1194,943 1207,944 1221,946 1234,947 1248,949 1261,951 1274,952 1286,954 1298,955 1309,957" stroke="#4e8cb9" fill="none"/>
 <polygon points="1309,954 1319,958 1309,961 1309,954" stroke="#4e8cb9" fill="#4e8cb9"/>
 <polygon points="1119,1374 890,1374 890,1410 1119,1410 1119,1374" stroke="#90c4e4" fill="none"/>
 <text x="899" y="1394" fill="#000000" font-family="Arial" font-size="12">checkBox5_CheckedChanged</text>
 <polyline points="666,732 671,771 678,826 687,894 700,970 715,1051 732,1131 752,1207 775,1274 801,1328 829,1365 833,1369 838,1372 843,1375 848,1378 853,1381 858,1383 863,1386 869,1388 874,1389 880,1391" stroke="#4e8cb9" fill="none"/>
 <polygon points="881,1388 890,1394 880,1395 881,1388" stroke="#4e8cb9" fill="#4e8cb9"/>
 <polygon points="1119,58 890,58 890,94 1119,94 1119,58" stroke="#90c4e4" fill="none"/>
 <text x="899" y="78" fill="#000000" font-family="Arial" font-size="12">checkBox4_CheckedChanged</text>
 <polyline points="667,696 672,659 679,607 689,543 702,471 717,396 735,321 755,250 777,188 802,137 829,103 833,99 838,96 843,93 848,90 853,87 858,85 863,82 869,80 874,79 880,77" stroke="#4e8cb9" fill="none"/>
 <polygon points="879,73 890,75 881,80 879,73" stroke="#4e8cb9" fill="#4e8cb9"/>
 <polygon points="1119,112 890,112 890,148 1119,148 1119,112" stroke="#90c4e4" fill="none"/>
 <text x="899" y="132" fill="#000000" font-family="Arial" font-size="12">checkBox3_CheckedChanged</text>
 <polyline points="667,696 673,662 681,614 692,555 705,490 721,422 739,354 759,290 780,234 804,188 829,157 833,153 838,150 843,147 848,144 853,141 858,139 863,136 869,134 874,133 880,131" stroke="#4e8cb9" fill="none"/>
 <polygon points="880,128 890,129 881,135 880,128" stroke="#4e8cb9" fill="#4e8cb9"/>
 <polygon points="1119,166 890,166 890,202 1119,202 1119,166" stroke="#90c4e4" fill="none"/>
 <text x="899" y="186" fill="#000000" font-family="Arial" font-size="12">checkBox2_CheckedChanged</text>
 <polyline points="664,696 664,668 666,630 670,583 677,531 688,475 704,417 725,360 752,305 787,254 829,211 833,208 838,204 843,201 848,198 853,196 858,194 863,191 869,189 874,188 880,186" stroke="#4e8cb9" fill="none"/>
 <polygon points="879,182 890,183 881,189 879,182" stroke="#4e8cb9" fill="#4e8cb9"/>
 <polygon points="1119,220 890,220 890,256 1119,256 1119,220" stroke="#90c4e4" fill="none"/>
 <text x="899" y="240" fill="#000000" font-family="Arial" font-size="12">checkBox1_CheckedChanged</text>
 <polyline points="665,696 667,670 670,636 675,594 683,548 695,498 711,447 732,396 758,347 790,303 829,265 833,262 838,258 843,255 848,252 853,250 858,248 863,245 869,243 874,242 880,240" stroke="#4e8cb9" fill="none"/>
 <polygon points="879,237 890,238 881,244 879,237" stroke="#4e8cb9" fill="#4e8cb9"/>
 <polygon points="1048,274 962,274 962,310 1048,310 1048,274" stroke="#90c4e4" fill="none"/>
 <text x="970" y="294" fill="#000000" font-family="Arial" font-size="12">GetObject</text>
 <polyline points="666,696 669,673 673,642 680,605 689,564 702,521 718,476 739,432 764,390 794,352 829,319 840,312 851,305 863,300 876,296 889,293 901,290 914,289 927,288 939,287 951,287" stroke="#4e8cb9" fill="none"/>
 <polygon points="951,284 961,288 951,291 951,284" stroke="#4e8cb9" fill="#4e8cb9"/>
 <polygon points="1057,566 952,566 952,602 1057,602 1057,566" stroke="#90c4e4" fill="none"/>
 <text x="961" y="586" fill="#000000" font-family="Arial" font-size="12">btnCal_Click</text>
 <polyline points="688,696 698,689 709,681 722,673 735,664 750,655 765,646 781,638 797,630 813,623 829,616 840,612 851,608 863,605 874,602 886,599 897,597 909,595 920,593 931,591 942,590" stroke="#4e8cb9" fill="none"/>
 <polygon points="942,586 952,589 942,593 942,586" stroke="#4e8cb9" fill="#4e8cb9"/>
 <polygon points="1871,728 1751,728 1751,764 1871,764 1871,728" stroke="#90c4e4" fill="none"/>
 <text x="1759" y="748" fill="#000000" font-family="Arial" font-size="12">ResumeLayout</text>
 <polyline points="702,696 712,691 724,687 735,682 748,677 761,672 774,668 788,664 802,660 815,657 829,654 874,650 947,646 1042,645 1150,645 1266,646 1381,649 1489,654 1582,661 1654,670 1697,681 1703,684 1707,688 1710,691 1713,695 1715,699 1718,703 1720,707 1724,711 1728,715 1733,719 1734,720 1735,720 1736,721 1737,721 1738,722 1738,722 1739,723 1740,723 1741,724 1742,724" stroke="#4e8cb9" fill="none"/>
 <polygon points="1743,721 1751,729 1740,727 1743,721" stroke="#4e8cb9" fill="#4e8cb9"/>
 <polygon points="1870,782 1752,782 1752,818 1870,818 1870,782" stroke="#90c4e4" fill="none"/>
 <text x="1760" y="802" fill="#000000" font-family="Arial" font-size="12">PerformLayout</text>
 <polyline points="740,699 748,698 757,696 766,695 775,693 784,692 793,691 802,690 811,689 820,688 829,687 873,683 911,681 944,679 975,677 1005,677 1035,677 1066,678 1099,680 1137,683 1181,687 1244,693 1307,701 1371,711 1434,721 1496,732 1554,743 1609,755 1659,765 1704,775 1742,784" stroke="#4e8cb9" fill="none"/>
 <polygon points="1743,780 1752,786 1742,787 1743,780" stroke="#4e8cb9" fill="#4e8cb9"/>
 <polygon points="1061,950 948,950 948,986 1061,986 1061,950" stroke="#90c4e4" fill="none"/>
 <text x="957" y="970" fill="#000000" font-family="Arial" font-size="12">btnCal_Leave</text>
 <polyline points="672,732 679,747 688,765 699,786 712,808 727,831 743,855 762,878 783,899 805,919 829,936 839,942 849,947 860,951 871,955 882,958 894,961 905,963 916,965 927,966 938,967" stroke="#4e8cb9" fill="none"/>
 <polygon points="938,964 948,968 938,971 938,964" stroke="#4e8cb9" fill="#4e8cb9"/>
 <polygon points="1066,1004 944,1004 944,1040 1066,1040 1066,1004" stroke="#90c4e4" fill="none"/>
 <text x="952" y="1024" fill="#000000" font-family="Arial" font-size="12">btnAlarm_Click</text>
 <polyline points="669,732 674,750 682,773 691,799 703,828 718,858 734,889 754,919 776,947 801,973 829,995 838,1001 848,1006 858,1010 869,1014 880,1017 890,1020 901,1022 912,1023 923,1024 933,1025" stroke="#4e8cb9" fill="none"/>
 <polygon points="934,1021 944,1025 933,1028 934,1021" stroke="#4e8cb9" fill="#4e8cb9"/>
 <polygon points="1070,1058 940,1058 940,1094 1070,1094 1070,1058" stroke="#90c4e4" fill="none"/>
 <text x="948" y="1078" fill="#000000" font-family="Arial" font-size="12">btnAlarm_Leave</text>
 <polyline points="667,732 671,753 677,779 686,811 697,845 711,882 727,919 747,955 771,990 798,1022 829,1049 838,1055 847,1060 857,1065 867,1068 877,1072 888,1074 898,1076 909,1078 919,1079 929,1080" stroke="#4e8cb9" fill="none"/>
 <polygon points="930,1076 940,1080 929,1083 930,1076" stroke="#4e8cb9" fill="#4e8cb9"/>
 <polygon points="1062,1166 947,1166 947,1202 1062,1202 1062,1166" stroke="#90c4e4" fill="none"/>
 <text x="956" y="1186" fill="#000000" font-family="Arial" font-size="12">btnTodo_Click</text>
 <polyline points="665,732 667,758 670,792 675,833 684,879 696,928 712,978 733,1028 759,1076 791,1120 829,1157 838,1164 848,1169 859,1174 870,1178 881,1182 892,1184 903,1186 915,1188 926,1189 937,1189" stroke="#4e8cb9" fill="none"/>
 <polygon points="937,1186 947,1189 937,1193 937,1186" stroke="#4e8cb9" fill="#4e8cb9"/>
 <polygon points="1066,1112 943,1112 943,1148 1066,1148 1066,1112" stroke="#90c4e4" fill="none"/>
 <text x="952" y="1132" fill="#000000" font-family="Arial" font-size="12">btnTodo_Leave</text>
 <polyline points="666,732 669,755 674,786 681,822 690,862 703,905 720,949 740,992 765,1033 794,1071 829,1103 838,1109 848,1115 858,1120 868,1124 879,1127 890,1129 901,1131 912,1133 922,1134 933,1134" stroke="#4e8cb9" fill="none"/>
 <polygon points="933,1131 943,1135 933,1138 933,1131" stroke="#4e8cb9" fill="#4e8cb9"/>
 <polygon points="1071,1258 939,1258 939,1294 1071,1294 1071,1258" stroke="#90c4e4" fill="none"/>
 <text x="947" y="1278" fill="#000000" font-family="Arial" font-size="12">btnLogOut_Click</text>
 <polyline points="665,732 667,759 670,795 675,840 684,890 696,944 712,1001 733,1057 759,1113 791,1165 829,1211 837,1219 846,1226 855,1232 865,1238 876,1244 886,1249 897,1253 908,1257 918,1261 929,1264" stroke="#4e8cb9" fill="none"/>
 <polygon points="930,1260 939,1266 928,1267 930,1260" stroke="#4e8cb9" fill="#4e8cb9"/>
 <polygon points="1075,696 935,696 935,732 1075,732 1075,696" stroke="#90c4e4" fill="none"/>
 <text x="943" y="716" fill="#000000" font-family="Arial" font-size="12">btnLogOut_Leave</text>
 <polyline points="740,714 757,714 775,714 794,714 813,714 832,714 851,714 870,714 889,714 907,714 924,714" stroke="#4e8cb9" fill="none"/>
 <polygon points="925,710 935,714 925,717 925,710" stroke="#4e8cb9" fill="#4e8cb9"/>
 <polygon points="1066,804 943,804 943,840 1066,840 1066,804" stroke="#90c4e4" fill="none"/>
 <text x="952" y="824" fill="#000000" font-family="Arial" font-size="12">btnHome_Click</text>
 <polyline points="694,732 704,738 716,744 728,751 741,758 755,765 769,771 784,778 799,784 814,790 829,795 839,798 849,801 860,804 871,806 881,808 892,810 903,812 913,813 923,815 933,816" stroke="#4e8cb9" fill="none"/>
 <polygon points="934,813 943,817 933,820 934,813" stroke="#4e8cb9" fill="#4e8cb9"/>
 <polygon points="1070,858 939,858 939,894 1070,894 1070,858" stroke="#90c4e4" fill="none"/>
 <text x="948" y="878" fill="#000000" font-family="Arial" font-size="12">btnHome_Leave</text>
 <polyline points="680,732 689,742 700,753 713,765 726,778 741,791 757,804 774,817 792,829 810,840 829,849 838,853 848,857 858,860 868,863 879,865 889,867 899,869 909,871 919,872 929,873" stroke="#4e8cb9" fill="none"/>
 <polygon points="929,870 939,874 929,877 929,870" stroke="#4e8cb9" fill="#4e8cb9"/>
 <polygon points="1056,328 954,328 954,364 1056,364 1056,328" stroke="#90c4e4" fill="none"/>
 <text x="962" y="348" fill="#000000" font-family="Arial" font-size="12">label1_Click</text>
 <polyline points="667,696 671,675 677,648 685,616 696,581 709,544 726,506 746,468 770,433 797,401 829,373 839,366 850,361 861,356 873,352 885,349 897,346 909,344 920,343 932,342 943,342" stroke="#4e8cb9" fill="none"/>
 <polygon points="943,338 953,342 943,345 943,338" stroke="#4e8cb9" fill="#4e8cb9"/>
 <polygon points="1076,382 933,382 933,418 1076,418 1076,382" stroke="#90c4e4" fill="none"/>
 <text x="942" y="402" fill="#000000" font-family="Arial" font-size="12">pictureBox1_Click</text>
 <polyline points="669,696 674,678 682,655 691,628 703,598 717,568 734,536 753,505 776,476 801,450 829,427 837,422 846,417 855,413 865,409 874,407 884,404 894,402 904,400 913,399 923,398" stroke="#4e8cb9" fill="none"/>
 <polygon points="923,394 933,397 923,401 923,394" stroke="#4e8cb9" fill="#4e8cb9"/>
 <polygon points="1051,4 959,4 959,40 1051,40 1051,4" stroke="#90c4e4" fill="none"/>
 <text x="967" y="24" fill="#000000" font-family="Arial" font-size="12">btnX_Click</text>
 <polyline points="666,696 670,657 677,600 687,530 699,452 713,370 731,288 751,211 774,142 800,87 829,49 839,41 850,34 861,29 873,25 886,21 899,19 911,17 924,16 936,16 948,16" stroke="#4e8cb9" fill="none"/>
 <polygon points="949,12 958,16 948,19 949,12" stroke="#4e8cb9" fill="#4e8cb9"/>
 <polygon points="1088,436 922,436 922,472 1088,472 1088,436" stroke="#90c4e4" fill="none"/>
 <text x="930" y="456" fill="#000000" font-family="Arial" font-size="12">Gui1_FormClosing_1</text>
 <polyline points="672,696 679,681 687,662 698,641 711,618 726,594 743,570 761,546 782,524 805,504 829,486 836,481 844,477 852,474 860,470 869,468 877,465 886,463 895,461 903,459 912,458" stroke="#4e8cb9" fill="none"/>
 <polygon points="911,454 921,456 912,461 911,454" stroke="#4e8cb9" fill="#4e8cb9"/>
 <polygon points="1052,750 958,750 958,786 1052,786 1052,750" stroke="#90c4e4" fill="none"/>
 <text x="966" y="770" fill="#000000" font-family="Arial" font-size="12">Gui1_Load</text>
 <polyline points="740,727 749,728 757,730 766,731 775,732 784,734 793,735 802,737 811,738 820,740 829,741 841,743 853,745 865,747 878,748 890,750 902,752 914,754 925,756 936,757 947,759" stroke="#4e8cb9" fill="none"/>
 <polygon points="948,756 958,761 947,763 948,756" stroke="#4e8cb9" fill="#4e8cb9"/>
 <polygon points="1390,1540 1336,1540 1336,1576 1390,1576 1390,1540" stroke="#90c4e4" fill="none"/>
 <text x="1353" y="1560" fill="#000000" font-family="Arial" font-size="12">set</text>
 <polyline points="1045,1650 1058,1644 1073,1638 1089,1631 1106,1624 1124,1617 1142,1610 1160,1603 1179,1597 1198,1591 1217,1585 1228,1582 1239,1579 1251,1577 1262,1574 1274,1572 1285,1570 1296,1568 1306,1566 1316,1564 1325,1563" stroke="#4e8cb9" fill="none"/>
 <polygon points="1325,1559 1336,1561 1326,1566 1325,1559" stroke="#4e8cb9" fill="#4e8cb9"/>
 <polygon points="1390,1594 1336,1594 1336,1630 1390,1630 1390,1594" stroke="#90c4e4" fill="none"/>
 <text x="1353" y="1614" fill="#000000" font-family="Arial" font-size="12">set</text>
 <polyline points="1107,1652 1129,1649 1153,1645 1177,1641 1201,1638 1224,1634 1247,1630 1269,1627 1290,1624 1308,1621 1325,1618" stroke="#4e8cb9" fill="none"/>
 <polygon points="1325,1614 1336,1616 1326,1621 1325,1614" stroke="#4e8cb9" fill="#4e8cb9"/>
 <polygon points="1456,1676 1456,1660 1401,1648 1324,1648 1269,1660 1269,1676 1324,1688 1401,1688 1456,1676" stroke="#c0c0c0" fill="none"/>
 <text x="1310" y="1670" fill="#000000" font-family="Arial" font-size="12">SerializeObject</text>
 <polyline points="1107,1668 1121,1668 1136,1668 1151,1668 1167,1668 1183,1668 1198,1668 1214,1668 1229,1668 1244,1668 1259,1668" stroke="#4e8cb9" fill="none"/>
 <polygon points="1259,1664 1269,1668 1259,1671 1259,1664" stroke="#4e8cb9" fill="#4e8cb9"/>
 <polygon points="1437,1734 1437,1718 1394,1706 1332,1706 1288,1718 1288,1734 1332,1746 1394,1746 1437,1734" stroke="#c0c0c0" fill="none"/>
 <text x="1323" y="1728" fill="#000000" font-family="Arial" font-size="12">WriteAllText</text>
 <polyline points="1107,1684 1124,1687 1143,1690 1161,1693 1180,1696 1199,1699 1218,1702 1236,1705 1254,1708 1271,1711 1287,1714" stroke="#4e8cb9" fill="none"/>
 <polygon points="1288,1710 1297,1715 1286,1717 1288,1710" stroke="#4e8cb9" fill="#4e8cb9"/>
 <polygon points="1408,1764 1317,1764 1317,1800 1408,1800 1408,1764" stroke="#90c4e4" fill="none"/>
 <text x="1326" y="1784" fill="#000000" font-family="Arial" font-size="12">CreateText</text>
 <polyline points="1043,1686 1056,1692 1071,1699 1087,1706 1104,1713 1122,1721 1140,1728 1159,1735 1179,1742 1198,1749 1217,1755 1226,1758 1235,1760 1244,1762 1253,1764 1262,1767 1272,1768 1281,1770 1290,1772 1298,1773 1307,1775" stroke="#4e8cb9" fill="none"/>
 <polygon points="1308,1771 1317,1776 1307,1778 1308,1771" stroke="#4e8cb9" fill="#4e8cb9"/>
 <polygon points="1422,1846 1422,1830 1387,1818 1338,1818 1304,1830 1304,1846 1338,1858 1387,1858 1422,1846" stroke="#c0c0c0" fill="none"/>
 <text x="1333" y="1840" fill="#000000" font-family="Arial" font-size="12">Serialize</text>
 <polyline points="1027,1686 1039,1696 1053,1707 1069,1720 1087,1733 1107,1747 1127,1761 1149,1774 1171,1787 1194,1799 1217,1809 1224,1812 1232,1815 1239,1817 1247,1820 1255,1822 1263,1824 1271,1826 1279,1827 1286,1829 1294,1830" stroke="#4e8cb9" fill="none"/>
 <polygon points="1294,1827 1304,1832 1293,1834 1294,1827" stroke="#4e8cb9" fill="#4e8cb9"/>
 <polygon points="1420,1486 1305,1486 1305,1522 1420,1522 1420,1486" stroke="#90c4e4" fill="none"/>
 <text x="1314" y="1506" fill="#000000" font-family="Arial" font-size="12">IoDatastorage</text>
 <polyline points="1068,1332 1079,1332 1091,1333 1103,1334 1115,1336 1127,1339 1138,1342 1150,1346 1161,1352 1171,1358 1181,1365 1190,1375 1196,1386 1198,1398 1199,1409 1199,1421 1198,1432 1199,1444 1202,1455 1207,1466 1217,1477 1224,1482 1231,1487 1238,1491 1246,1495 1254,1498 1262,1500 1270,1502 1279,1504 1287,1505 1295,1506" stroke="#4e8cb9" fill="none"/>
 <polygon points="1295,1502 1305,1507 1295,1509 1295,1502" stroke="#4e8cb9" fill="#4e8cb9"/>
 <polygon points="1463,1216 1263,1216 1263,1252 1463,1252 1463,1216" stroke="#90c4e4" fill="none"/>
 <text x="1271" y="1236" fill="#000000" font-family="Arial" font-size="12">WriteContentIntoTextboxes</text>
 <polyline points="1068,1335 1079,1334 1090,1332 1101,1331 1113,1328 1125,1325 1137,1322 1148,1318 1160,1314 1171,1309 1181,1303 1187,1299 1191,1295 1194,1291 1196,1286 1199,1282 1201,1278 1203,1273 1207,1269 1211,1265 1217,1261 1220,1259 1224,1258 1227,1256 1231,1254 1234,1253 1238,1251 1242,1250 1245,1249 1249,1247 1253,1246" stroke="#4e8cb9" fill="none"/>
 <polygon points="1252,1242 1263,1243 1254,1249 1252,1242" stroke="#4e8cb9" fill="#4e8cb9"/>
 <polygon points="1509,1270 1217,1270 1217,1306 1509,1306 1509,1270" stroke="#90c4e4" fill="none"/>
 <text x="1225" y="1290" fill="#000000" font-family="Arial" font-size="12">int_IoDatastorage_WriteDataToStorage</text>
 <polyline points="1068,1329 1081,1327 1096,1325 1110,1323 1126,1321 1142,1319 1158,1316 1174,1314 1191,1312 1207,1309 1223,1307" stroke="#4e8cb9" fill="none"/>
 <polygon points="1223,1304 1233,1306 1224,1311 1223,1304" stroke="#4e8cb9" fill="#4e8cb9"/>
 <polygon points="1461,1324 1265,1324 1265,1360 1461,1360 1461,1324" stroke="#90c4e4" fill="none"/>
 <text x="1273" y="1344" fill="#000000" font-family="Arial" font-size="12">FormalizeContentToString</text>
 <polyline points="1068,1339 1084,1339 1101,1339 1119,1339 1138,1339 1157,1340 1177,1340 1197,1340 1216,1340 1235,1341 1254,1341" stroke="#4e8cb9" fill="none"/>
 <polygon points="1255,1337 1265,1341 1254,1344 1255,1337" stroke="#4e8cb9" fill="#4e8cb9"/>
 <polygon points="1404,1378 1322,1378 1322,1414 1404,1414 1404,1378" stroke="#90c4e4" fill="none"/>
 <text x="1330" y="1398" fill="#000000" font-family="Arial" font-size="12">Compare</text>
 <polyline points="1068,1347 1078,1349 1089,1350 1100,1352 1112,1354 1123,1356 1135,1358 1146,1359 1158,1361 1170,1363 1181,1365 1194,1367 1208,1369 1222,1372 1235,1374 1249,1376 1263,1379 1276,1381 1288,1383 1301,1385 1312,1387" stroke="#4e8cb9" fill="none"/>
 <polygon points="1312,1384 1321,1389 1311,1391 1312,1384" stroke="#4e8cb9" fill="#4e8cb9"/>
 <polygon points="1493,1432 1233,1432 1233,1468 1493,1468 1493,1432" stroke="#90c4e4" fill="none"/>
 <text x="1241" y="1452" fill="#000000" font-family="Arial" font-size="12">WriteContentIntoEmptyRichTextBox</text>
 <polyline points="1068,1335 1079,1335 1090,1336 1102,1338 1113,1340 1125,1342 1137,1345 1149,1349 1160,1354 1171,1359 1181,1365 1187,1370 1192,1376 1195,1382 1197,1388 1199,1394 1201,1400 1203,1406 1206,1412 1211,1418 1217,1423 1218,1423 1218,1424 1219,1424 1219,1425 1220,1425 1221,1425 1221,1426 1222,1426 1222,1427 1223,1427" stroke="#4e8cb9" fill="none"/>
 <polygon points="1225,1424 1232,1432 1222,1430 1225,1424" stroke="#4e8cb9" fill="#4e8cb9"/>
 <polygon points="1657,1216 1584,1216 1584,1252 1657,1252 1657,1216" stroke="#90c4e4" fill="none"/>
 <text x="1593" y="1236" fill="#000000" font-family="Arial" font-size="12">ToString</text>
 <polyline points="1463,1234 1475,1234 1486,1234 1498,1234 1510,1234 1521,1234 1532,1234 1544,1234 1554,1234 1564,1234 1574,1234" stroke="#4e8cb9" fill="none"/>
 <polygon points="1574,1230 1584,1234 1574,1237 1574,1230" stroke="#4e8cb9" fill="#4e8cb9"/>
 <polygon points="1669,1270 1572,1270 1572,1306 1669,1306 1669,1270" stroke="#90c4e4" fill="none"/>
 <text x="1581" y="1290" fill="#000000" font-family="Arial" font-size="12">WriteAllText</text>
 <polyline points="1509,1288 1515,1288 1520,1288 1526,1288 1531,1288 1537,1288 1542,1288 1547,1288 1552,1288 1557,1288 1562,1288" stroke="#4e8cb9" fill="none"/>
 <polygon points="1562,1284 1572,1288 1562,1291 1562,1284" stroke="#4e8cb9" fill="#4e8cb9"/>
 <polyline points="1048,602 1060,608 1073,614 1086,621 1100,629 1114,637 1128,646 1142,655 1155,665 1169,676 1181,687 1204,711 1227,737 1248,765 1267,793 1286,821 1302,848 1317,874 1330,898 1340,919 1349,937" stroke="#4e8cb9" fill="none"/>
 <polygon points="1352,935 1353,946 1346,938 1352,935" stroke="#4e8cb9" fill="#4e8cb9"/>
 <polygon points="1390,539 1336,539 1336,575 1390,575 1390,539" stroke="#90c4e4" fill="none"/>
 <text x="1347" y="559" fill="#000000" font-family="Arial" font-size="12">Gui2</text>
 <polyline points="1057,580 1081,578 1107,576 1135,574 1165,572 1195,570 1224,568 1253,566 1280,564 1304,562 1325,560" stroke="#4e8cb9" fill="none"/>
 <polygon points="1325,556 1335,559 1326,563 1325,556" stroke="#4e8cb9" fill="#4e8cb9"/>
 <polygon points="1413,593 1312,593 1312,629 1413,629 1413,593" stroke="#90c4e4" fill="none"/>
 <text x="1321" y="613" fill="#000000" font-family="Arial" font-size="12">ShowDialog</text>
 <polyline points="1057,588 1078,590 1101,591 1126,593 1152,595 1178,597 1205,599 1231,601 1257,603 1280,604 1302,606" stroke="#4e8cb9" fill="none"/>
 <polygon points="1302,603 1312,607 1302,610 1302,603" stroke="#4e8cb9" fill="#4e8cb9"/>
 <polygon points="1697,539 1545,539 1545,575 1697,575 1697,539" stroke="#90c4e4" fill="none"/>
 <text x="1553" y="559" fill="#000000" font-family="Arial" font-size="12">InitializeComponent</text>
 <polyline points="1390,557 1401,557 1413,557 1427,557 1441,557 1456,557 1472,557 1487,557 1503,557 1519,557 1534,557" stroke="#4e8cb9" fill="none"/>
 <polygon points="1534,553 1544,557 1534,560 1534,553" stroke="#4e8cb9" fill="#4e8cb9"/>
 <polyline points="1648,539 1653,535 1658,531 1663,526 1669,521 1674,516 1679,511 1684,505 1689,499 1693,493 1697,487 1705,470 1709,454 1711,439 1711,425 1711,411 1711,397 1712,383 1715,369 1722,355 1733,341 1734,340 1734,339 1735,339 1736,338 1737,337 1737,336 1738,336 1739,335 1740,335 1741,334" stroke="#4e8cb9" fill="none"/>
 <polygon points="1739,331 1749,328 1742,337 1739,331" stroke="#4e8cb9" fill="#4e8cb9"/>
 <polyline points="1679,539 1681,538 1683,537 1685,535 1687,534 1689,533 1691,531 1692,530 1694,528 1695,527 1697,525 1706,512 1712,498 1714,485 1715,472 1714,460 1714,447 1715,434 1717,421 1723,408 1733,395 1736,392 1740,388 1744,386 1748,383 1752,381 1757,379 1761,377 1765,376 1770,374 1774,373" stroke="#4e8cb9" fill="none"/>
 <polygon points="1774,370 1784,371 1775,376 1774,370" stroke="#4e8cb9" fill="#4e8cb9"/>
 <polygon points="1862,620 1760,620 1760,656 1862,656 1862,620" stroke="#90c4e4" fill="none"/>
 <text x="1768" y="640" fill="#000000" font-family="Arial" font-size="12">label1_Click</text>
 <polyline points="1656,575 1663,578 1670,582 1677,586 1685,589 1693,593 1701,597 1709,600 1717,604 1725,608 1733,611 1735,612 1736,612 1738,613 1739,614 1741,615 1743,615 1745,616 1746,617 1748,617 1750,618" stroke="#4e8cb9" fill="none"/>
 <polygon points="1752,615 1760,621 1749,621 1752,615" stroke="#4e8cb9" fill="#4e8cb9"/>
 <polygon points="1862,674 1760,674 1760,710 1862,710 1862,674" stroke="#90c4e4" fill="none"/>
 <text x="1768" y="694" fill="#000000" font-family="Arial" font-size="12">label3_Click</text>
 <polyline points="1636,575 1642,583 1650,591 1658,600 1667,610 1677,620 1687,629 1698,639 1709,648 1721,657 1733,665 1735,666 1736,667 1738,668 1739,669 1741,670 1743,670 1745,671 1746,672 1748,673 1750,674" stroke="#4e8cb9" fill="none"/>
 <polygon points="1752,671 1760,678 1749,678 1752,671" stroke="#4e8cb9" fill="#4e8cb9"/>
 <polygon points="1867,404 1756,404 1756,440 1867,440 1867,404" stroke="#90c4e4" fill="none"/>
 <text x="1764" y="424" fill="#000000" font-family="Arial" font-size="12">button1_Click</text>
 <polyline points="1677,539 1679,538 1681,536 1683,535 1685,534 1687,532 1689,531 1691,529 1693,528 1695,526 1697,525 1704,517 1708,510 1711,502 1713,494 1715,487 1716,479 1718,472 1721,464 1726,457 1733,449 1734,448 1735,447 1737,446 1738,445 1739,444 1740,443 1742,442 1743,441 1745,440 1746,439" stroke="#4e8cb9" fill="none"/>
 <polygon points="1745,436 1755,435 1748,442 1745,436" stroke="#4e8cb9" fill="#4e8cb9"/>
 <polygon points="1890,458 1733,458 1733,494 1890,494 1890,458" stroke="#90c4e4" fill="none"/>
 <text x="1741" y="478" fill="#000000" font-family="Arial" font-size="12">btnAbbrechen_Click</text>
 <polyline points="1667,539 1670,538 1673,536 1676,535 1679,534 1682,532 1685,531 1688,529 1691,528 1694,526 1697,525 1701,522 1705,520 1709,518 1712,516 1715,514 1718,512 1721,510 1724,507 1728,505 1733,503 1734,502 1735,502 1736,501 1737,501 1738,500 1739,500 1740,499 1742,499 1743,498 1744,498" stroke="#4e8cb9" fill="none"/>
 <polygon points="1743,495 1754,494 1746,501 1743,495" stroke="#4e8cb9" fill="#4e8cb9"/>
 <polygon points="1862,512 1760,512 1760,548 1862,548 1862,512" stroke="#90c4e4" fill="none"/>
 <text x="1768" y="532" fill="#000000" font-family="Arial" font-size="12">label4_Click</text>
 <polyline points="1697,546 1702,545 1707,545 1713,544 1718,543 1724,543 1729,542 1734,541 1740,540 1745,540 1750,539" stroke="#4e8cb9" fill="none"/>
 <polygon points="1750,535 1760,537 1751,542 1750,535" stroke="#4e8cb9" fill="#4e8cb9"/>
 <polygon points="1858,566 1764,566 1764,602 1858,602 1858,566" stroke="#90c4e4" fill="none"/>
 <text x="1772" y="586" fill="#000000" font-family="Arial" font-size="12">Gui2_Load</text>
 <polyline points="1697,568 1703,569 1708,569 1714,570 1720,571 1726,572 1732,572 1737,573 1743,574 1749,575 1754,576" stroke="#4e8cb9" fill="none"/>
 <polygon points="1755,573 1764,577 1754,579 1755,573" stroke="#4e8cb9" fill="#4e8cb9"/>
 <polyline points="1640,575 1645,580 1651,586 1657,592 1663,599 1669,606 1674,613 1680,621 1686,628 1692,635 1697,643 1702,652 1706,660 1708,668 1710,676 1712,683 1714,690 1717,697 1720,704 1726,712 1733,719 1734,720 1735,721 1736,721 1737,722 1738,723 1738,724 1739,724 1740,725 1741,725 1742,726" stroke="#4e8cb9" fill="none"/>
 <polygon points="1744,723 1751,731 1741,729 1744,723" stroke="#4e8cb9" fill="#4e8cb9"/>
 <polyline points="1634,575 1639,583 1645,591 1651,601 1657,611 1664,622 1671,634 1678,645 1684,657 1691,669 1697,681 1702,692 1705,703 1707,712 1709,722 1710,730 1712,739 1715,747 1719,756 1725,764 1733,773 1734,774 1735,775 1736,776 1737,777 1738,777 1739,778 1740,779 1741,780 1742,780 1743,781" stroke="#4e8cb9" fill="none"/>
 <polygon points="1745,778 1752,786 1742,784 1745,778" stroke="#4e8cb9" fill="#4e8cb9"/>
 <polygon points="1983,431 1926,431 1926,467 1983,467 1983,431" stroke="#90c4e4" fill="none"/>
 <text x="1934" y="451" fill="#000000" font-family="Arial" font-size="12">Close</text>
 <polyline points="1867,432 1872,433 1877,434 1882,435 1887,436 1892,437 1897,438 1902,439 1907,440 1911,441 1916,442" stroke="#4e8cb9" fill="none"/>
 <polygon points="1916,438 1926,444 1915,445 1916,438" stroke="#4e8cb9" fill="#4e8cb9"/>
 <polyline points="1890,461 1893,460 1895,460 1898,459 1900,459 1903,459 1905,458 1908,458 1910,457 1913,457 1915,456" stroke="#4e8cb9" fill="none"/>
 <polygon points="1915,453 1925,454 1916,460 1915,453" stroke="#4e8cb9" fill="#4e8cb9"/>
 <polyline points="1061,967 1083,967 1106,967 1132,967 1158,966 1185,966 1212,966 1239,965 1264,965 1288,965 1309,965" stroke="#4e8cb9" fill="none"/>
 <polygon points="1309,961 1319,964 1309,968 1309,961" stroke="#4e8cb9" fill="#4e8cb9"/>
 <polyline points="1066,1013 1076,1011 1087,1010 1099,1008 1110,1006 1122,1004 1134,1002 1146,1001 1158,999 1169,997 1181,995 1194,993 1207,991 1221,988 1234,986 1248,984 1261,982 1274,980 1286,977 1298,975 1309,973" stroke="#4e8cb9" fill="none"/>
 <polygon points="1308,970 1319,972 1310,977 1308,970" stroke="#4e8cb9" fill="#4e8cb9"/>
 <polyline points="1070,1079 1081,1078 1092,1077 1103,1076 1115,1074 1126,1071 1138,1068 1149,1064 1160,1060 1171,1055 1181,1049 1187,1044 1192,1038 1195,1032 1197,1026 1199,1020 1201,1014 1203,1008 1206,1002 1211,996 1217,991 1225,986 1234,981 1243,978 1252,974 1262,972 1271,969 1281,967 1291,966 1300,965 1309,964" stroke="#4e8cb9" fill="none"/>
 <polygon points="1309,960 1319,963 1309,967 1309,960" stroke="#4e8cb9" fill="#4e8cb9"/>
 <polyline points="1062,1191 1074,1191 1086,1191 1099,1190 1112,1188 1125,1185 1137,1182 1149,1177 1160,1172 1171,1165 1181,1157 1194,1141 1201,1125 1203,1108 1202,1091 1199,1074 1197,1057 1196,1040 1198,1024 1204,1007 1217,991 1225,985 1233,979 1242,974 1251,970 1260,967 1270,965 1280,963 1290,961 1300,960 1309,960" stroke="#4e8cb9" fill="none"/>
 <polygon points="1309,957 1319,960 1309,964 1309,957" stroke="#4e8cb9" fill="#4e8cb9"/>
 <polygon points="1390,1000 1336,1000 1336,1036 1390,1036 1390,1000" stroke="#90c4e4" fill="none"/>
 <text x="1349" y="1020" fill="#000000" font-family="Arial" font-size="12">Add</text>
 <polyline points="1062,1190 1074,1190 1086,1189 1098,1188 1111,1186 1123,1184 1136,1181 1148,1176 1160,1171 1171,1165 1181,1157 1190,1147 1196,1136 1198,1124 1199,1113 1199,1101 1198,1090 1199,1078 1202,1067 1207,1056 1217,1045 1226,1038 1236,1032 1247,1027 1258,1023 1270,1020 1282,1018 1293,1016 1304,1015 1315,1015 1325,1015" stroke="#4e8cb9" fill="none"/>
 <polygon points="1326,1012 1336,1015 1325,1019 1326,1012" stroke="#4e8cb9" fill="#4e8cb9"/>
 <polyline points="1067,1136 1078,1136 1090,1135 1102,1134 1114,1132 1126,1130 1138,1126 1150,1122 1161,1117 1171,1110 1181,1103 1190,1093 1196,1082 1198,1070 1199,1059 1199,1047 1198,1036 1199,1024 1202,1013 1207,1002 1217,991 1225,985 1233,980 1242,975 1252,971 1261,968 1271,966 1281,964 1290,962 1300,961 1309,961" stroke="#4e8cb9" fill="none"/>
 <polygon points="1309,958 1319,961 1309,965 1309,958" stroke="#4e8cb9" fill="#4e8cb9"/>
 <polyline points="1071,1281 1082,1281 1094,1280 1106,1278 1118,1276 1129,1273 1141,1270 1152,1265 1162,1259 1172,1252 1181,1244 1199,1219 1207,1194 1208,1169 1205,1143 1199,1118 1193,1092 1189,1066 1190,1041 1199,1016 1217,991 1224,984 1232,979 1241,974 1250,970 1260,967 1270,964 1280,962 1290,961 1300,960 1309,960" stroke="#4e8cb9" fill="none"/>
 <polygon points="1309,956 1319,960 1309,963 1309,956" stroke="#4e8cb9" fill="#4e8cb9"/>
 <polygon points="1395,1054 1331,1054 1331,1090 1395,1090 1395,1054" stroke="#90c4e4" fill="none"/>
 <text x="1339" y="1074" fill="#000000" font-family="Arial" font-size="12">Equals</text>
 <polyline points="1071,1280 1082,1279 1093,1278 1105,1277 1117,1275 1129,1272 1140,1268 1151,1263 1162,1258 1172,1252 1181,1244 1192,1230 1198,1216 1201,1202 1200,1187 1199,1172 1197,1157 1197,1142 1199,1127 1205,1113 1217,1099 1226,1092 1235,1086 1245,1081 1256,1077 1267,1074 1278,1071 1289,1070 1300,1069 1310,1068 1320,1068" stroke="#4e8cb9" fill="none"/>
 <polygon points="1321,1065 1331,1069 1320,1072 1321,1065" stroke="#4e8cb9" fill="#4e8cb9"/>
 <polygon points="1409,1108 1317,1108 1317,1144 1409,1144 1409,1108" stroke="#90c4e4" fill="none"/>
 <text x="1325" y="1128" fill="#000000" font-family="Arial" font-size="12">GetCurrent</text>
 <polyline points="1071,1279 1082,1278 1093,1277 1105,1275 1116,1273 1128,1270 1139,1267 1150,1262 1161,1257 1171,1251 1181,1244 1189,1235 1194,1226 1197,1217 1198,1208 1199,1199 1199,1189 1200,1180 1203,1171 1209,1162 1217,1153 1225,1147 1233,1142 1241,1138 1250,1135 1260,1132 1269,1129 1279,1127 1288,1126 1297,1125 1306,1124" stroke="#4e8cb9" fill="none"/>
 <polygon points="1306,1120 1316,1124 1307,1127 1306,1120" stroke="#4e8cb9" fill="#4e8cb9"/>
 <polygon points="1397,1876 1329,1876 1329,1912 1397,1912 1397,1876" stroke="#90c4e4" fill="none"/>
 <text x="1337" y="1896" fill="#000000" font-family="Arial" font-size="12">IndexOf</text>
 <polyline points="1071,1271 1083,1272 1094,1273 1106,1274 1118,1277 1130,1280 1142,1284 1153,1289 1163,1295 1172,1302 1181,1311 1199,1347 1208,1396 1209,1455 1205,1520 1199,1589 1192,1658 1188,1723 1190,1782 1198,1831 1217,1867 1225,1875 1234,1881 1244,1886 1254,1891 1265,1894 1275,1896 1286,1898 1297,1899 1308,1899 1318,1899" stroke="#4e8cb9" fill="none"/>
 <polygon points="1318,1895 1329,1898 1319,1902 1318,1895" stroke="#4e8cb9" fill="#4e8cb9"/>
 <polygon points="1404,1162 1322,1162 1322,1198 1404,1198 1404,1162" stroke="#90c4e4" fill="none"/>
 <text x="1330" y="1182" fill="#000000" font-family="Arial" font-size="12">Substring</text>
 <polyline points="1071,1274 1081,1273 1092,1271 1103,1269 1115,1267 1126,1264 1137,1261 1149,1258 1160,1254 1171,1249 1181,1244 1186,1241 1190,1237 1194,1233 1196,1229 1199,1226 1201,1222 1204,1218 1207,1214 1211,1210 1217,1207 1226,1202 1235,1199 1245,1195 1254,1192 1264,1190 1274,1187 1283,1186 1293,1184 1302,1183 1311,1182" stroke="#4e8cb9" fill="none"/>
 <polygon points="1311,1178 1321,1181 1312,1185 1311,1178" stroke="#4e8cb9" fill="#4e8cb9"/>
 <polyline points="1075,713 1085,714 1096,715 1107,717 1118,719 1129,721 1140,724 1150,728 1161,731 1171,736 1181,741 1205,757 1227,775 1249,795 1268,816 1286,838 1302,860 1316,882 1329,902 1339,921 1348,937" stroke="#4e8cb9" fill="none"/>
 <polygon points="1351,935 1353,946 1345,938 1351,935" stroke="#4e8cb9" fill="#4e8cb9"/>
 <polyline points="1066,825 1077,826 1088,828 1099,829 1111,831 1123,833 1135,836 1146,838 1158,842 1170,845 1181,849 1198,856 1216,864 1233,873 1249,883 1265,893 1280,902 1295,912 1308,922 1321,931 1332,939" stroke="#4e8cb9" fill="none"/>
 <polygon points="1334,937 1340,946 1330,942 1334,937" stroke="#4e8cb9" fill="#4e8cb9"/>
 <polyline points="1071,886 1081,888 1092,890 1103,892 1114,894 1125,896 1136,898 1148,900 1159,903 1170,905 1181,908 1194,911 1208,915 1221,919 1235,923 1248,927 1261,931 1274,935 1286,938 1298,942 1309,946" stroke="#4e8cb9" fill="none"/>
 <polygon points="1311,943 1319,949 1308,949 1311,943" stroke="#4e8cb9" fill="#4e8cb9"/>
 <polygon points="1390,166 1335,166 1335,202 1390,202 1390,166" stroke="#90c4e4" fill="none"/>
 <text x="1344" y="186" fill="#000000" font-family="Arial" font-size="12">Show</text>
 <polyline points="1051,23 1062,24 1074,25 1087,26 1100,28 1114,30 1127,33 1141,36 1155,40 1168,44 1181,49 1200,58 1218,67 1236,78 1253,90 1269,102 1285,114 1300,126 1313,137 1325,148 1336,158" stroke="#4e8cb9" fill="none"/>
 <polygon points="1339,156 1344,166 1334,161 1339,156" stroke="#4e8cb9" fill="#4e8cb9"/>
 <polygon points="1390,409 1336,409 1336,445 1390,445 1390,409" stroke="#90c4e4" fill="none"/>
 <text x="1350" y="429" fill="#000000" font-family="Arial" font-size="12">Exit</text>
 <polyline points="1051,16 1063,15 1076,15 1090,16 1104,17 1118,19 1131,23 1145,27 1158,33 1170,40 1181,49 1194,64 1203,79 1207,93 1209,108 1208,123 1207,139 1207,155 1207,173 1210,191 1217,211 1227,233 1239,256 1252,278 1265,299 1279,320 1292,339 1305,357 1318,373 1330,388 1340,401" stroke="#4e8cb9" fill="none"/>
 <polygon points="1342,399 1346,409 1337,403 1342,399" stroke="#4e8cb9" fill="#4e8cb9"/>
 <polyline points="1088,454 1097,453 1107,452 1116,450 1126,448 1136,446 1145,443 1154,440 1164,436 1172,432 1181,427 1196,416 1212,400 1230,379 1248,356 1267,330 1285,304 1303,278 1319,253 1333,230 1345,211" stroke="#4e8cb9" fill="none"/>
 <polygon points="1342,209 1351,202 1348,213 1342,209" stroke="#4e8cb9" fill="#4e8cb9"/>
 <polyline points="1088,448 1111,446 1136,444 1162,442 1188,440 1214,438 1239,436 1264,435 1286,433 1307,431 1325,430" stroke="#4e8cb9" fill="none"/>
 <polygon points="1325,426 1335,429 1326,433 1325,426" stroke="#4e8cb9" fill="#4e8cb9"/>
 <polygon points="1072,2295 937,2295 937,2331 1072,2331 1072,2295" stroke="#90c4e4" fill="none"/>
 <text x="946" y="2315" fill="#000000" font-family="Arial" font-size="12">DllImportAttribute</text>
 <polyline points="726,2260 735,2262 745,2265 755,2268 765,2271 776,2273 786,2276 797,2279 808,2281 818,2284 829,2286 839,2288 849,2290 858,2292 868,2294 878,2296 888,2297 898,2299 908,2300 918,2302 927,2303" stroke="#4e8cb9" fill="none"/>
 <polygon points="927,2300 937,2305 926,2307 927,2300" stroke="#4e8cb9" fill="#4e8cb9"/>
 <polyline points="666,2041 669,2017 673,1985 680,1947 690,1905 703,1859 719,1812 739,1765 764,1720 794,1678 829,1641 871,1608 917,1581 967,1558 1018,1541 1070,1527 1121,1517 1170,1510 1217,1505 1259,1503 1295,1502" stroke="#4e8cb9" fill="none"/>
 <polygon points="1295,1499 1305,1502 1295,1506 1295,1499" stroke="#4e8cb9" fill="#4e8cb9"/>
 <polygon points="1174,2149 835,2149 835,2185 1174,2185 1174,2149" stroke="#90c4e4" fill="none"/>
 <text x="844" y="2169" fill="#000000" font-family="Arial" font-size="12">string_IoDataStorage_ReadDataFromStorage</text>
 <polyline points="726,2062 733,2063 739,2065 746,2066 753,2068 760,2071 767,2073 774,2076 780,2079 787,2082 793,2086 799,2091 804,2096 807,2102 809,2107 811,2113 812,2119 815,2124 818,2130 823,2135 829,2140 830,2140 830,2141 831,2141 831,2142 832,2142 833,2142 834,2143 834,2143 835,2144 836,2144" stroke="#4e8cb9" fill="none"/>
 <polygon points="838,2141 845,2149 834,2147 838,2141" stroke="#4e8cb9" fill="#4e8cb9"/>
 <polygon points="1404,2204 1321,2204 1321,2240 1404,2240 1404,2204" stroke="#90c4e4" fill="none"/>
 <text x="1330" y="2224" fill="#000000" font-family="Arial" font-size="12">WriteLine</text>
 <polyline points="725,2059 732,2060 739,2061 747,2063 754,2065 761,2068 768,2070 774,2074 781,2077 787,2081 793,2086 802,2096 807,2107 809,2118 810,2130 810,2141 809,2152 810,2163 813,2174 819,2184 829,2194 848,2202 881,2208 926,2213 978,2217 1037,2219 1098,2221 1158,2222 1216,2223 1268,2223 1311,2223" stroke="#4e8cb9" fill="none"/>
 <polygon points="1311,2219 1321,2222 1311,2226 1311,2219" stroke="#4e8cb9" fill="#4e8cb9"/>
 <polygon points="1124,2241 885,2241 885,2277 1124,2277 1124,2241" stroke="#90c4e4" fill="none"/>
 <text x="894" y="2261" fill="#000000" font-family="Arial" font-size="12">DeleteContentFromAllTextboxes</text>
 <polyline points="726,2059 733,2060 740,2061 747,2063 754,2065 761,2067 768,2070 775,2073 781,2077 787,2081 793,2086 804,2100 810,2114 812,2128 812,2142 810,2157 809,2171 809,2186 811,2200 818,2214 829,2227 833,2231 837,2234 841,2237 846,2240 851,2243 855,2245 860,2247 865,2250 870,2251 875,2253" stroke="#4e8cb9" fill="none"/>
 <polygon points="876,2250 885,2256 874,2257 876,2250" stroke="#4e8cb9" fill="#4e8cb9"/>
 <polygon points="1181,2041 829,2041 829,2077 1181,2077 1181,2041" stroke="#90c4e4" fill="none"/>
 <text x="837" y="2061" fill="#000000" font-family="Arial" font-size="12">WriteCalendarNameFromDatabaseToTextBoxes</text>
 <polyline points="725,2059 733,2059 742,2059 751,2059 760,2059 769,2059 779,2059 788,2059 798,2059 808,2059 818,2059" stroke="#4e8cb9" fill="none"/>
 <polygon points="819,2055 829,2059 819,2062 819,2055" stroke="#4e8cb9" fill="#4e8cb9"/>
 <polygon points="1113,1931 897,1931 897,1967 1113,1967 1113,1931" stroke="#90c4e4" fill="none"/>
 <text x="905" y="1951" fill="#000000" font-family="Arial" font-size="12">SplitDataFromStorageName</text>
 <polyline points="693,2041 703,2035 715,2028 727,2022 740,2015 754,2007 769,2000 784,1994 799,1987 814,1981 829,1976 834,1974 840,1973 846,1971 851,1969 857,1968 863,1966 869,1965 875,1964 881,1963 887,1962" stroke="#4e8cb9" fill="none"/>
 <polygon points="886,1958 896,1960 887,1965 886,1958" stroke="#4e8cb9" fill="#4e8cb9"/>
 <polygon points="1145,2095 865,2095 865,2131 1145,2131 1145,2095" stroke="#90c4e4" fill="none"/>
 <text x="873" y="2115" fill="#000000" font-family="Arial" font-size="12">WriteDateFromDatabaseToTextBoxes</text>
 <polyline points="726,2069 735,2071 745,2072 755,2074 765,2076 776,2078 787,2079 797,2081 808,2083 819,2084 829,2086 834,2087 838,2087 843,2088 847,2089 852,2090 857,2090 861,2091 866,2092 870,2092 875,2093" stroke="#4e8cb9" fill="none"/>
 <polygon points="876,2090 886,2095 875,2097 876,2090" stroke="#4e8cb9" fill="#4e8cb9"/>
 <polygon points="1109,1985 901,1985 901,2021 1109,2021 1109,1985" stroke="#90c4e4" fill="none"/>
 <text x="909" y="2005" fill="#000000" font-family="Arial" font-size="12">SplitDataFromStorageDate</text>
 <polyline points="725,2049 739,2047 755,2044 771,2041 787,2039 804,2036 821,2033 839,2030 856,2027 873,2025 890,2022" stroke="#4e8cb9" fill="none"/>
 <polygon points="890,2018 901,2020 891,2025 890,2018" stroke="#4e8cb9" fill="#4e8cb9"/>
 <polygon points="1412,2150 1314,2150 1314,2186 1412,2186 1412,2150" stroke="#90c4e4" fill="none"/>
 <text x="1322" y="2170" fill="#000000" font-family="Arial" font-size="12">ReadAllText</text>
 <polyline points="1174,2167 1188,2167 1202,2167 1216,2168 1230,2168 1243,2168 1256,2168 1269,2168 1281,2168 1293,2168 1304,2168" stroke="#4e8cb9" fill="none"/>
 <polygon points="1304,2164 1314,2168 1304,2171 1304,2164" stroke="#4e8cb9" fill="#4e8cb9"/>
 <polyline points="1122,2185 1142,2188 1162,2191 1182,2194 1202,2198 1222,2201 1242,2204 1261,2207 1279,2209 1296,2212 1311,2214" stroke="#4e8cb9" fill="none"/>
 <polygon points="1312,2211 1321,2216 1310,2218 1312,2211" stroke="#4e8cb9" fill="#4e8cb9"/>
 <polygon points="1399,2096 1326,2096 1326,2132 1399,2132 1399,2096" stroke="#90c4e4" fill="none"/>
 <text x="1335" y="2116" fill="#000000" font-family="Arial" font-size="12">ToString</text>
 <polyline points="1122,2077 1128,2078 1134,2079 1140,2080 1146,2081 1152,2082 1158,2082 1164,2083 1169,2084 1175,2085 1181,2086 1195,2088 1209,2090 1223,2092 1238,2095 1252,2097 1266,2099 1279,2101 1292,2103 1304,2105 1316,2107" stroke="#4e8cb9" fill="none"/>
 <polygon points="1317,2103 1326,2108 1316,2110 1317,2103" stroke="#4e8cb9" fill="#4e8cb9"/>
 <polyline points="1113,1932 1134,1929 1156,1926 1178,1922 1201,1919 1223,1916 1244,1912 1265,1909 1284,1906 1302,1904 1318,1901" stroke="#4e8cb9" fill="none"/>
 <polygon points="1318,1897 1328,1899 1319,1904 1318,1897" stroke="#4e8cb9" fill="#4e8cb9"/>
 <polygon points="1399,2066 1399,2050 1378,2038 1348,2038 1327,2050 1327,2066 1348,2078 1378,2078 1399,2066" stroke="#c0c0c0" fill="none"/>
 <text x="1348" y="2060" fill="#000000" font-family="Arial" font-size="12">Split</text>
 <polyline points="1113,1952 1120,1953 1127,1955 1134,1956 1142,1958 1149,1961 1155,1963 1162,1966 1169,1969 1175,1972 1181,1976 1187,1981 1192,1986 1195,1991 1197,1997 1199,2002 1201,2008 1203,2013 1206,2019 1211,2024 1217,2029 1226,2035 1236,2039 1246,2044 1256,2047 1266,2050 1277,2052 1287,2054 1297,2056 1307,2057 1316,2058" stroke="#4e8cb9" fill="none"/>
 <polygon points="1317,2054 1327,2058 1316,2061 1317,2054" stroke="#4e8cb9" fill="#4e8cb9"/>
 <polygon points="1390,1930 1336,1930 1336,1966 1390,1966 1390,1930" stroke="#90c4e4" fill="none"/>
 <text x="1349" y="1950" fill="#000000" font-family="Arial" font-size="12">Add</text>
 <polyline points="1113,1949 1135,1949 1158,1949 1181,1948 1205,1948 1228,1948 1250,1948 1271,1948 1291,1948 1309,1948 1325,1948" stroke="#4e8cb9" fill="none"/>
 <polygon points="1325,1945 1335,1948 1325,1952 1325,1945" stroke="#4e8cb9" fill="#4e8cb9"/>
 <polygon points="1404,1984 1322,1984 1322,2020 1404,2020 1404,1984" stroke="#90c4e4" fill="none"/>
 <text x="1330" y="2004" fill="#000000" font-family="Arial" font-size="12">Substring</text>
 <polyline points="1113,1965 1133,1968 1154,1971 1175,1974 1197,1978 1218,1981 1238,1984 1259,1987 1278,1990 1296,1992 1312,1995" stroke="#4e8cb9" fill="none"/>
 <polygon points="1312,1991 1322,1996 1311,1998 1312,1991" stroke="#4e8cb9" fill="#4e8cb9"/>
 <polyline points="1145,2113 1163,2113 1182,2113 1201,2114 1219,2114 1237,2114 1255,2114 1272,2114 1288,2114 1302,2114 1316,2114" stroke="#4e8cb9" fill="none"/>
 <polygon points="1316,2110 1326,2114 1316,2117 1316,2110" stroke="#4e8cb9" fill="#4e8cb9"/>
 <polyline points="1109,2001 1117,2000 1124,1998 1132,1996 1139,1995 1147,1992 1154,1990 1161,1987 1168,1984 1175,1980 1181,1976 1187,1971 1192,1966 1195,1960 1197,1954 1199,1949 1200,1943 1203,1937 1206,1931 1211,1926 1217,1921 1226,1915 1236,1911 1246,1907 1257,1903 1268,1900 1278,1898 1289,1896 1299,1895 1309,1894 1318,1893" stroke="#4e8cb9" fill="none"/>
 <polygon points="1318,1890 1328,1893 1319,1897 1318,1890" stroke="#4e8cb9" fill="#4e8cb9"/>
 <polyline points="1109,2019 1130,2022 1152,2026 1175,2029 1197,2033 1219,2036 1241,2039 1262,2043 1282,2046 1300,2048 1317,2051" stroke="#4e8cb9" fill="none"/>
 <polygon points="1317,2048 1326,2053 1316,2054 1317,2048" stroke="#4e8cb9" fill="#4e8cb9"/>
 <polyline points="1109,1987 1116,1986 1123,1985 1130,1984 1137,1983 1145,1982 1152,1980 1159,1979 1167,1978 1174,1977 1181,1976 1196,1974 1212,1971 1227,1969 1243,1966 1258,1964 1273,1962 1287,1959 1301,1957 1314,1956 1325,1954" stroke="#4e8cb9" fill="none"/>
 <polygon points="1325,1950 1336,1952 1326,1957 1325,1950" stroke="#4e8cb9" fill="#4e8cb9"/>
 <polyline points="1109,2003 1130,2003 1151,2003 1172,2003 1194,2003 1216,2003 1237,2002 1257,2002 1277,2002 1295,2002 1312,2002" stroke="#4e8cb9" fill="none"/>
 <polygon points="1312,1999 1322,2002 1312,2006 1312,1999" stroke="#4e8cb9" fill="#4e8cb9"/>
</svg>
