<?xml version="1.0"?>
<svg width="624" height="202" xmlns="http://www.w3.org/2000/svg" version="1.1">
 <polygon points="4,198 4,3 620,3 620,198 4,198" stroke="#fffffe00" fill="none"/>
 <polygon points="24,162 39,162 79,162 139,162 211,162 290,162 369,162 441,162 501,162 541,162 556,162 558,162 560,161 561,161 563,160 564,158 566,157 567,155 567,154 568,152 568,150 568,146 568,137 568,123 568,105 568,87 568,68 568,50 568,36 568,27 568,23 568,21 567,19 567,18 566,16 564,15 563,13 561,12 560,12 558,11 556,11 541,11 501,11 441,11 369,11 290,11 211,11 139,11 79,11 39,11 24,11 22,11 20,12 19,12 17,13 16,15 14,16 13,18 13,19 12,21 12,23 12,27 12,36 12,50 12,68 12,87 12,105 12,123 12,137 12,146 12,150 12,152 13,154 13,155 14,157 16,158 17,160 19,161 20,161 22,162 24,162" stroke="#afd870" fill="none"/>
 <text x="220" y="26" fill="#afd870" font-family="Arial" font-size="12">Directory Structure ▷</text>
 <polygon points="64,117 78,117 114,117 169,117 234,117 306,117 378,117 443,117 498,117 534,117 548,117 550,117 552,116 553,116 555,115 556,113 558,112 559,110 559,109 560,107 560,105 560,104 560,100 560,95 560,88 560,82 560,75 560,68 560,63 560,59 560,58 560,56 559,54 559,53 558,51 556,50 555,48 553,47 552,47 550,46 548,46 534,46 498,46 443,46 378,46 306,46 234,46 169,46 114,46 78,46 64,46 62,46 60,47 59,47 57,48 56,50 54,51 53,53 53,54 52,56 52,58 52,59 52,63 52,68 52,75 52,82 52,88 52,95 52,100 52,104 52,105 52,107 53,109 53,110 54,112 56,113 57,115 59,116 60,116 62,117 64,117" stroke="#fcad56" fill="none"/>
 <text x="267" y="61" fill="#fcad56" font-family="Arial" font-size="12">▷ LISTED ▷</text>
 <polygon points="328,82 236,82 233,85 233,109 325,109 328,106 328,82" stroke="#90c4e4" fill="#1976d2"/>
 <polyline points="325,85 233,85" stroke="#90c4e4" fill="none"/>
 <polyline points="325,85 325,109" stroke="#90c4e4" fill="none"/>
 <polyline points="325,85 328,82" stroke="#90c4e4" fill="none"/>
 <text x="242" y="97" fill="#ffffff" font-family="Arial" font-size="12">▶ Adapter ▶</text>
 <polygon points="552,82 472,82 469,85 469,109 549,109 552,106 552,82" stroke="#90c4e4" fill="none"/>
 <polyline points="549,85 469,85" stroke="#90c4e4" fill="none"/>
 <polyline points="549,85 549,109" stroke="#90c4e4" fill="none"/>
 <polyline points="549,85 552,82" stroke="#90c4e4" fill="none"/>
 <text x="477" y="97" fill="#000000" font-family="Arial" font-size="12">▷ Plugin ▷</text>
 <polyline points="328,95 340,95 354,95 367,95 382,95 396,95 410,95 424,95 438,95 451,95 463,95" stroke="#4e8cb9" fill="none"/>
 <polygon points="463,94 468,95 463,97 463,94" stroke="#4e8cb9" fill="#4e8cb9"/>
 <polygon points="121,82 63,82 60,85 60,109 118,109 121,106 121,82" stroke="#90c4e4" fill="none"/>
 <polyline points="118,85 60,85" stroke="#90c4e4" fill="none"/>
 <polyline points="118,85 118,109" stroke="#90c4e4" fill="none"/>
 <polyline points="118,85 121,82" stroke="#90c4e4" fill="none"/>
 <text x="69" y="97" fill="#000000" font-family="Arial" font-size="12">Kern ▶</text>
 <polyline points="121,95 130,95 140,95 150,95 161,95 172,95 184,95 195,95 206,95 217,95 228,95" stroke="#4e8cb9" fill="none"/>
 <polygon points="228,94 233,95 228,97 228,94" stroke="#4e8cb9" fill="#4e8cb9"/>
 <polygon points="161,127 23,127 20,130 20,154 158,154 161,151 161,127" stroke="#90c4e4" fill="none"/>
 <polyline points="158,130 20,130" stroke="#90c4e4" fill="none"/>
 <polyline points="158,130 158,154" stroke="#90c4e4" fill="none"/>
 <polyline points="158,130 161,127" stroke="#90c4e4" fill="none"/>
 <text x="29" y="142" fill="#000000" font-family="Arial" font-size="12">LISTED_Testing ▷</text>
 <polyline points="148,127 156,125 164,123 172,121 180,119 188,118 196,116 204,114 212,112 220,110 228,108" stroke="#4e8cb9" fill="none"/>
 <polygon points="228,106 233,107 228,110 228,106" stroke="#4e8cb9" fill="#4e8cb9"/>
 <polygon points="620,171 403,171 400,174 400,198 617,198 620,195 620,171" stroke="#90c4e4" fill="none"/>
 <polyline points="617,174 400,174" stroke="#90c4e4" fill="none"/>
 <polyline points="617,174 617,198" stroke="#90c4e4" fill="none"/>
 <polyline points="617,174 620,171" stroke="#90c4e4" fill="none"/>
 <text x="408" y="186" fill="#000000" font-family="Arial" font-size="12">▶ System.Windows.Forms.dll </text>
 <polyline points="316,109 329,114 344,120 359,126 375,132 392,139 408,145 425,152 441,158 455,164 469,169" stroke="#4e8cb9" fill="none"/>
 <polygon points="470,167 474,171 469,171 470,167" stroke="#4e8cb9" fill="#4e8cb9"/>
</svg>
