<?xml version="1.0"?>
<svg width="268" height="95" xmlns="http://www.w3.org/2000/svg" version="1.1">
 <polygon points="4,91 4,4 264,4 264,91 4,91" stroke="#fffffe00" fill="none"/>
 <polygon points="24,83 30,83 47,83 72,83 101,83 134,83 167,83 196,83 221,83 238,83 244,83 246,83 248,82 249,82 251,81 252,79 254,78 255,76 255,75 256,73 256,71 256,70 256,66 256,61 256,54 256,48 256,41 256,34 256,29 256,25 256,24 256,22 255,20 255,19 254,17 252,16 251,14 249,13 248,13 246,12 244,12 238,12 221,12 196,12 167,12 134,12 101,12 72,12 47,12 30,12 24,12 22,12 20,13 19,13 17,14 16,16 14,17 13,19 13,20 12,22 12,24 12,25 12,29 12,34 12,41 12,48 12,54 12,61 12,66 12,70 12,71 12,73 13,75 13,76 14,78 16,79 17,81 19,82 20,82 22,83 24,83" stroke="#afd870" fill="none"/>
 <text x="64" y="27" fill="#afd870" font-family="Arial" font-size="12">Directory Structure ▷</text>
 <polygon points="248,47 156,47 153,50 153,74 245,74 248,71 248,47" stroke="#90c4e4" fill="none"/>
 <polyline points="245,50 153,50" stroke="#90c4e4" fill="none"/>
 <polyline points="245,50 245,74" stroke="#90c4e4" fill="none"/>
 <polyline points="245,50 248,47" stroke="#90c4e4" fill="none"/>
 <text x="162" y="62" fill="#000000" font-family="Arial" font-size="12">▶ Adapter ▷</text>
 <polygon points="81,47 23,47 20,50 20,74 78,74 81,71 81,47" stroke="#90c4e4" fill="#1976d2"/>
 <polyline points="78,50 20,50" stroke="#90c4e4" fill="none"/>
 <polyline points="78,50 78,74" stroke="#90c4e4" fill="none"/>
 <polyline points="78,50 81,47" stroke="#90c4e4" fill="none"/>
 <text x="29" y="62" fill="#ffffff" font-family="Arial" font-size="12">Kern ▶</text>
 <polyline points="81,61 87,61 93,61 100,61 106,61 113,61 120,61 127,61 134,61 141,61 148,61" stroke="#4e8cb9" fill="none"/>
 <polygon points="148,59 153,61 148,63 148,59" stroke="#4e8cb9" fill="#4e8cb9"/>
</svg>
