<?xml version="1.0"?>
<svg width="765" height="39" xmlns="http://www.w3.org/2000/svg" version="1.1">
 <polygon points="4,35 4,4 761,4 761,35 4,35" stroke="#fffffe00" fill="none"/>
 <polygon points="532,9 417,9 414,12 414,35 529,35 532,32 532,9" stroke="#90c4e4" fill="none"/>
 <polyline points="529,12 414,12" stroke="#90c4e4" fill="none"/>
 <polyline points="529,12 529,35" stroke="#90c4e4" fill="none"/>
 <polyline points="529,12 532,9" stroke="#90c4e4" fill="none"/>
 <text x="422" y="24" fill="#000000" font-family="Arial" font-size="12">LISTED/Plugin</text>
 <polygon points="761,9 616,9 613,12 613,35 758,35 761,32 761,9" stroke="#90c4e4" fill="none"/>
 <polyline points="758,12 613,12" stroke="#90c4e4" fill="none"/>
 <polyline points="758,12 758,35" stroke="#90c4e4" fill="none"/>
 <polyline points="758,12 761,9" stroke="#90c4e4" fill="none"/>
 <text x="621" y="24" fill="#000000" font-family="Arial" font-size="12">LISTED/Properties</text>
 <polyline points="532,22 539,22 546,22 554,22 561,22 569,22 577,22 585,22 592,22 600,22 607,22" stroke="#4e8cb9" fill="none"/>
 <text x="569" y="15" fill="#000000" font-family="Arial" font-size="12">9</text>
 <polygon points="608,20 613,22 608,24 608,20" stroke="#4e8cb9" fill="#4e8cb9"/>
 <polygon points="324,9 196,9 193,12 193,35 321,35 324,32 324,9" stroke="#90c4e4" fill="none"/>
 <polyline points="321,12 193,12" stroke="#90c4e4" fill="none"/>
 <polyline points="321,12 321,35" stroke="#90c4e4" fill="none"/>
 <polyline points="321,12 324,9" stroke="#90c4e4" fill="none"/>
 <text x="202" y="24" fill="#000000" font-family="Arial" font-size="12">LISTED/Adapter</text>
 <polyline points="324,22 332,22 341,22 349,22 358,22 367,22 375,22 384,22 392,22 401,22 409,22" stroke="#4e8cb9" fill="none"/>
 <text x="360" y="15" fill="#000000" font-family="Arial" font-size="12">12</text>
 <polygon points="409,20 414,22 409,24 409,20" stroke="#4e8cb9" fill="#4e8cb9"/>
 <polygon points="112,9 7,9 4,12 4,35 109,35 112,32 112,9" stroke="#90c4e4" fill="none"/>
 <polyline points="109,12 4,12" stroke="#90c4e4" fill="none"/>
 <polyline points="109,12 109,35" stroke="#90c4e4" fill="none"/>
 <polyline points="109,12 112,9" stroke="#90c4e4" fill="none"/>
 <text x="12" y="24" fill="#000000" font-family="Arial" font-size="12">LISTED/Kern</text>
 <polyline points="112,22 119,22 126,22 134,22 141,22 149,22 157,22 165,22 173,22 180,22 188,22" stroke="#4e8cb9" fill="none"/>
 <text x="149" y="15" fill="#000000" font-family="Arial" font-size="12">2</text>
 <polygon points="188,20 193,22 188,24 188,20" stroke="#4e8cb9" fill="#4e8cb9"/>
</svg>
