<?xml version="1.0"?>
<svg width="1870" height="1967" xmlns="http://www.w3.org/2000/svg" version="1.1">
 <polygon points="4,1963 4,4 1866,4 1866,1963 4,1963" stroke="#fffffe00" fill="none"/>
 <polygon points="24,1955 75,1955 213,1955 418,1955 665,1955 935,1955 1205,1955 1452,1955 1657,1955 1795,1955 1846,1955 1848,1955 1850,1954 1851,1954 1853,1953 1854,1951 1856,1950 1857,1948 1857,1947 1858,1945 1858,1943 1858,1891 1858,1751 1858,1543 1858,1292 1858,1018 1858,744 1858,493 1858,285 1858,145 1858,93 1858,91 1857,89 1857,88 1856,86 1854,85 1853,83 1851,82 1850,82 1848,81 1846,81 1795,81 1657,81 1452,81 1205,81 935,81 665,81 418,81 213,81 75,81 24,81 22,81 20,82 19,82 17,83 16,85 14,86 13,88 13,89 12,91 12,93 12,145 12,285 12,493 12,744 12,1018 12,1292 12,1543 12,1751 12,1891 12,1943 12,1945 13,1947 13,1948 14,1950 16,1951 17,1953 19,1954 20,1954 22,1955 24,1955" stroke="#afd870" fill="none"/>
 <text fill="#afd870" font-family="Arial" font-size="12">
  <tspan x="871" y="1905">△</tspan>
  <tspan x="871" y="1917">Directory Structure</tspan>
  <tspan x="871" y="1929"></tspan></text>
 <polygon points="32,1882 83,1882 220,1882 422,1882 668,1882 935,1882 1202,1882 1448,1882 1650,1882 1787,1882 1838,1882 1840,1882 1842,1881 1843,1881 1845,1880 1846,1878 1848,1877 1849,1875 1849,1874 1850,1872 1850,1870 1850,1820 1850,1686 1850,1488 1850,1247 1850,986 1850,724 1850,483 1850,285 1850,151 1850,101 1850,99 1849,97 1849,96 1848,94 1846,93 1845,91 1843,90 1842,90 1840,89 1838,89 1787,89 1650,89 1448,89 1202,89 935,89 668,89 422,89 220,89 83,89 32,89 30,89 28,90 27,90 25,91 24,93 22,94 21,96 21,97 20,99 20,101 20,151 20,285 20,483 20,724 20,986 20,1247 20,1488 20,1686 20,1820 20,1870 20,1872 21,1874 21,1875 22,1877 24,1878 25,1880 27,1881 28,1881 30,1882 32,1882" stroke="#fcad56" fill="none"/>
 <text fill="#fcad56" font-family="Arial" font-size="12">
  <tspan x="908" y="1832">△</tspan>
  <tspan x="908" y="1844">LISTED</tspan>
  <tspan x="908" y="1856"></tspan></text>
 <polygon points="40,1809 90,1809 226,1809 427,1809 670,1809 935,1809 1200,1809 1443,1809 1644,1809 1780,1809 1830,1809 1832,1809 1834,1808 1835,1808 1837,1807 1838,1805 1840,1804 1841,1802 1841,1801 1842,1799 1842,1797 1842,1750 1842,1621 1842,1432 1842,1203 1842,953 1842,703 1842,474 1842,285 1842,156 1842,109 1842,107 1841,105 1841,104 1840,102 1838,101 1837,99 1835,98 1834,98 1832,97 1830,97 1780,97 1644,97 1443,97 1200,97 935,97 670,97 427,97 226,97 90,97 40,97 38,97 36,98 35,98 33,99 32,101 30,102 29,104 29,105 28,107 28,109 28,156 28,285 28,474 28,703 28,953 28,1203 28,1432 28,1621 28,1750 28,1797 28,1799 29,1801 29,1802 30,1804 32,1805 33,1807 35,1808 36,1808 38,1809 40,1809" stroke="#569f38" fill="none"/>
 <text fill="#569f38" font-family="Arial" font-size="12">
  <tspan x="914" y="1759">△</tspan>
  <tspan x="914" y="1771">Plugin</tspan>
  <tspan x="914" y="1783"></tspan></text>
 <polygon points="1828,105 958,105 958,1736 1834,1736 1834,111 1828,105" stroke="#90c4e4" fill="none"/>
 <polyline points="1828,105 1828,111" stroke="#90c4e4" fill="none"/>
 <polyline points="1834,111 1828,111" stroke="#90c4e4" fill="none"/>
 <text fill="#000000" font-family="Arial" font-size="12"
  <tspan x="966" y="132">▲</tspan>
  <tspan x="966" y="144">LISTED.Plugin.Gui1</tspan>
  <tspan x="966" y="180">+ richTextBox6: System.Windows.Forms.RichTextBox</tspan>
  <tspan x="966" y="192">+ richTextBox1: System.Windows.Forms.RichTextBox</tspan>
  <tspan x="966" y="204">- userLabel: System.Windows.Forms.Label</tspan>
  <tspan x="966" y="216">- txtboxUpevent2: System.Windows.Forms.RichTextBox</tspan>
  <tspan x="966" y="228">- txtboxUpevent1: System.Windows.Forms.RichTextBox</tspan>
  <tspan x="966" y="240">- txtboxHlights2: System.Windows.Forms.RichTextBox</tspan>
  <tspan x="966" y="252">- txtboxHlights1: System.Windows.Forms.RichTextBox</tspan>
  <tspan x="966" y="264">- tabPageMain: System.Windows.Forms.TabPage</tspan>
  <tspan x="966" y="276">- tabControlMain: System.Windows.Forms.TabControl</tspan>
  <tspan x="966" y="288">- richTextBox9: System.Windows.Forms.RichTextBox</tspan>
  <tspan x="966" y="300">- richTextBox8: System.Windows.Forms.RichTextBox</tspan>
  <tspan x="966" y="312">- richTextBox7: System.Windows.Forms.RichTextBox</tspan>
  <tspan x="966" y="324">- richTextBox5: System.Windows.Forms.RichTextBox</tspan>
  <tspan x="966" y="336">- richTextBox4: System.Windows.Forms.RichTextBox</tspan>
  <tspan x="966" y="348">- richTextBox3: System.Windows.Forms.RichTextBox</tspan>
  <tspan x="966" y="360">- richTextBox2: System.Windows.Forms.RichTextBox</tspan>
  <tspan x="966" y="372">- richTextBox10: System.Windows.Forms.RichTextBox</tspan>
  <tspan x="966" y="384">- pnlNav: System.Windows.Forms.Panel</tspan>
  <tspan x="966" y="396">- pictureBox3: System.Windows.Forms.PictureBox</tspan>
  <tspan x="966" y="408">- pictureBox2: System.Windows.Forms.PictureBox</tspan>
  <tspan x="966" y="420">- pictureBox1: System.Windows.Forms.PictureBox</tspan>
  <tspan x="966" y="432">- panelLeft: System.Windows.Forms.Panel</tspan>
  <tspan x="966" y="444">- panel3: System.Windows.Forms.Panel</tspan>
  <tspan x="966" y="456">- panel2: System.Windows.Forms.Panel</tspan>
  <tspan x="966" y="468">- panel1: System.Windows.Forms.Panel</tspan>
  <tspan x="966" y="480">- logo: System.Windows.Forms.PictureBox</tspan>
  <tspan x="966" y="492">- lblHome: System.Windows.Forms.Label</tspan>
  <tspan x="966" y="504">- lblEvents: System.Windows.Forms.Label</tspan>
  <tspan x="966" y="516">- label1: System.Windows.Forms.Label</tspan>
  <tspan x="966" y="528">- components: System.ComponentModel.IContainer= null</tspan>
  <tspan x="966" y="540">- checkBox5: System.Windows.Forms.CheckBox</tspan>
  <tspan x="966" y="552">- checkBox4: System.Windows.Forms.CheckBox</tspan>
  <tspan x="966" y="564">- checkBox3: System.Windows.Forms.CheckBox</tspan>
  <tspan x="966" y="576">- checkBox2: System.Windows.Forms.CheckBox</tspan>
  <tspan x="966" y="588">- checkBox1: System.Windows.Forms.CheckBox</tspan>
  <tspan x="966" y="600">- btnX: System.Windows.Forms.Button</tspan>
  <tspan x="966" y="612">- btnTodo: System.Windows.Forms.Button</tspan>
  <tspan x="966" y="624">- btnLogOut: System.Windows.Forms.Button</tspan>
  <tspan x="966" y="636">- btnHome: System.Windows.Forms.Button</tspan>
  <tspan x="966" y="648">- btnCal: System.Windows.Forms.Button</tspan>
  <tspan x="966" y="660">- btnAlarm: System.Windows.Forms.Button</tspan>
  <tspan x="966" y="684">- CreateRoundRectRgn (nLeftRect: int ,nTopRect: int ,nRightRect: int ,nBottomRect: int ,nWidthEllipse: int ,nHeightEllipse: int )</tspan>
  <tspan x="966" y="696">+ createNewList ()</tspan>
  <tspan x="966" y="708">+ btn_Save_Click (sender: object ,e: EventArgs )</tspan>
  <tspan x="966" y="720">+ WriteDateFromDatabaseToTextBoxes (arrayPartDate: ArrayList )</tspan>
  <tspan x="966" y="732">+ WriteCalendarNameFromDatabaseToTextBoxes (arrayPart: ArrayList )</tspan>
  <tspan x="966" y="744">+ SplitDataFromStorageName (myInput: string )</tspan>
  <tspan x="966" y="756">+ SplitDataFromStorageDate (myInput: string )</tspan>
  <tspan x="966" y="768">+ FormalizeContentToString ()</tspan>
  <tspan x="966" y="780">+ DeleteContentFromAllTextboxes ()</tspan>
  <tspan x="966" y="792">+ Gui1 ()</tspan>
  <tspan x="966" y="804"># Dispose (disposing: bool )</tspan>
  <tspan x="966" y="816">- radioButton5_CheckedChanged (sender: object ,e: EventArgs )</tspan>
  <tspan x="966" y="828">- radioButton4_CheckedChanged (sender: object ,e: EventArgs )</tspan>
  <tspan x="966" y="840">- radioButton3_CheckedChanged (sender: object ,e: EventArgs )</tspan>
  <tspan x="966" y="852">- radioButton2_CheckedChanged (sender: object ,e: EventArgs )</tspan>
  <tspan x="966" y="864">- load_Database ()</tspan>
  <tspan x="966" y="876">- checkBox5_CheckedChanged (sender: object ,e: EventArgs )</tspan>
  <tspan x="966" y="888">- checkBox4_CheckedChanged (sender: object ,e: EventArgs )</tspan>
  <tspan x="966" y="900">- checkBox3_CheckedChanged (sender: object ,e: EventArgs )</tspan>
  <tspan x="966" y="912">- checkBox2_CheckedChanged (sender: object ,e: EventArgs )</tspan>
  <tspan x="966" y="924">- checkBox1_CheckedChanged (sender: object ,e: EventArgs )</tspan>
  <tspan x="966" y="936">- button1_Click (sender: object ,e: EventArgs )</tspan>
  <tspan x="966" y="948">- btnX_Click (sender: object ,e: EventArgs )</tspan>
  <tspan x="966" y="960">- btnTodo_Leave (sender: object ,e: EventArgs )</tspan>
  <tspan x="966" y="972">- btnTodo_Click (sender: object ,e: EventArgs )</tspan>
  <tspan x="966" y="984">- btnLogOut_Leave (sender: object ,e: EventArgs )</tspan>
  <tspan x="966" y="996">- btnLogOut_Click (sender: object ,e: EventArgs )</tspan>
  <tspan x="966" y="1008">- btnHome_Leave (sender: object ,e: EventArgs )</tspan>
  <tspan x="966" y="1020">- btnHome_Click (sender: object ,e: EventArgs )</tspan>
  <tspan x="966" y="1032">- btnCal_Leave (sender: object ,e: EventArgs )</tspan>
  <tspan x="966" y="1044">- btnCal_Click (sender: object ,e: EventArgs )</tspan>
  <tspan x="966" y="1056">- btnAlarm_Leave (sender: object ,e: EventArgs )</tspan>
  <tspan x="966" y="1068">- btnAlarm_Click (sender: object ,e: EventArgs )</tspan>
  <tspan x="966" y="1080">- bg_Color (btn: Button )</tspan>
  <tspan x="966" y="1092">- WriteContentIntoTextboxes ()</tspan>
  <tspan x="966" y="1104">- WriteContentIntoEmptyRichTextBox ()</tspan>
  <tspan x="966" y="1116">- InitializeComponent ()</tspan>
  <tspan x="966" y="1128">- Gui1_Load (sender: object ,e: EventArgs )</tspan>
  <tspan x="966" y="1140">- Gui1_FormClosing_1 (sender: object ,e: FormClosingEventArgs )</tspan>
  <tspan x="966" y="1152"></tspan></text>
 <polygon points="934,675 528,675 528,1166 940,1166 940,681 934,675" stroke="#90c4e4" fill="none"/>
 <polyline points="934,675 934,681" stroke="#90c4e4" fill="none"/>
 <polyline points="940,681 934,681" stroke="#90c4e4" fill="none"/>
 <text fill="#000000" font-family="Arial" font-size="12"
  <tspan x="536" y="702">▲</tspan>
  <tspan x="536" y="714">LISTED.Plugin.Gui2</tspan>
  <tspan x="536" y="750">- txtName: System.Windows.Forms.TextBox</tspan>
  <tspan x="536" y="762">- txtBeschreibung: System.Windows.Forms.TextBox</tspan>
  <tspan x="536" y="774">- lblName: System.Windows.Forms.Label</tspan>
  <tspan x="536" y="786">- label3: System.Windows.Forms.Label</tspan>
  <tspan x="536" y="798">- label2: System.Windows.Forms.Label</tspan>
  <tspan x="536" y="810">- label1: System.Windows.Forms.Label</tspan>
  <tspan x="536" y="822">- dtpDatum: System.Windows.Forms.DateTimePicker</tspan>
  <tspan x="536" y="834">- components: System.ComponentModel.IContainer= null</tspan>
  <tspan x="536" y="846">- cbWecker: System.Windows.Forms.CheckBox</tspan>
  <tspan x="536" y="858">- btnSpeichern: System.Windows.Forms.Button</tspan>
  <tspan x="536" y="870">- btnAbbrechen: System.Windows.Forms.Button</tspan>
  <tspan x="536" y="894">+ Gui2 ()</tspan>
  <tspan x="536" y="906"># Dispose (disposing: bool )</tspan>
  <tspan x="536" y="918">- label4_Click (sender: object ,e: EventArgs )</tspan>
  <tspan x="536" y="930">- label3_Click (sender: object ,e: EventArgs )</tspan>
  <tspan x="536" y="942">- label1_Click (sender: object ,e: EventArgs )</tspan>
  <tspan x="536" y="954">- btn_Speichern_Click (sender: object ,e: EventArgs )</tspan>
  <tspan x="536" y="966">- btnAbbrechen_Click (sender: object ,e: EventArgs )</tspan>
  <tspan x="536" y="978">- InitializeComponent ()</tspan>
  <tspan x="536" y="990">- Gui2_Load (sender: object ,e: EventArgs )</tspan>
  <tspan x="536" y="1002"></tspan></text>
 <polygon points="504,713 36,713 36,1128 510,1128 510,719 504,713" stroke="#90c4e4" fill="none"/>
 <polyline points="504,713 504,719" stroke="#90c4e4" fill="none"/>
 <polyline points="510,719 504,719" stroke="#90c4e4" fill="none"/>
 <text fill="#000000" font-family="Arial" font-size="12"
  <tspan x="44" y="740">▲</tspan>
  <tspan x="44" y="752">LISTED.Plugin.GuiAlarm</tspan>
  <tspan x="44" y="788">- timer: System.Timers.Timer</tspan>
  <tspan x="44" y="800">- lblStatus: System.Windows.Forms.Label</tspan>
  <tspan x="44" y="812">- label1: System.Windows.Forms.Label</tspan>
  <tspan x="44" y="824">- dateTimePickerAlarm: System.Windows.Forms.DateTimePicker</tspan>
  <tspan x="44" y="836">- components: System.ComponentModel.IContainer= null</tspan>
  <tspan x="44" y="848">- button2: System.Windows.Forms.Button</tspan>
  <tspan x="44" y="860">- btnStopAlarm: System.Windows.Forms.Button</tspan>
  <tspan x="44" y="872">- btnStartAlarm: System.Windows.Forms.Button</tspan>
  <tspan x="44" y="896">+ GuiAlarm ()</tspan>
  <tspan x="44" y="908"># Dispose (disposing: bool )</tspan>
  <tspan x="44" y="920">- btnStopAlarm_Click (sender: object ,e: EventArgs )</tspan>
  <tspan x="44" y="932">- btnStartAlarm_Click (sender: object ,e: EventArgs )</tspan>
  <tspan x="44" y="944">- UpdateDataLabel (lbl: Label ,value: string )</tspan>
  <tspan x="44" y="956">- Timer_Elapsed (sender: object ,e: ElapsedEventArgs )</tspan>
  <tspan x="44" y="968">- InitializeComponent ()</tspan>
  <tspan x="44" y="980">- GuiAlarm_Load (sender: object ,e: EventArgs )</tspan>
  <tspan x="44" y="992"></tspan></text>
 <polygon points="847,4 625,4 621,8 621,69 843,69 847,65 847,4" stroke="#90c4e4" fill="none"/>
 <polyline points="843,8 621,8" stroke="#90c4e4" fill="none"/>
 <polyline points="843,8 843,69" stroke="#90c4e4" fill="none"/>
 <polyline points="843,8 847,4" stroke="#90c4e4" fill="none"/>
 <text fill="#000000" font-family="Arial" font-size="12">
  <tspan x="629" y="19">△</tspan>
  <tspan x="629" y="31">System.Windows.Forms.Form</tspan>
  <tspan x="629" y="43">△</tspan></text>
 <polyline points="979,105 976,103 973,100 970,98 967,95 964,93 961,91 958,88 955,86 952,83 949,81 944,77 937,74 929,71 920,68 910,65 899,62 888,59 876,57 864,54 852,52" stroke="#4e8cb9" fill="none"/>
 <polygon points="852,54 847,51 852,51 852,54" stroke="#4e8cb9" fill="#4e8cb9"/>
 <polyline points="734,675 734,609 734,541 734,471 734,401 734,333 734,268 734,208 734,155 734,110 734,74" stroke="#4e8cb9" fill="none"/>
 <polygon points="732,74 734,69 736,74 732,74" stroke="#4e8cb9" fill="#4e8cb9"/>
 <polyline points="276,713 282,653 290,589 302,522 318,454 338,385 362,318 392,252 428,190 470,133 519,81 524,77 531,73 539,69 548,66 557,63 568,60 579,57 591,55 603,53 616,51" stroke="#4e8cb9" fill="none"/>
 <polygon points="616,49 621,50 616,52 616,49" stroke="#4e8cb9" fill="#4e8cb9"/>
</svg>
