<?xml version="1.0"?>
<svg width="6262" height="1967" xmlns="http://www.w3.org/2000/svg" version="1.1">
 <polygon points="4,1963 4,4 6258,4 6258,1963 4,1963" stroke="#fffffe00" fill="none"/>
 <polygon points="24,1955 198,1955 670,1955 1366,1955 2211,1955 3131,1955 4051,1955 4896,1955 5592,1955 6064,1955 6238,1955 6240,1955 6242,1954 6243,1954 6245,1953 6246,1951 6248,1950 6249,1948 6249,1947 6250,1945 6250,1943 6250,1891 6250,1751 6250,1543 6250,1292 6250,1018 6250,744 6250,493 6250,285 6250,145 6250,93 6250,91 6249,89 6249,88 6248,86 6246,85 6245,83 6243,82 6242,82 6240,81 6238,81 6064,81 5592,81 4896,81 4051,81 3131,81 2211,81 1366,81 670,81 198,81 24,81 22,81 20,82 19,82 17,83 16,85 14,86 13,88 13,89 12,91 12,93 12,145 12,285 12,493 12,744 12,1018 12,1292 12,1543 12,1751 12,1891 12,1943 12,1945 13,1947 13,1948 14,1950 16,1951 17,1953 19,1954 20,1954 22,1955 24,1955" stroke="#afd870" fill="none"/>
 <text fill="#afd870" font-family="Arial" font-size="12">
  <tspan x="3067" y="1905">△</tspan>
  <tspan x="3067" y="1917">Directory Structure</tspan>
  <tspan x="3067" y="1929"></tspan></text>
 <polygon points="32,1882 206,1882 677,1882 1371,1882 2214,1882 3131,1882 4048,1882 4891,1882 5585,1882 6056,1882 6230,1882 6232,1882 6234,1881 6235,1881 6237,1880 6238,1878 6240,1877 6241,1875 6241,1874 6242,1872 6242,1870 6242,1820 6242,1686 6242,1488 6242,1247 6242,986 6242,724 6242,483 6242,285 6242,151 6242,101 6242,99 6241,97 6241,96 6240,94 6238,93 6237,91 6235,90 6234,90 6232,89 6230,89 6056,89 5585,89 4891,89 4048,89 3131,89 2214,89 1371,89 677,89 206,89 32,89 30,89 28,90 27,90 25,91 24,93 22,94 21,96 21,97 20,99 20,101 20,151 20,285 20,483 20,724 20,986 20,1247 20,1488 20,1686 20,1820 20,1870 20,1872 21,1874 21,1875 22,1877 24,1878 25,1880 27,1881 28,1881 30,1882 32,1882" stroke="#fcad56" fill="none"/>
 <text fill="#fcad56" font-family="Arial" font-size="12">
  <tspan x="3104" y="1832">▲</tspan>
  <tspan x="3104" y="1844">LISTED</tspan>
  <tspan x="3104" y="1856"></tspan></text>
 <polygon points="1510,1058 1515,1058 1528,1058 1547,1058 1570,1058 1595,1058 1620,1058 1643,1058 1662,1058 1675,1058 1680,1058 1682,1058 1684,1057 1685,1057 1687,1056 1688,1054 1690,1053 1691,1051 1691,1050 1692,1048 1692,1046 1692,1041 1692,1027 1692,1006 1692,980 1692,953 1692,925 1692,899 1692,878 1692,864 1692,859 1692,857 1691,855 1691,854 1690,852 1688,851 1687,849 1685,848 1684,848 1682,847 1680,847 1675,847 1662,847 1643,847 1620,847 1595,847 1570,847 1547,847 1528,847 1515,847 1510,847 1508,847 1506,848 1505,848 1503,849 1502,851 1500,852 1499,854 1499,855 1498,857 1498,859 1498,864 1498,878 1498,899 1498,925 1498,953 1498,980 1498,1006 1498,1027 1498,1041 1498,1046 1498,1048 1499,1050 1499,1051 1500,1053 1502,1054 1503,1056 1505,1057 1506,1057 1508,1058 1510,1058" stroke="#569f38" fill="none"/>
 <text fill="#569f38" font-family="Arial" font-size="12">
  <tspan x="1579" y="1008">▲</tspan>
  <tspan x="1579" y="1020">Kern</tspan>
  <tspan x="1579" y="1032"></tspan></text>
 <polygon points="1678,855 1507,855 1507,985 1684,985 1684,861 1678,855" stroke="#90c4e4" fill="none"/>
 <polyline points="1678,855 1678,861" stroke="#90c4e4" fill="none"/>
 <polyline points="1684,861 1678,861" stroke="#90c4e4" fill="none"/>
 <text fill="#000000" font-family="Arial" font-size="12"
  <tspan x="1515" y="882">▲</tspan>
  <tspan x="1515" y="894">LISTED.Kern.Program</tspan>
  <tspan x="1515" y="942">- Main ()</tspan>
  <tspan x="1515" y="954"></tspan></text>
 <polygon points="139,1096 176,1096 278,1096 428,1096 610,1096 809,1096 1007,1096 1189,1096 1339,1096 1441,1096 1478,1096 1480,1096 1482,1095 1483,1095 1485,1094 1486,1092 1488,1091 1489,1089 1489,1088 1490,1086 1490,1084 1490,1077 1490,1057 1490,1027 1490,991 1490,953 1490,914 1490,878 1490,848 1490,828 1490,821 1490,819 1489,817 1489,816 1488,814 1486,813 1485,811 1483,810 1482,810 1480,809 1478,809 1441,809 1339,809 1189,809 1007,809 809,809 610,809 428,809 278,809 176,809 139,809 137,809 135,810 134,810 132,811 131,813 129,814 128,816 128,817 127,819 127,821 127,828 127,848 127,878 127,914 127,953 127,991 127,1027 127,1057 127,1077 127,1084 127,1086 128,1088 128,1089 129,1091 131,1092 132,1094 134,1095 135,1095 137,1096 139,1096" stroke="#569f38" fill="none"/>
 <text fill="#569f38" font-family="Arial" font-size="12">
  <tspan x="781" y="1046">▲</tspan>
  <tspan x="781" y="1058">Adapter</tspan>
  <tspan x="781" y="1070"></tspan></text>
 <polygon points="1476,855 1261,855 1261,985 1482,985 1482,861 1476,855" stroke="#90c4e4" fill="none"/>
 <polyline points="1476,855 1476,861" stroke="#90c4e4" fill="none"/>
 <polyline points="1482,861 1476,861" stroke="#90c4e4" fill="none"/>
 <text fill="#000000" font-family="Arial" font-size="12"
  <tspan x="1269" y="882">▲</tspan>
  <tspan x="1269" y="894">LISTED.Adapter.ControlGui1</tspan>
  <tspan x="1269" y="942">+ ControlGui1 ()</tspan>
  <tspan x="1269" y="954"></tspan></text>
 <polygon points="1237,855 1086,855 1086,985 1243,985 1243,861 1237,855" stroke="#90c4e4" fill="none"/>
 <polyline points="1237,855 1237,861" stroke="#90c4e4" fill="none"/>
 <polyline points="1243,861 1237,861" stroke="#90c4e4" fill="none"/>
 <text fill="#000000" font-family="Arial" font-size="12"
  <tspan x="1094" y="882">▲</tspan>
  <tspan x="1094" y="894">LISTED.Adapter.Init</tspan>
  <tspan x="1094" y="942">+ Init ()</tspan>
  <tspan x="1094" y="954"></tspan></text>
 <polygon points="1061,827 621,827 621,1014 1067,1014 1067,833 1061,827" stroke="#90c4e4" fill="none"/>
 <polyline points="1061,827 1061,833" stroke="#90c4e4" fill="none"/>
 <polyline points="1067,833 1061,833" stroke="#90c4e4" fill="none"/>
 <text fill="#000000" font-family="Arial" font-size="12"
  <tspan x="629" y="854">▲</tspan>
  <tspan x="629" y="866">LISTED.Adapter.InputHandler</tspan>
  <tspan x="629" y="902">- mydatastorage: IoDatastorage</tspan>
  <tspan x="629" y="926">+ int_InputHandler_VerifyUserInput (string_UserInput: String )</tspan>
  <tspan x="629" y="938">+ int_InputHandler_CheckDatabase (string_UserInput: String )</tspan>
  <tspan x="629" y="950">+ InputHandler ()</tspan>
  <tspan x="629" y="962"></tspan></text>
 <polygon points="597,817 136,817 136,1023 603,1023 603,823 597,817" stroke="#90c4e4" fill="none"/>
 <polyline points="597,817 597,823" stroke="#90c4e4" fill="none"/>
 <polyline points="603,823 597,823" stroke="#90c4e4" fill="none"/>
 <text fill="#000000" font-family="Arial" font-size="12"
  <tspan x="144" y="844">▲</tspan>
  <tspan x="144" y="856">LISTED.Adapter.OutputHandler</tspan>
  <tspan x="144" y="892">- myOutputHandler: OutputHandler</tspan>
  <tspan x="144" y="904">- myIoDatastorage: IoDatastorage</tspan>
  <tspan x="144" y="928">+ v_OutputHandler_SplitDataStream (string_Content: String )</tspan>
  <tspan x="144" y="940">+ v_OutputHandler_ReceiveDataStream (string_Content: String )</tspan>
  <tspan x="144" y="952">+ OutputHandler ()</tspan>
  <tspan x="144" y="964"></tspan></text>
 <polygon points="1712,1809 1838,1809 2181,1809 2686,1809 3300,1809 3967,1809 4634,1809 5248,1809 5753,1809 6096,1809 6222,1809 6224,1809 6226,1808 6227,1808 6229,1807 6230,1805 6232,1804 6233,1802 6233,1801 6234,1799 6234,1797 6234,1750 6234,1621 6234,1432 6234,1203 6234,953 6234,703 6234,474 6234,285 6234,156 6234,109 6234,107 6233,105 6233,104 6232,102 6230,101 6229,99 6227,98 6226,98 6224,97 6222,97 6096,97 5753,97 5248,97 4634,97 3967,97 3300,97 2686,97 2181,97 1838,97 1712,97 1710,97 1708,98 1707,98 1705,99 1704,101 1702,102 1701,104 1701,105 1700,107 1700,109 1700,156 1700,285 1700,474 1700,703 1700,953 1700,1203 1700,1432 1700,1621 1700,1750 1700,1797 1700,1799 1701,1801 1701,1802 1702,1804 1704,1805 1705,1807 1707,1808 1708,1808 1710,1809 1712,1809" stroke="#569f38" fill="none"/>
 <text fill="#569f38" font-family="Arial" font-size="12">
  <tspan x="3946" y="1759">▲</tspan>
  <tspan x="3946" y="1771">Plugin</tspan>
  <tspan x="3946" y="1783"></tspan></text>
 <polygon points="6220,105 5350,105 5350,1736 6226,1736 6226,111 6220,105" stroke="#90c4e4" fill="none"/>
 <polyline points="6220,105 6220,111" stroke="#90c4e4" fill="none"/>
 <polyline points="6226,111 6220,111" stroke="#90c4e4" fill="none"/>
 <text fill="#000000" font-family="Arial" font-size="12"
  <tspan x="5358" y="132">▲</tspan>
  <tspan x="5358" y="144">LISTED.Plugin.Gui1</tspan>
  <tspan x="5358" y="180">+ richTextBox6: System.Windows.Forms.RichTextBox</tspan>
  <tspan x="5358" y="192">+ richTextBox1: System.Windows.Forms.RichTextBox</tspan>
  <tspan x="5358" y="204">- userLabel: System.Windows.Forms.Label</tspan>
  <tspan x="5358" y="216">- txtboxUpevent2: System.Windows.Forms.RichTextBox</tspan>
  <tspan x="5358" y="228">- txtboxUpevent1: System.Windows.Forms.RichTextBox</tspan>
  <tspan x="5358" y="240">- txtboxHlights2: System.Windows.Forms.RichTextBox</tspan>
  <tspan x="5358" y="252">- txtboxHlights1: System.Windows.Forms.RichTextBox</tspan>
  <tspan x="5358" y="264">- tabPageMain: System.Windows.Forms.TabPage</tspan>
  <tspan x="5358" y="276">- tabControlMain: System.Windows.Forms.TabControl</tspan>
  <tspan x="5358" y="288">- richTextBox9: System.Windows.Forms.RichTextBox</tspan>
  <tspan x="5358" y="300">- richTextBox8: System.Windows.Forms.RichTextBox</tspan>
  <tspan x="5358" y="312">- richTextBox7: System.Windows.Forms.RichTextBox</tspan>
  <tspan x="5358" y="324">- richTextBox5: System.Windows.Forms.RichTextBox</tspan>
  <tspan x="5358" y="336">- richTextBox4: System.Windows.Forms.RichTextBox</tspan>
  <tspan x="5358" y="348">- richTextBox3: System.Windows.Forms.RichTextBox</tspan>
  <tspan x="5358" y="360">- richTextBox2: System.Windows.Forms.RichTextBox</tspan>
  <tspan x="5358" y="372">- richTextBox10: System.Windows.Forms.RichTextBox</tspan>
  <tspan x="5358" y="384">- pnlNav: System.Windows.Forms.Panel</tspan>
  <tspan x="5358" y="396">- pictureBox3: System.Windows.Forms.PictureBox</tspan>
  <tspan x="5358" y="408">- pictureBox2: System.Windows.Forms.PictureBox</tspan>
  <tspan x="5358" y="420">- pictureBox1: System.Windows.Forms.PictureBox</tspan>
  <tspan x="5358" y="432">- panelLeft: System.Windows.Forms.Panel</tspan>
  <tspan x="5358" y="444">- panel3: System.Windows.Forms.Panel</tspan>
  <tspan x="5358" y="456">- panel2: System.Windows.Forms.Panel</tspan>
  <tspan x="5358" y="468">- panel1: System.Windows.Forms.Panel</tspan>
  <tspan x="5358" y="480">- logo: System.Windows.Forms.PictureBox</tspan>
  <tspan x="5358" y="492">- lblHome: System.Windows.Forms.Label</tspan>
  <tspan x="5358" y="504">- lblEvents: System.Windows.Forms.Label</tspan>
  <tspan x="5358" y="516">- label1: System.Windows.Forms.Label</tspan>
  <tspan x="5358" y="528">- components: System.ComponentModel.IContainer= null</tspan>
  <tspan x="5358" y="540">- checkBox5: System.Windows.Forms.CheckBox</tspan>
  <tspan x="5358" y="552">- checkBox4: System.Windows.Forms.CheckBox</tspan>
  <tspan x="5358" y="564">- checkBox3: System.Windows.Forms.CheckBox</tspan>
  <tspan x="5358" y="576">- checkBox2: System.Windows.Forms.CheckBox</tspan>
  <tspan x="5358" y="588">- checkBox1: System.Windows.Forms.CheckBox</tspan>
  <tspan x="5358" y="600">- btnX: System.Windows.Forms.Button</tspan>
  <tspan x="5358" y="612">- btnTodo: System.Windows.Forms.Button</tspan>
  <tspan x="5358" y="624">- btnLogOut: System.Windows.Forms.Button</tspan>
  <tspan x="5358" y="636">- btnHome: System.Windows.Forms.Button</tspan>
  <tspan x="5358" y="648">- btnCal: System.Windows.Forms.Button</tspan>
  <tspan x="5358" y="660">- btnAlarm: System.Windows.Forms.Button</tspan>
  <tspan x="5358" y="684">- CreateRoundRectRgn (nLeftRect: int ,nTopRect: int ,nRightRect: int ,nBottomRect: int ,nWidthEllipse: int ,nHeightEllipse: int )</tspan>
  <tspan x="5358" y="696">+ createNewList ()</tspan>
  <tspan x="5358" y="708">+ btn_Save_Click (sender: object ,e: EventArgs )</tspan>
  <tspan x="5358" y="720">+ WriteDateFromDatabaseToTextBoxes (arrayPartDate: ArrayList )</tspan>
  <tspan x="5358" y="732">+ WriteCalendarNameFromDatabaseToTextBoxes (arrayPart: ArrayList )</tspan>
  <tspan x="5358" y="744">+ SplitDataFromStorageName (myInput: string )</tspan>
  <tspan x="5358" y="756">+ SplitDataFromStorageDate (myInput: string )</tspan>
  <tspan x="5358" y="768">+ FormalizeContentToString ()</tspan>
  <tspan x="5358" y="780">+ DeleteContentFromAllTextboxes ()</tspan>
  <tspan x="5358" y="792">+ Gui1 ()</tspan>
  <tspan x="5358" y="804"># Dispose (disposing: bool )</tspan>
  <tspan x="5358" y="816">- radioButton5_CheckedChanged (sender: object ,e: EventArgs )</tspan>
  <tspan x="5358" y="828">- radioButton4_CheckedChanged (sender: object ,e: EventArgs )</tspan>
  <tspan x="5358" y="840">- radioButton3_CheckedChanged (sender: object ,e: EventArgs )</tspan>
  <tspan x="5358" y="852">- radioButton2_CheckedChanged (sender: object ,e: EventArgs )</tspan>
  <tspan x="5358" y="864">- load_Database ()</tspan>
  <tspan x="5358" y="876">- checkBox5_CheckedChanged (sender: object ,e: EventArgs )</tspan>
  <tspan x="5358" y="888">- checkBox4_CheckedChanged (sender: object ,e: EventArgs )</tspan>
  <tspan x="5358" y="900">- checkBox3_CheckedChanged (sender: object ,e: EventArgs )</tspan>
  <tspan x="5358" y="912">- checkBox2_CheckedChanged (sender: object ,e: EventArgs )</tspan>
  <tspan x="5358" y="924">- checkBox1_CheckedChanged (sender: object ,e: EventArgs )</tspan>
  <tspan x="5358" y="936">- button1_Click (sender: object ,e: EventArgs )</tspan>
  <tspan x="5358" y="948">- btnX_Click (sender: object ,e: EventArgs )</tspan>
  <tspan x="5358" y="960">- btnTodo_Leave (sender: object ,e: EventArgs )</tspan>
  <tspan x="5358" y="972">- btnTodo_Click (sender: object ,e: EventArgs )</tspan>
  <tspan x="5358" y="984">- btnLogOut_Leave (sender: object ,e: EventArgs )</tspan>
  <tspan x="5358" y="996">- btnLogOut_Click (sender: object ,e: EventArgs )</tspan>
  <tspan x="5358" y="1008">- btnHome_Leave (sender: object ,e: EventArgs )</tspan>
  <tspan x="5358" y="1020">- btnHome_Click (sender: object ,e: EventArgs )</tspan>
  <tspan x="5358" y="1032">- btnCal_Leave (sender: object ,e: EventArgs )</tspan>
  <tspan x="5358" y="1044">- btnCal_Click (sender: object ,e: EventArgs )</tspan>
  <tspan x="5358" y="1056">- btnAlarm_Leave (sender: object ,e: EventArgs )</tspan>
  <tspan x="5358" y="1068">- btnAlarm_Click (sender: object ,e: EventArgs )</tspan>
  <tspan x="5358" y="1080">- bg_Color (btn: Button )</tspan>
  <tspan x="5358" y="1092">- WriteContentIntoTextboxes ()</tspan>
  <tspan x="5358" y="1104">- WriteContentIntoEmptyRichTextBox ()</tspan>
  <tspan x="5358" y="1116">- InitializeComponent ()</tspan>
  <tspan x="5358" y="1128">- Gui1_Load (sender: object ,e: EventArgs )</tspan>
  <tspan x="5358" y="1140">- Gui1_FormClosing_1 (sender: object ,e: FormClosingEventArgs )</tspan>
  <tspan x="5358" y="1152"></tspan></text>
 <polygon points="5326,675 4920,675 4920,1166 5332,1166 5332,681 5326,675" stroke="#90c4e4" fill="none"/>
 <polyline points="5326,675 5326,681" stroke="#90c4e4" fill="none"/>
 <polyline points="5332,681 5326,681" stroke="#90c4e4" fill="none"/>
 <text fill="#000000" font-family="Arial" font-size="12"
  <tspan x="4928" y="702">▲</tspan>
  <tspan x="4928" y="714">LISTED.Plugin.Gui2</tspan>
  <tspan x="4928" y="750">- txtName: System.Windows.Forms.TextBox</tspan>
  <tspan x="4928" y="762">- txtBeschreibung: System.Windows.Forms.TextBox</tspan>
  <tspan x="4928" y="774">- lblName: System.Windows.Forms.Label</tspan>
  <tspan x="4928" y="786">- label3: System.Windows.Forms.Label</tspan>
  <tspan x="4928" y="798">- label2: System.Windows.Forms.Label</tspan>
  <tspan x="4928" y="810">- label1: System.Windows.Forms.Label</tspan>
  <tspan x="4928" y="822">- dtpDatum: System.Windows.Forms.DateTimePicker</tspan>
  <tspan x="4928" y="834">- components: System.ComponentModel.IContainer= null</tspan>
  <tspan x="4928" y="846">- cbWecker: System.Windows.Forms.CheckBox</tspan>
  <tspan x="4928" y="858">- btnSpeichern: System.Windows.Forms.Button</tspan>
  <tspan x="4928" y="870">- btnAbbrechen: System.Windows.Forms.Button</tspan>
  <tspan x="4928" y="894">+ Gui2 ()</tspan>
  <tspan x="4928" y="906"># Dispose (disposing: bool )</tspan>
  <tspan x="4928" y="918">- label4_Click (sender: object ,e: EventArgs )</tspan>
  <tspan x="4928" y="930">- label3_Click (sender: object ,e: EventArgs )</tspan>
  <tspan x="4928" y="942">- label1_Click (sender: object ,e: EventArgs )</tspan>
  <tspan x="4928" y="954">- btn_Speichern_Click (sender: object ,e: EventArgs )</tspan>
  <tspan x="4928" y="966">- btnAbbrechen_Click (sender: object ,e: EventArgs )</tspan>
  <tspan x="4928" y="978">- InitializeComponent ()</tspan>
  <tspan x="4928" y="990">- Gui2_Load (sender: object ,e: EventArgs )</tspan>
  <tspan x="4928" y="1002"></tspan></text>
 <polygon points="4896,713 4428,713 4428,1128 4902,1128 4902,719 4896,713" stroke="#90c4e4" fill="none"/>
 <polyline points="4896,713 4896,719" stroke="#90c4e4" fill="none"/>
 <polyline points="4902,719 4896,719" stroke="#90c4e4" fill="none"/>
 <text fill="#000000" font-family="Arial" font-size="12"
  <tspan x="4436" y="740">▲</tspan>
  <tspan x="4436" y="752">LISTED.Plugin.GuiAlarm</tspan>
  <tspan x="4436" y="788">- timer: System.Timers.Timer</tspan>
  <tspan x="4436" y="800">- lblStatus: System.Windows.Forms.Label</tspan>
  <tspan x="4436" y="812">- label1: System.Windows.Forms.Label</tspan>
  <tspan x="4436" y="824">- dateTimePickerAlarm: System.Windows.Forms.DateTimePicker</tspan>
  <tspan x="4436" y="836">- components: System.ComponentModel.IContainer= null</tspan>
  <tspan x="4436" y="848">- button2: System.Windows.Forms.Button</tspan>
  <tspan x="4436" y="860">- btnStopAlarm: System.Windows.Forms.Button</tspan>
  <tspan x="4436" y="872">- btnStartAlarm: System.Windows.Forms.Button</tspan>
  <tspan x="4436" y="896">+ GuiAlarm ()</tspan>
  <tspan x="4436" y="908"># Dispose (disposing: bool )</tspan>
  <tspan x="4436" y="920">- btnStopAlarm_Click (sender: object ,e: EventArgs )</tspan>
  <tspan x="4436" y="932">- btnStartAlarm_Click (sender: object ,e: EventArgs )</tspan>
  <tspan x="4436" y="944">- UpdateDataLabel (lbl: Label ,value: string )</tspan>
  <tspan x="4436" y="956">- Timer_Elapsed (sender: object ,e: ElapsedEventArgs )</tspan>
  <tspan x="4436" y="968">- InitializeComponent ()</tspan>
  <tspan x="4436" y="980">- GuiAlarm_Load (sender: object ,e: EventArgs )</tspan>
  <tspan x="4436" y="992"></tspan></text>
 <polygon points="4404,827 3823,827 3823,1014 4410,1014 4410,833 4404,827" stroke="#90c4e4" fill="none"/>
 <polyline points="4404,827 4404,833" stroke="#90c4e4" fill="none"/>
 <polyline points="4410,833 4404,833" stroke="#90c4e4" fill="none"/>
 <text fill="#000000" font-family="Arial" font-size="12"
  <tspan x="3831" y="854">▲</tspan>
  <tspan x="3831" y="866">LISTED.Plugin.IoDatastorage</tspan>
  <tspan x="3831" y="902">- string_Data: string= &quot;&quot;</tspan>
  <tspan x="3831" y="926">+ string_IoDataStorage_ReadDataFromStorage (string_Path: string )</tspan>
  <tspan x="3831" y="938">+ int_IoDatastorage_WriteDataToStorage (string_Data: string ,string_Path: string )</tspan>
  <tspan x="3831" y="950">+ IoDatastorage ()</tspan>
  <tspan x="3831" y="962"></tspan></text>
 <polygon points="3798,713 3074,713 3074,1128 3804,1128 3804,719 3798,713" stroke="#90c4e4" fill="none"/>
 <polyline points="3798,713 3798,719" stroke="#90c4e4" fill="none"/>
 <polyline points="3804,719 3798,719" stroke="#90c4e4" fill="none"/>
 <text fill="#000000" font-family="Arial" font-size="12"
  <tspan x="3082" y="740">▲</tspan>
  <tspan x="3082" y="752">LISTED.Plugin.Storage</tspan>
  <tspan x="3082" y="788">+ string_WriteIntoDatabase: string</tspan>
  <tspan x="3082" y="800">+ s_PathTextfile: string= MyPath</tspan>
  <tspan x="3082" y="812">+ s_PathExcelfile: string</tspan>
  <tspan x="3082" y="824">+ s_PathDatabase: string</tspan>
  <tspan x="3082" y="836">+ myLocalName: string</tspan>
  <tspan x="3082" y="848">+ myLocalDescription: string</tspan>
  <tspan x="3082" y="860">+ myLocalDate: DateTime</tspan>
  <tspan x="3082" y="872">+ myLocalAlarm: bool</tspan>
  <tspan x="3082" y="884">+ myGui1: Gui1= new Gui1()</tspan>
  <tspan x="3082" y="896">+ listNum: int= 1</tspan>
  <tspan x="3082" y="908">+ MyPath: string= Environment.GetFolderPath(Environment.SpecialFolder.Desktop)+&quot;\DataStorage.txt&quot;</tspan>
  <tspan x="3082" y="920">+ Count: int</tspan>
  <tspan x="3082" y="932">+ ll_Tabs: LinkedList&lt;int&gt;= new LinkedList&lt;int&gt;(ai_TabsList)</tspan>
  <tspan x="3082" y="944">- ai_TabsList: int[]= {0,1,2,3,4,5,6,7,8,9}</tspan>
  <tspan x="3082" y="968">+ CreateFileStorage ()</tspan>
  <tspan x="3082" y="980">+ Storage ()</tspan>
  <tspan x="3082" y="992"></tspan></text>
 <polygon points="3050,855 2828,855 2828,985 3056,985 3056,861 3050,855" stroke="#90c4e4" fill="none"/>
 <polyline points="3050,855 3050,861" stroke="#90c4e4" fill="none"/>
 <polyline points="3056,861 3050,861" stroke="#90c4e4" fill="none"/>
 <text fill="#000000" font-family="Arial" font-size="12"
  <tspan x="2836" y="882">▲</tspan>
  <tspan x="2836" y="894">LISTED.Plugin.Tab</tspan>
  <tspan x="2836" y="942">+ Tab (button_ForTab: Button )</tspan>
  <tspan x="2836" y="954"></tspan></text>
 <polygon points="2804,789 2058,789 2058,1052 2810,1052 2810,795 2804,789" stroke="#90c4e4" fill="none"/>
 <polyline points="2804,789 2804,795" stroke="#90c4e4" fill="none"/>
 <polyline points="2810,795 2804,795" stroke="#90c4e4" fill="none"/>
 <text fill="#000000" font-family="Arial" font-size="12"
  <tspan x="2066" y="816">▲</tspan>
  <tspan x="2066" y="828">LISTED.Plugin.TabsControl</tspan>
  <tspan x="2066" y="864">+ array_TabList: String[,]= new String[3,10]</tspan>
  <tspan x="2066" y="888">+ v_TabControl_ManageTab (struct_ForTab: TabsControl )</tspan>
  <tspan x="2066" y="900">+ v_TabControl_ManageArrayOrder (int_TabIndex: int )</tspan>
  <tspan x="2066" y="912">+ v_TabControl_DeleteTabFromArray (int_TabIndex: int )</tspan>
  <tspan x="2066" y="924">+ v_TabControl_CreateNewTab (TabToCreate: TabPage ,TabName: string )</tspan>
  <tspan x="2066" y="936">+ i_TabControl_SetTabToTabArray (struct_ForTab: TabsControl ,int_TabIndexNew: int ,int_TabIndexOld: int )</tspan>
  <tspan x="2066" y="948">+ i_TabControl_ReturnTabIndex (struct_ForTab: TabsControl )</tspan>
  <tspan x="2066" y="960">+ TabsControl ()</tspan>
  <tspan x="2066" y="972"></tspan></text>
 <polygon points="2034,798 1709,798 1709,1042 2040,1042 2040,804 2034,798" stroke="#90c4e4" fill="none"/>
 <polyline points="2034,798 2034,804" stroke="#90c4e4" fill="none"/>
 <polyline points="2040,804 2034,804" stroke="#90c4e4" fill="none"/>
 <text fill="#000000" font-family="Arial" font-size="12"
  <tspan x="1717" y="825">▲</tspan>
  <tspan x="1717" y="837">LISTED.Plugin.UserLogin</tspan>
  <tspan x="1717" y="873">+ s_UserId: string</tspan>
  <tspan x="1717" y="885">+ s_UserLogin: string= &quot;Model\UserLogin.txt&quot;</tspan>
  <tspan x="1717" y="909">+ SetUserActiveById ()</tspan>
  <tspan x="1717" y="921">+ GetUserByWindowsId ()</tspan>
  <tspan x="1717" y="933">+ DeleteUserById ()</tspan>
  <tspan x="1717" y="945">+ ChangeUserDataById ()</tspan>
  <tspan x="1717" y="957">+ UserLogin ()</tspan>
  <tspan x="1717" y="969"></tspan></text>
 <polygon points="118,888 33,888 29,892 29,953 114,953 118,949 118,888" stroke="#90c4e4" fill="none"/>
 <polyline points="114,892 29,892" stroke="#90c4e4" fill="none"/>
 <polyline points="114,892 114,953" stroke="#90c4e4" fill="none"/>
 <polyline points="114,892 118,888" stroke="#90c4e4" fill="none"/>
 <text fill="#000000" font-family="Arial" font-size="12">
  <tspan x="37" y="903">▲</tspan>
  <tspan x="37" y="915">Properties</tspan>
  <tspan x="37" y="927"></tspan></text>
 <polygon points="1654,4 1541,4 1537,8 1537,69 1650,69 1654,65 1654,4" stroke="#90c4e4" fill="none"/>
 <polyline points="1650,8 1537,8" stroke="#90c4e4" fill="none"/>
 <polyline points="1650,8 1650,69" stroke="#90c4e4" fill="none"/>
 <polyline points="1650,8 1654,4" stroke="#90c4e4" fill="none"/>
 <text fill="#000000" font-family="Arial" font-size="12"
  <tspan x="1545" y="31">System.Object</tspan>
  <tspan x="1545" y="43">△</tspan></text>
 <polyline points="1361,855 1355,803 1350,739 1347,665 1347,585 1352,500 1363,412 1382,324 1409,238 1446,156 1494,81 1497,77 1500,74 1504,71 1507,68 1511,65 1515,62 1519,60 1523,57 1528,55 1532,53" stroke="#4e8cb9" fill="none"/>
 <polygon points="1531,52 1536,51 1532,55 1531,52" stroke="#4e8cb9" fill="#4e8cb9"/>
 <polyline points="1147,855 1136,801 1124,735 1114,659 1109,577 1108,489 1115,401 1131,313 1158,228 1198,150 1252,81 1267,71 1287,62 1312,55 1341,49 1373,45 1406,42 1439,39 1472,38 1503,37 1531,37" stroke="#4e8cb9" fill="none"/>
 <polygon points="1531,35 1536,37 1531,38 1531,35" stroke="#4e8cb9" fill="#4e8cb9"/>
 <polyline points="839,827 838,768 840,700 846,623 856,542 872,458 895,373 925,291 965,213 1016,142 1077,81 1094,73 1125,66 1165,60 1214,55 1268,51 1324,47 1382,44 1437,42 1487,40 1531,39" stroke="#4e8cb9" fill="none"/>
 <polygon points="1531,37 1536,39 1532,41 1531,37" stroke="#4e8cb9" fill="#4e8cb9"/>
 <polyline points="364,817 364,757 367,688 373,612 385,531 402,448 426,365 458,284 499,209 550,140 612,81 641,73 701,66 786,60 890,55 1006,50 1126,46 1246,43 1357,41 1455,39 1531,38" stroke="#4e8cb9" fill="none"/>
 <polygon points="1531,37 1536,38 1531,40 1531,37" stroke="#4e8cb9" fill="#4e8cb9"/>
 <polyline points="1595,855 1595,795 1595,720 1595,636 1595,545 1595,451 1595,358 1595,270 1595,191 1595,124 1595,74" stroke="#4e8cb9" fill="none"/>
 <polygon points="1593,74 1595,69 1597,74 1593,74" stroke="#4e8cb9" fill="#4e8cb9"/>
 <polygon points="5239,4 5017,4 5013,8 5013,69 5235,69 5239,65 5239,4" stroke="#90c4e4" fill="none"/>
 <polyline points="5235,8 5013,8" stroke="#90c4e4" fill="none"/>
 <polyline points="5235,8 5235,69" stroke="#90c4e4" fill="none"/>
 <polyline points="5235,8 5239,4" stroke="#90c4e4" fill="none"/>
 <text fill="#000000" font-family="Arial" font-size="12">
  <tspan x="5021" y="19">△</tspan>
  <tspan x="5021" y="31">System.Windows.Forms.Form</tspan>
  <tspan x="5021" y="43">△</tspan></text>
 <polyline points="5371,105 5368,103 5365,100 5362,98 5359,95 5356,93 5353,91 5350,88 5347,86 5344,83 5341,81 5336,77 5329,74 5321,71 5312,68 5302,65 5291,62 5280,59 5268,57 5256,54 5244,52" stroke="#4e8cb9" fill="none"/>
 <polygon points="5244,54 5239,51 5244,51 5244,54" stroke="#4e8cb9" fill="#4e8cb9"/>
 <polyline points="5126,675 5126,609 5126,541 5126,471 5126,401 5126,333 5126,268 5126,208 5126,155 5126,110 5126,74" stroke="#4e8cb9" fill="none"/>
 <polygon points="5124,74 5126,69 5128,74 5124,74" stroke="#4e8cb9" fill="#4e8cb9"/>
 <polyline points="4668,713 4674,653 4682,589 4694,522 4710,454 4730,385 4754,318 4784,252 4820,190 4862,133 4911,81 4916,77 4923,73 4931,69 4940,66 4949,63 4960,60 4971,57 4983,55 4995,53 5008,51" stroke="#4e8cb9" fill="none"/>
 <polygon points="5008,49 5013,50 5008,52 5008,49" stroke="#4e8cb9" fill="#4e8cb9"/>
 <polyline points="4114,827 4110,767 4103,697 4091,620 4074,537 4052,453 4022,368 3984,285 3937,209 3880,140 3813,81 3751,72 3606,64 3396,58 3138,52 2853,48 2559,44 2274,42 2016,40 1805,39 1659,38" stroke="#4e8cb9" fill="none"/>
 <polygon points="1659,40 1654,38 1659,36 1659,40" stroke="#4e8cb9" fill="#4e8cb9"/>
 <polyline points="3410,713 3396,651 3379,584 3358,516 3332,445 3302,376 3266,307 3225,243 3178,182 3125,128 3065,81 3019,70 2923,61 2787,54 2624,49 2443,45 2256,42 2073,40 1905,39 1764,38 1659,38" stroke="#4e8cb9" fill="none"/>
 <polygon points="1659,39 1654,37 1659,36 1659,39" stroke="#4e8cb9" fill="#4e8cb9"/>
 <polyline points="2956,855 2966,800 2976,733 2983,656 2986,572 2984,484 2973,394 2953,307 2922,223 2878,147 2819,81 2782,70 2705,62 2596,55 2463,49 2315,45 2161,42 2010,40 1870,39 1750,38 1659,38" stroke="#4e8cb9" fill="none"/>
 <polygon points="1659,39 1654,38 1659,36 1659,39" stroke="#4e8cb9" fill="#4e8cb9"/>
 <polyline points="2415,789 2403,727 2386,658 2365,584 2339,506 2307,426 2270,348 2226,272 2174,201 2116,136 2049,81 2034,75 2008,69 1973,63 1932,59 1887,54 1838,50 1789,47 1742,44 1698,42 1659,40" stroke="#4e8cb9" fill="none"/>
 <polygon points="1659,42 1654,40 1659,38 1659,42" stroke="#4e8cb9" fill="#4e8cb9"/>
 <polyline points="1881,798 1881,741 1880,675 1875,604 1867,529 1854,451 1836,372 1812,294 1781,218 1743,147 1696,81 1693,77 1690,74 1686,71 1683,68 1679,65 1675,63 1671,60 1667,58 1662,56 1658,54" stroke="#4e8cb9" fill="none"/>
 <polygon points="1657,55 1654,52 1659,52 1657,55" stroke="#4e8cb9" fill="#4e8cb9"/>
 <polyline points="70,888 65,835 59,762 53,674 48,576 47,475 49,374 57,279 71,195 93,127 123,81 161,74 253,67 386,61 549,56 732,52 922,48 1108,44 1280,42 1424,40 1531,38" stroke="#4e8cb9" fill="none"/>
 <polygon points="1531,36 1536,38 1531,40 1531,36" stroke="#4e8cb9" fill="#4e8cb9"/>
</svg>
