<?xml version="1.0"?>
<svg width="688" height="164" xmlns="http://www.w3.org/2000/svg" version="1.1">
 <polygon points="4,160 4,4 684,4 684,160 4,160" stroke="#fffffe00" fill="none"/>
 <polygon points="490,152 495,152 508,152 528,152 551,152 577,152 603,152 626,152 646,152 659,152 664,152 666,152 668,151 669,151 671,150 672,148 674,147 675,145 675,144 676,142 676,140 676,138 676,133 676,126 676,117 676,108 676,99 676,90 676,83 676,78 676,76 676,74 675,72 675,71 674,69 672,68 671,66 669,65 668,65 666,64 664,64 659,64 646,64 626,64 603,64 577,64 551,64 528,64 508,64 495,64 490,64 488,64 486,65 485,65 483,66 482,68 480,69 479,71 479,72 478,74 478,76 478,78 478,83 478,90 478,99 478,108 478,117 478,126 478,133 478,138 478,140 478,142 479,144 479,145 480,147 482,148 483,150 485,151 486,151 488,152 490,152" stroke="#afd870" fill="none"/>
 <text x="556" y="79" fill="#afd870" font-family="Arial" font-size="12">Plugin</text>
 <polygon points="668,98 489,98 486,101 486,124 665,124 668,121 668,98" stroke="#90c4e4" fill="none"/>
 <polyline points="665,101 486,101" stroke="#90c4e4" fill="none"/>
 <polyline points="665,101 665,124" stroke="#90c4e4" fill="none"/>
 <polyline points="665,101 668,98" stroke="#90c4e4" fill="none"/>
 <text x="494" y="113" fill="#000000" font-family="Arial" font-size="12">Plugin/IoDatastorage.cs</text>
 <polygon points="239,152 243,152 255,152 272,152 293,152 316,152 338,152 359,152 376,152 388,152 392,152 394,152 396,151 397,151 399,150 400,148 402,147 403,145 403,144 404,142 404,140 404,138 404,133 404,126 404,117 404,108 404,99 404,90 404,83 404,78 404,76 404,74 403,72 403,71 402,69 400,68 399,66 397,65 396,65 394,64 392,64 388,64 376,64 359,64 338,64 316,64 293,64 272,64 255,64 243,64 239,64 237,64 235,65 234,65 232,66 231,68 229,69 228,71 228,72 227,74 227,76 227,78 227,83 227,90 227,99 227,108 227,117 227,126 227,133 227,138 227,140 227,142 228,144 228,145 229,147 231,148 232,150 234,151 235,151 237,152 239,152" stroke="#afd870" fill="none"/>
 <text x="288" y="79" fill="#afd870" font-family="Arial" font-size="12">Adapter</text>
 <polygon points="396,98 238,98 235,101 235,124 393,124 396,121 396,98" stroke="#90c4e4" fill="none"/>
 <polyline points="393,101 235,101" stroke="#90c4e4" fill="none"/>
 <polyline points="393,101 393,124" stroke="#90c4e4" fill="none"/>
 <polyline points="393,101 396,98" stroke="#90c4e4" fill="none"/>
 <text x="244" y="113" fill="#000000" font-family="Arial" font-size="12">Adapter/IoHandler.cs</text>
 <polygon points="24,152 28,152 37,152 51,152 68,152 87,152 106,152 123,152 137,152 146,152 150,152 152,152 154,151 155,151 157,150 158,148 160,147 161,145 161,144 162,142 162,140 162,138 162,133 162,126 162,117 162,108 162,99 162,90 162,83 162,78 162,76 162,74 161,72 161,71 160,69 158,68 157,66 155,65 154,65 152,64 150,64 146,64 137,64 123,64 106,64 87,64 68,64 51,64 37,64 28,64 24,64 22,64 20,65 19,65 17,66 16,68 14,69 13,71 13,72 12,74 12,76 12,78 12,83 12,90 12,99 12,108 12,117 12,126 12,133 12,138 12,140 12,142 13,144 13,145 14,147 16,148 17,150 19,151 20,151 22,152 24,152" stroke="#afd870" fill="none"/>
 <text x="71" y="79" fill="#afd870" font-family="Arial" font-size="12">Kern</text>
 <polygon points="154,98 23,98 20,101 20,124 151,124 154,121 154,98" stroke="#90c4e4" fill="none"/>
 <polyline points="151,101 20,101" stroke="#90c4e4" fill="none"/>
 <polyline points="151,101 151,124" stroke="#90c4e4" fill="none"/>
 <polyline points="151,101 154,98" stroke="#90c4e4" fill="none"/>
 <text x="28" y="113" fill="#000000" font-family="Arial" font-size="12">Kern/Program.cs</text>
 <polygon points="55,56 57,56 62,56 69,56 78,56 88,56 97,56 106,56 113,56 118,56 120,56 122,56 124,55 125,55 127,54 128,52 130,51 131,49 131,48 132,46 132,44 132,43 132,42 132,40 132,37 132,34 132,31 132,28 132,26 132,25 132,24 132,22 131,20 131,19 130,17 128,16 127,14 125,13 124,13 122,12 120,12 118,12 113,12 106,12 97,12 88,12 78,12 69,12 62,12 57,12 55,12 53,12 51,13 50,13 48,14 47,16 45,17 44,19 44,20 43,22 43,24 43,25 43,26 43,28 43,31 43,34 43,37 43,40 43,42 43,43 43,44 43,46 44,48 44,49 45,51 47,52 48,54 50,55 51,55 53,56 55,56" stroke="#afd870" fill="none"/>
 <text x="51" y="27" fill="#afd870" font-family="Arial" font-size="12">Properties</text>
 <polyline points="396,111 404,111 413,111 421,111 429,111 438,111 447,111 455,111 463,111 472,111 480,111" stroke="#4e8cb9" fill="none"/>
 <text x="432" y="104" fill="#000000" font-family="Arial" font-size="12">10</text>
 <polygon points="481,109 486,111 481,113 481,109" stroke="#4e8cb9" fill="#4e8cb9"/>
 <polyline points="154,111 161,111 169,111 176,111 184,111 191,111 199,111 206,111 214,111 221,111 229,111" stroke="#4e8cb9" fill="none"/>
 <text x="191" y="104" fill="#000000" font-family="Arial" font-size="12">2</text>
 <polygon points="230,109 235,111 230,113 230,109" stroke="#4e8cb9" fill="#4e8cb9"/>
</svg>
