<?xml version="1.0"?>
<svg width="7814" height="4521" xmlns="http://www.w3.org/2000/svg" version="1.1">
 <polygon points="4,4517 4,4 7810,4 7810,4517 4,4517" stroke="#fffffe00" fill="none"/>
 <polygon points="24,4509 241,4509 832,4509 1701,4509 2758,4509 3907,4509 5056,4509 6113,4509 6982,4509 7573,4509 7790,4509 7792,4509 7794,4508 7795,4508 7797,4507 7798,4505 7800,4504 7801,4502 7801,4501 7802,4499 7802,4497 7802,4445 7802,4303 7802,4093 7802,3839 7802,3563 7802,3286 7802,3032 7802,2822 7802,2680 7802,2628 7802,2626 7801,2624 7801,2623 7800,2621 7798,2620 7797,2618 7795,2617 7794,2617 7792,2616 7790,2616 7573,2616 6982,2616 6113,2616 5056,2616 3907,2616 2758,2616 1701,2616 832,2616 241,2616 24,2616 22,2616 20,2617 19,2617 17,2618 16,2620 14,2621 13,2623 13,2624 12,2626 12,2628 12,2680 12,2822 12,3032 12,3286 12,3563 12,3839 12,4093 12,4303 12,4445 12,4497 12,4499 13,4501 13,4502 14,4504 16,4505 17,4507 19,4508 20,4508 22,4509 24,4509" stroke="#afd870" fill="none"/>
 <text fill="#afd870" font-family="Arial" font-size="12">
  <tspan x="3843" y="4459">△</tspan>
  <tspan x="3843" y="4471">Directory Structure</tspan>
  <tspan x="3843" y="4483"></tspan></text>
 <polygon points="32,4436 249,4436 838,4436 1706,4436 2760,4436 3907,4436 5054,4436 6108,4436 6976,4436 7565,4436 7782,4436 7784,4436 7786,4435 7787,4435 7789,4434 7790,4432 7792,4431 7793,4429 7793,4428 7794,4426 7794,4424 7794,4374 7794,4238 7794,4038 7794,3795 7794,3530 7794,3265 7794,3022 7794,2822 7794,2686 7794,2636 7794,2634 7793,2632 7793,2631 7792,2629 7790,2628 7789,2626 7787,2625 7786,2625 7784,2624 7782,2624 7565,2624 6976,2624 6108,2624 5054,2624 3907,2624 2760,2624 1706,2624 838,2624 249,2624 32,2624 30,2624 28,2625 27,2625 25,2626 24,2628 22,2629 21,2631 21,2632 20,2634 20,2636 20,2686 20,2822 20,3022 20,3265 20,3530 20,3795 20,4038 20,4238 20,4374 20,4424 20,4426 21,4428 21,4429 22,4431 24,4432 25,4434 27,4435 28,4435 30,4436 32,4436" stroke="#fcad56" fill="none"/>
 <text fill="#fcad56" font-family="Arial" font-size="12">
  <tspan x="3880" y="4386">▲</tspan>
  <tspan x="3880" y="4398">LISTED</tspan>
  <tspan x="3880" y="4410"></tspan></text>
 <polygon points="1792,3669 1850,3669 2009,3669 2242,3669 2525,3669 2833,3669 3141,3669 3424,3669 3657,3669 3816,3669 3874,3669 3876,3669 3878,3668 3879,3668 3881,3667 3882,3665 3884,3664 3885,3662 3885,3661 3886,3659 3886,3657 3886,3648 3886,3624 3886,3588 3886,3544 3886,3497 3886,3450 3886,3406 3886,3370 3886,3346 3886,3337 3886,3335 3885,3333 3885,3332 3884,3330 3882,3329 3881,3327 3879,3326 3878,3326 3876,3325 3874,3325 3816,3325 3657,3325 3424,3325 3141,3325 2833,3325 2525,3325 2242,3325 2009,3325 1850,3325 1792,3325 1790,3325 1788,3326 1787,3326 1785,3327 1784,3329 1782,3330 1781,3332 1781,3333 1780,3335 1780,3337 1780,3346 1780,3370 1780,3406 1780,3450 1780,3497 1780,3544 1780,3588 1780,3624 1780,3648 1780,3657 1780,3659 1781,3661 1781,3662 1782,3664 1784,3665 1785,3667 1787,3668 1788,3668 1790,3669 1792,3669" stroke="#569f38" fill="none"/>
 <text fill="#569f38" font-family="Arial" font-size="12">
  <tspan x="2817" y="3619">▲</tspan>
  <tspan x="2817" y="3631">Kern</tspan>
  <tspan x="2817" y="3643"></tspan></text>
 <polygon points="3872,3400 3673,3400 3673,3530 3878,3530 3878,3406 3872,3400" stroke="#90c4e4" fill="none"/>
 <polyline points="3872,3400 3872,3406" stroke="#90c4e4" fill="none"/>
 <polyline points="3878,3406 3872,3406" stroke="#90c4e4" fill="none"/>
 <text fill="#000000" font-family="Arial" font-size="12"
  <tspan x="3681" y="3427">▲</tspan>
  <tspan x="3681" y="3439">Test_LISTED.Controller.Init</tspan>
  <tspan x="3681" y="3499"></tspan></text>
 <polygon points="3648,3400 3334,3400 3334,3530 3654,3530 3654,3406 3648,3400" stroke="#90c4e4" fill="none"/>
 <polyline points="3648,3400 3648,3406" stroke="#90c4e4" fill="none"/>
 <polyline points="3654,3406 3648,3406" stroke="#90c4e4" fill="none"/>
 <text fill="#000000" font-family="Arial" font-size="12"
  <tspan x="3342" y="3427">▲</tspan>
  <tspan x="3342" y="3439">Test_LISTED.Presentation_Model.ListView</tspan>
  <tspan x="3342" y="3499"></tspan></text>
 <polygon points="3310,3400 3031,3400 3031,3530 3316,3530 3316,3406 3310,3400" stroke="#90c4e4" fill="none"/>
 <polyline points="3310,3400 3310,3406" stroke="#90c4e4" fill="none"/>
 <polyline points="3316,3406 3310,3406" stroke="#90c4e4" fill="none"/>
 <text fill="#000000" font-family="Arial" font-size="12"
  <tspan x="3039" y="3427">▲</tspan>
  <tspan x="3039" y="3439">Test_LISTED.Presentation_Model.Tab</tspan>
  <tspan x="3039" y="3487">+ Tab (button_ForTab: Button )</tspan>
  <tspan x="3039" y="3499"></tspan></text>
 <polygon points="3006,3333 2268,3333 2268,3596 3012,3596 3012,3339 3006,3333" stroke="#90c4e4" fill="none"/>
 <polyline points="3006,3333 3006,3339" stroke="#90c4e4" fill="none"/>
 <polyline points="3012,3339 3006,3339" stroke="#90c4e4" fill="none"/>
 <text fill="#000000" font-family="Arial" font-size="12"
  <tspan x="2276" y="3360">▲</tspan>
  <tspan x="2276" y="3372">Test_LISTED.Presentation_Model.TabControl</tspan>
  <tspan x="2276" y="3408">+ array_TabList: String[,]= new String[3,10]</tspan>
  <tspan x="2276" y="3432">+ v_TabControl_ManageTab (struct_ForTab: TabControl )</tspan>
  <tspan x="2276" y="3444">+ v_TabControl_ManageArrayOrder (int_TabIndex: int )</tspan>
  <tspan x="2276" y="3456">+ v_TabControl_DeleteTabFromArray (int_TabIndex: int )</tspan>
  <tspan x="2276" y="3468">+ v_TabControl_CreateNewTab (struct_ForTab: TabControl )</tspan>
  <tspan x="2276" y="3480">+ i_TabControl_SetTabToTabArray (struct_ForTab: TabControl ,int_TabIndexNew: int ,int_TabIndexOld: int )</tspan>
  <tspan x="2276" y="3492">+ i_TabControl_ReturnTabIndex (struct_ForTab: TabControl )</tspan>
  <tspan x="2276" y="3504">+ TabControl ()</tspan>
  <tspan x="2276" y="3516"></tspan></text>
 <polygon points="2244,3400 2073,3400 2073,3530 2250,3530 2250,3406 2244,3400" stroke="#90c4e4" fill="none"/>
 <polyline points="2244,3400 2244,3406" stroke="#90c4e4" fill="none"/>
 <polyline points="2250,3406 2244,3406" stroke="#90c4e4" fill="none"/>
 <text fill="#000000" font-family="Arial" font-size="12"
  <tspan x="2081" y="3427">▲</tspan>
  <tspan x="2081" y="3439">Test_LISTED.Program</tspan>
  <tspan x="2081" y="3487">- Main ()</tspan>
  <tspan x="2081" y="3499"></tspan></text>
 <polygon points="2048,3390 1788,3390 1788,3539 2054,3539 2054,3396 2048,3390" stroke="#90c4e4" fill="none"/>
 <polyline points="2048,3390 2048,3396" stroke="#90c4e4" fill="none"/>
 <polyline points="2054,3396 2048,3396" stroke="#90c4e4" fill="none"/>
 <text fill="#000000" font-family="Arial" font-size="12"
  <tspan x="1796" y="3417">▲</tspan>
  <tspan x="1796" y="3429">Test_LISTED.Testing</tspan>
  <tspan x="1796" y="3465">+ variableTest: int= 0</tspan>
  <tspan x="1796" y="3489">+ TestForTesting (a: int ,b: int ,c: int )</tspan>
  <tspan x="1796" y="3501"></tspan></text>
 <polygon points="3906,4363 4014,4363 4308,4363 4741,4363 5268,4363 5840,4363 6412,4363 6939,4363 7372,4363 7666,4363 7774,4363 7776,4363 7778,4362 7779,4362 7781,4361 7782,4359 7784,4358 7785,4356 7785,4355 7786,4353 7786,4351 7786,4303 7786,4173 7786,3982 7786,3750 7786,3498 7786,3245 7786,3013 7786,2822 7786,2692 7786,2644 7786,2642 7785,2640 7785,2639 7784,2637 7782,2636 7781,2634 7779,2633 7778,2633 7776,2632 7774,2632 7666,2632 7372,2632 6939,2632 6412,2632 5840,2632 5268,2632 4741,2632 4308,2632 4014,2632 3906,2632 3904,2632 3902,2633 3901,2633 3899,2634 3898,2636 3896,2637 3895,2639 3895,2640 3894,2642 3894,2644 3894,2692 3894,2822 3894,3013 3894,3245 3894,3498 3894,3750 3894,3982 3894,4173 3894,4303 3894,4351 3894,4353 3895,4355 3895,4356 3896,4358 3898,4359 3899,4361 3901,4362 3902,4362 3904,4363 3906,4363" stroke="#569f38" fill="none"/>
 <text fill="#569f38" font-family="Arial" font-size="12">
  <tspan x="5819" y="4313">▲</tspan>
  <tspan x="5819" y="4325">Plugin</tspan>
  <tspan x="5819" y="4337"></tspan></text>
 <polygon points="7772,2640 6902,2640 6902,4290 7778,4290 7778,2646 7772,2640" stroke="#90c4e4" fill="none"/>
 <polyline points="7772,2640 7772,2646" stroke="#90c4e4" fill="none"/>
 <polyline points="7778,2646 7772,2646" stroke="#90c4e4" fill="none"/>
 <text fill="#000000" font-family="Arial" font-size="12"
  <tspan x="6910" y="2667">▲</tspan>
  <tspan x="6910" y="2679">Test_LISTED.Gui1</tspan>
  <tspan x="6910" y="2715">- userLabel: System.Windows.Forms.Label</tspan>
  <tspan x="6910" y="2727">- txtboxUpevent2: System.Windows.Forms.RichTextBox</tspan>
  <tspan x="6910" y="2739">- txtboxUpevent1: System.Windows.Forms.RichTextBox</tspan>
  <tspan x="6910" y="2751">- txtboxHlights2: System.Windows.Forms.RichTextBox</tspan>
  <tspan x="6910" y="2763">- txtboxHlights1: System.Windows.Forms.RichTextBox</tspan>
  <tspan x="6910" y="2775">- tabPageMain: System.Windows.Forms.TabPage</tspan>
  <tspan x="6910" y="2787">- tabControlMain: System.Windows.Forms.TabControl</tspan>
  <tspan x="6910" y="2799">- richTextBox9: System.Windows.Forms.RichTextBox</tspan>
  <tspan x="6910" y="2811">- richTextBox8: System.Windows.Forms.RichTextBox</tspan>
  <tspan x="6910" y="2823">- richTextBox7: System.Windows.Forms.RichTextBox</tspan>
  <tspan x="6910" y="2835">- richTextBox6: System.Windows.Forms.RichTextBox</tspan>
  <tspan x="6910" y="2847">- richTextBox5: System.Windows.Forms.RichTextBox</tspan>
  <tspan x="6910" y="2859">- richTextBox4: System.Windows.Forms.RichTextBox</tspan>
  <tspan x="6910" y="2871">- richTextBox3: System.Windows.Forms.RichTextBox</tspan>
  <tspan x="6910" y="2883">- richTextBox2: System.Windows.Forms.RichTextBox</tspan>
  <tspan x="6910" y="2895">- richTextBox10: System.Windows.Forms.RichTextBox</tspan>
  <tspan x="6910" y="2907">- richTextBox1: System.Windows.Forms.RichTextBox</tspan>
  <tspan x="6910" y="2919">- pnlNav: System.Windows.Forms.Panel</tspan>
  <tspan x="6910" y="2931">- pictureBox3: System.Windows.Forms.PictureBox</tspan>
  <tspan x="6910" y="2943">- pictureBox2: System.Windows.Forms.PictureBox</tspan>
  <tspan x="6910" y="2955">- pictureBox1: System.Windows.Forms.PictureBox</tspan>
  <tspan x="6910" y="2967">- panelLeft: System.Windows.Forms.Panel</tspan>
  <tspan x="6910" y="2979">- panel3: System.Windows.Forms.Panel</tspan>
  <tspan x="6910" y="2991">- panel2: System.Windows.Forms.Panel</tspan>
  <tspan x="6910" y="3003">- panel1: System.Windows.Forms.Panel</tspan>
  <tspan x="6910" y="3015">- logo: System.Windows.Forms.PictureBox</tspan>
  <tspan x="6910" y="3027">- lblHome: System.Windows.Forms.Label</tspan>
  <tspan x="6910" y="3039">- lblEvents: System.Windows.Forms.Label</tspan>
  <tspan x="6910" y="3051">- label1: System.Windows.Forms.Label</tspan>
  <tspan x="6910" y="3063">- components: System.ComponentModel.IContainer= null</tspan>
  <tspan x="6910" y="3075">- checkBox5: System.Windows.Forms.CheckBox</tspan>
  <tspan x="6910" y="3087">- checkBox4: System.Windows.Forms.CheckBox</tspan>
  <tspan x="6910" y="3099">- checkBox3: System.Windows.Forms.CheckBox</tspan>
  <tspan x="6910" y="3111">- checkBox2: System.Windows.Forms.CheckBox</tspan>
  <tspan x="6910" y="3123">- checkBox1: System.Windows.Forms.CheckBox</tspan>
  <tspan x="6910" y="3135">- button1: System.Windows.Forms.Button</tspan>
  <tspan x="6910" y="3147">- btnX: System.Windows.Forms.Button</tspan>
  <tspan x="6910" y="3159">- btnTodo: System.Windows.Forms.Button</tspan>
  <tspan x="6910" y="3171">- btnLogOut: System.Windows.Forms.Button</tspan>
  <tspan x="6910" y="3183">- btnHome: System.Windows.Forms.Button</tspan>
  <tspan x="6910" y="3195">- btnCal: System.Windows.Forms.Button</tspan>
  <tspan x="6910" y="3207">- btnAlarm: System.Windows.Forms.Button</tspan>
  <tspan x="6910" y="3231">- CreateRoundRectRgn (nLeftRect: int ,nTopRect: int ,nRightRect: int ,nBottomRect: int ,nWidthEllipse: int ,nHeightEllipse: int )</tspan>
  <tspan x="6910" y="3243">+ btn_Save_Click (sender: object ,e: EventArgs )</tspan>
  <tspan x="6910" y="3255">+ Gui1 ()</tspan>
  <tspan x="6910" y="3267"># Dispose (disposing: bool )</tspan>
  <tspan x="6910" y="3279">- radioButton5_CheckedChanged (sender: object ,e: EventArgs )</tspan>
  <tspan x="6910" y="3291">- radioButton4_CheckedChanged (sender: object ,e: EventArgs )</tspan>
  <tspan x="6910" y="3303">- radioButton3_CheckedChanged (sender: object ,e: EventArgs )</tspan>
  <tspan x="6910" y="3315">- radioButton2_CheckedChanged (sender: object ,e: EventArgs )</tspan>
  <tspan x="6910" y="3327">- load_Database ()</tspan>
  <tspan x="6910" y="3339">- creatNewList ()</tspan>
  <tspan x="6910" y="3351">- checkBox5_CheckedChanged (sender: object ,e: EventArgs )</tspan>
  <tspan x="6910" y="3363">- checkBox4_CheckedChanged (sender: object ,e: EventArgs )</tspan>
  <tspan x="6910" y="3375">- checkBox3_CheckedChanged (sender: object ,e: EventArgs )</tspan>
  <tspan x="6910" y="3387">- checkBox2_CheckedChanged (sender: object ,e: EventArgs )</tspan>
  <tspan x="6910" y="3399">- checkBox1_CheckedChanged (sender: object ,e: EventArgs )</tspan>
  <tspan x="6910" y="3411">- button1_Click (sender: object ,e: EventArgs )</tspan>
  <tspan x="6910" y="3423">- btnX_Click (sender: object ,e: EventArgs )</tspan>
  <tspan x="6910" y="3435">- btnTodo_Leave (sender: object ,e: EventArgs )</tspan>
  <tspan x="6910" y="3447">- btnTodo_Click (sender: object ,e: EventArgs )</tspan>
  <tspan x="6910" y="3459">- btnLogOut_Leave (sender: object ,e: EventArgs )</tspan>
  <tspan x="6910" y="3471">- btnLogOut_Click (sender: object ,e: EventArgs )</tspan>
  <tspan x="6910" y="3483">- btnHome_Leave (sender: object ,e: EventArgs )</tspan>
  <tspan x="6910" y="3495">- btnHome_Click (sender: object ,e: EventArgs )</tspan>
  <tspan x="6910" y="3507">- btnCal_Leave (sender: object ,e: EventArgs )</tspan>
  <tspan x="6910" y="3519">- btnCal_Click (sender: object ,e: EventArgs )</tspan>
  <tspan x="6910" y="3531">- btnAlarm_Leave (sender: object ,e: EventArgs )</tspan>
  <tspan x="6910" y="3543">- btnAlarm_Click (sender: object ,e: EventArgs )</tspan>
  <tspan x="6910" y="3555">- bg_Color (btn: Button )</tspan>
  <tspan x="6910" y="3567">- WriteDateFromDatabaseToTextBoxes (arrayPartDate: ArrayList )</tspan>
  <tspan x="6910" y="3579">- WriteContentIntoTextboxes ()</tspan>
  <tspan x="6910" y="3591">- WriteContentIntoEmptyRichTextBox ()</tspan>
  <tspan x="6910" y="3603">- WriteCalendarNameFromDatabaseToTextBoxes (arrayPart: ArrayList )</tspan>
  <tspan x="6910" y="3615">- SplitDataFromStorageName (myInput: string )</tspan>
  <tspan x="6910" y="3627">- SplitDataFromStorageDate (myInput: string )</tspan>
  <tspan x="6910" y="3639">- InitializeComponent ()</tspan>
  <tspan x="6910" y="3651">- Gui1_Load (sender: object ,e: EventArgs )</tspan>
  <tspan x="6910" y="3663">- Gui1_FormClosing_1 (sender: object ,e: FormClosingEventArgs )</tspan>
  <tspan x="6910" y="3675">- FormalizeContentToString ()</tspan>
  <tspan x="6910" y="3687">- DeleteContentFromAllTextboxes ()</tspan>
  <tspan x="6910" y="3699"></tspan></text>
 <polygon points="6099,3400 5878,3400 5878,3530 6105,3530 6105,3406 6099,3400" stroke="#90c4e4" fill="none"/>
 <polyline points="6099,3400 6099,3406" stroke="#90c4e4" fill="none"/>
 <polyline points="6105,3406 6099,3406" stroke="#90c4e4" fill="none"/>
 <text fill="#000000" font-family="Arial" font-size="12"
  <tspan x="5886" y="3427">▲</tspan>
  <tspan x="5886" y="3439">Test_LISTED.Model.Calendar</tspan>
  <tspan x="5886" y="3499"></tspan></text>
 <polygon points="5854,3400 5595,3400 5595,3530 5860,3530 5860,3406 5854,3400" stroke="#90c4e4" fill="none"/>
 <polyline points="5854,3400 5854,3406" stroke="#90c4e4" fill="none"/>
 <polyline points="5860,3406 5854,3406" stroke="#90c4e4" fill="none"/>
 <text fill="#000000" font-family="Arial" font-size="12"
  <tspan x="5603" y="3427">▲</tspan>
  <tspan x="5603" y="3439">Test_LISTED.Model.DateReminder</tspan>
  <tspan x="5603" y="3499"></tspan></text>
 <polygon points="5571,3371 4990,3371 4990,3558 5577,3558 5577,3377 5571,3371" stroke="#90c4e4" fill="none"/>
 <polyline points="5571,3371 5571,3377" stroke="#90c4e4" fill="none"/>
 <polyline points="5577,3377 5571,3377" stroke="#90c4e4" fill="none"/>
 <text fill="#000000" font-family="Arial" font-size="12"
  <tspan x="4998" y="3398">▲</tspan>
  <tspan x="4998" y="3410">Test_LISTED.Model.IoDatastorage</tspan>
  <tspan x="4998" y="3446">- string_Data: string= &quot;&quot;</tspan>
  <tspan x="4998" y="3470">+ string_IoDataStorage_ReadDataFromStorage (string_Path: string )</tspan>
  <tspan x="4998" y="3482">+ int_IoDatastorage_WriteDataToStorage (string_Data: string ,string_Path: string )</tspan>
  <tspan x="4998" y="3494">+ IoDatastorage ()</tspan>
  <tspan x="4998" y="3506"></tspan></text>
 <polygon points="4966,3381 4767,3381 4767,3549 4972,3549 4972,3387 4966,3381" stroke="#90c4e4" fill="none"/>
 <polyline points="4966,3381 4966,3387" stroke="#90c4e4" fill="none"/>
 <polyline points="4972,3387 4966,3387" stroke="#90c4e4" fill="none"/>
 <text fill="#000000" font-family="Arial" font-size="12"
  <tspan x="4775" y="3408">▲</tspan>
  <tspan x="4775" y="3420">Test_LISTED.Model.Movie</tspan>
  <tspan x="4775" y="3456">+ Year: int</tspan>
  <tspan x="4775" y="3468">+ Name: string</tspan>
  <tspan x="4775" y="3504"></tspan></text>
 <polygon points="4742,3286 3902,3286 3902,3644 4748,3644 4748,3292 4742,3286" stroke="#90c4e4" fill="none"/>
 <polyline points="4742,3286 4742,3292" stroke="#90c4e4" fill="none"/>
 <polyline points="4748,3292 4742,3292" stroke="#90c4e4" fill="none"/>
 <text fill="#000000" font-family="Arial" font-size="12"
  <tspan x="3910" y="3313">▲</tspan>
  <tspan x="3910" y="3325">Test_LISTED.Model.Storage</tspan>
  <tspan x="3910" y="3361">+ string_WriteIntoDatabase: string</tspan>
  <tspan x="3910" y="3373">+ s_PathTextfile: string= &quot;C:\Users\M7_Mj\Documents\GitHub\adv-software-engineering\LISTED\Plugin\DataStorage.txt&quot;</tspan>
  <tspan x="3910" y="3385">+ s_PathExcelfile: string</tspan>
  <tspan x="3910" y="3397">+ s_PathDatabase: string</tspan>
  <tspan x="3910" y="3409">+ myLocalName: string</tspan>
  <tspan x="3910" y="3421">+ myLocalDescription: string</tspan>
  <tspan x="3910" y="3433">+ myLocalDate: DateTime</tspan>
  <tspan x="3910" y="3445">+ myLocalAlarm: bool</tspan>
  <tspan x="3910" y="3457">+ myGui1: Gui1= new Gui1()</tspan>
  <tspan x="3910" y="3469">+ Count: int</tspan>
  <tspan x="3910" y="3481">+ ll_Tabs: LinkedList&lt;int&gt;= new LinkedList&lt;int&gt;(ai_TabsList)</tspan>
  <tspan x="3910" y="3493">- ai_TabsList: int[]= {0,1,2,3,4,5,6,7,8,9}</tspan>
  <tspan x="3910" y="3529"></tspan></text>
 <polygon points="6448,3343 6123,3343 6123,3587 6454,3587 6454,3349 6448,3343" stroke="#90c4e4" fill="none"/>
 <polyline points="6448,3343 6448,3349" stroke="#90c4e4" fill="none"/>
 <polyline points="6454,3349 6448,3349" stroke="#90c4e4" fill="none"/>
 <text fill="#000000" font-family="Arial" font-size="12"
  <tspan x="6131" y="3370">▲</tspan>
  <tspan x="6131" y="3382">Test_LISTED.Model.UserLogin</tspan>
  <tspan x="6131" y="3418">+ s_UserId: string</tspan>
  <tspan x="6131" y="3430">+ s_UserLogin: string= &quot;Model\UserLogin.txt&quot;</tspan>
  <tspan x="6131" y="3454">+ SetUserActiveById ()</tspan>
  <tspan x="6131" y="3466">+ GetUserById ()</tspan>
  <tspan x="6131" y="3478">+ DeleteUserById ()</tspan>
  <tspan x="6131" y="3490">+ ChangeUserDataById ()</tspan>
  <tspan x="6131" y="3502">+ UserLogin ()</tspan>
  <tspan x="6131" y="3514"></tspan></text>
 <polygon points="6878,3219 6472,3219 6472,3710 6884,3710 6884,3225 6878,3219" stroke="#90c4e4" fill="none"/>
 <polyline points="6878,3219 6878,3225" stroke="#90c4e4" fill="none"/>
 <polyline points="6884,3225 6878,3225" stroke="#90c4e4" fill="none"/>
 <text fill="#000000" font-family="Arial" font-size="12"
  <tspan x="6480" y="3246">▲</tspan>
  <tspan x="6480" y="3258">Test_LISTED.View.Gui2</tspan>
  <tspan x="6480" y="3294">- txtName: System.Windows.Forms.TextBox</tspan>
  <tspan x="6480" y="3306">- txtBeschreibung: System.Windows.Forms.TextBox</tspan>
  <tspan x="6480" y="3318">- lblName: System.Windows.Forms.Label</tspan>
  <tspan x="6480" y="3330">- label3: System.Windows.Forms.Label</tspan>
  <tspan x="6480" y="3342">- label2: System.Windows.Forms.Label</tspan>
  <tspan x="6480" y="3354">- label1: System.Windows.Forms.Label</tspan>
  <tspan x="6480" y="3366">- dtpDatum: System.Windows.Forms.DateTimePicker</tspan>
  <tspan x="6480" y="3378">- components: System.ComponentModel.IContainer= null</tspan>
  <tspan x="6480" y="3390">- cbWecker: System.Windows.Forms.CheckBox</tspan>
  <tspan x="6480" y="3402">- btnSpeichern: System.Windows.Forms.Button</tspan>
  <tspan x="6480" y="3414">- btnAbbrechen: System.Windows.Forms.Button</tspan>
  <tspan x="6480" y="3438">+ Gui2 ()</tspan>
  <tspan x="6480" y="3450"># Dispose (disposing: bool )</tspan>
  <tspan x="6480" y="3462">- label4_Click (sender: object ,e: EventArgs )</tspan>
  <tspan x="6480" y="3474">- label3_Click (sender: object ,e: EventArgs )</tspan>
  <tspan x="6480" y="3486">- label1_Click (sender: object ,e: EventArgs )</tspan>
  <tspan x="6480" y="3498">- btn_Speichern_Click (sender: object ,e: EventArgs )</tspan>
  <tspan x="6480" y="3510">- btnAbbrechen_Click (sender: object ,e: EventArgs )</tspan>
  <tspan x="6480" y="3522">- InitializeComponent ()</tspan>
  <tspan x="6480" y="3534">- Gui2_Load (sender: object ,e: EventArgs )</tspan>
  <tspan x="6480" y="3546"></tspan></text>
 <polygon points="40,3641 74,3641 166,3641 302,3641 467,3641 646,3641 825,3641 990,3641 1126,3641 1218,3641 1252,3641 1254,3641 1256,3640 1257,3640 1259,3639 1260,3637 1262,3636 1263,3634 1263,3633 1264,3631 1264,3629 1264,3622 1264,3602 1264,3572 1264,3536 1264,3498 1264,3459 1264,3423 1264,3393 1264,3373 1264,3366 1264,3364 1263,3362 1263,3361 1262,3359 1260,3358 1259,3356 1257,3355 1256,3355 1254,3354 1252,3354 1218,3354 1126,3354 990,3354 825,3354 646,3354 467,3354 302,3354 166,3354 74,3354 40,3354 38,3354 36,3355 35,3355 33,3356 32,3358 30,3359 29,3361 29,3362 28,3364 28,3366 28,3373 28,3393 28,3423 28,3459 28,3498 28,3536 28,3572 28,3602 28,3622 28,3629 28,3631 29,3633 29,3634 30,3636 32,3637 33,3639 35,3640 36,3640 38,3641 40,3641" stroke="#569f38" fill="none"/>
 <text fill="#569f38" font-family="Arial" font-size="12">
  <tspan x="618" y="3591">▲</tspan>
  <tspan x="618" y="3603">Adapter</tspan>
  <tspan x="618" y="3615"></tspan></text>
 <polygon points="1250,3400 987,3400 987,3530 1256,3530 1256,3406 1250,3400" stroke="#90c4e4" fill="none"/>
 <polyline points="1250,3400 1250,3406" stroke="#90c4e4" fill="none"/>
 <polyline points="1256,3406 1250,3406" stroke="#90c4e4" fill="none"/>
 <text fill="#000000" font-family="Arial" font-size="12"
  <tspan x="995" y="3427">▲</tspan>
  <tspan x="995" y="3439">Test_LISTED.Controller.ControlGui1</tspan>
  <tspan x="995" y="3487">+ ControlGui1 ()</tspan>
  <tspan x="995" y="3499"></tspan></text>
 <polygon points="962,3371 522,3371 522,3558 968,3558 968,3377 962,3371" stroke="#90c4e4" fill="none"/>
 <polyline points="962,3371 962,3377" stroke="#90c4e4" fill="none"/>
 <polyline points="968,3377 962,3377" stroke="#90c4e4" fill="none"/>
 <text fill="#000000" font-family="Arial" font-size="12"
  <tspan x="530" y="3398">▲</tspan>
  <tspan x="530" y="3410">Test_LISTED.Controller.InputHandler</tspan>
  <tspan x="530" y="3446">- mydatastorage: IoDatastorage</tspan>
  <tspan x="530" y="3470">+ int_InputHandler_VerifyUserInput (string_UserInput: String )</tspan>
  <tspan x="530" y="3482">+ int_InputHandler_CheckDatabase (string_UserInput: String )</tspan>
  <tspan x="530" y="3494">+ InputHandler ()</tspan>
  <tspan x="530" y="3506"></tspan></text>
 <polygon points="498,3362 37,3362 37,3568 504,3568 504,3368 498,3362" stroke="#90c4e4" fill="none"/>
 <polyline points="498,3362 498,3368" stroke="#90c4e4" fill="none"/>
 <polyline points="504,3368 498,3368" stroke="#90c4e4" fill="none"/>
 <text fill="#000000" font-family="Arial" font-size="12"
  <tspan x="45" y="3389">▲</tspan>
  <tspan x="45" y="3401">Test_LISTED.Controller.OutputHandler</tspan>
  <tspan x="45" y="3437">- myOutputHandler: OutputHandler</tspan>
  <tspan x="45" y="3449">- myIoDatastorage: IoDatastorage</tspan>
  <tspan x="45" y="3473">+ v_OutputHandler_SplitDataStream (string_Content: String )</tspan>
  <tspan x="45" y="3485">+ v_OutputHandler_ReceiveDataStream (string_Content: String )</tspan>
  <tspan x="45" y="3497">+ OutputHandler ()</tspan>
  <tspan x="45" y="3509"></tspan></text>
 <polygon points="1284,3736 1297,3736 1334,3736 1387,3736 1452,3736 1522,3736 1592,3736 1657,3736 1710,3736 1747,3736 1760,3736 1762,3736 1764,3735 1765,3735 1767,3734 1768,3732 1770,3731 1771,3729 1771,3728 1772,3726 1772,3724 1772,3711 1772,3677 1772,3626 1772,3565 1772,3498 1772,3430 1772,3369 1772,3318 1772,3284 1772,3271 1772,3269 1771,3267 1771,3266 1770,3264 1768,3263 1767,3261 1765,3260 1764,3260 1762,3259 1760,3259 1747,3259 1710,3259 1657,3259 1592,3259 1522,3259 1452,3259 1387,3259 1334,3259 1297,3259 1284,3259 1282,3259 1280,3260 1279,3260 1277,3261 1276,3263 1274,3264 1273,3266 1273,3267 1272,3269 1272,3271 1272,3284 1272,3318 1272,3369 1272,3430 1272,3498 1272,3565 1272,3626 1272,3677 1272,3711 1272,3724 1272,3726 1273,3728 1273,3729 1274,3731 1276,3732 1277,3734 1279,3735 1280,3735 1282,3736 1284,3736" stroke="#569f38" fill="none"/>
 <text fill="#569f38" font-family="Arial" font-size="12">
  <tspan x="1486" y="3686">▲</tspan>
  <tspan x="1486" y="3698">Properties</tspan>
  <tspan x="1486" y="3710"></tspan></text>
 <polygon points="1758,3267 1280,3267 1280,3663 1764,3663 1764,3273 1758,3267" stroke="#90c4e4" fill="none"/>
 <polyline points="1758,3267 1758,3273" stroke="#90c4e4" fill="none"/>
 <polyline points="1764,3273 1758,3273" stroke="#90c4e4" fill="none"/>
 <text fill="#000000" font-family="Arial" font-size="12"
  <tspan x="1288" y="3294">▲</tspan>
  <tspan x="1288" y="3306">LISTED.Properties.Resources</tspan>
  <tspan x="1288" y="3342">- resourceMan: global::System.Resources.ResourceManager</tspan>
  <tspan x="1288" y="3354">- resourceCulture: global::System.Globalization.CultureInfo</tspan>
  <tspan x="1288" y="3366">+ user: System.Drawing.Bitmap</tspan>
  <tspan x="1288" y="3378">+ logout: System.Drawing.Bitmap</tspan>
  <tspan x="1288" y="3390">+ home: System.Drawing.Bitmap</tspan>
  <tspan x="1288" y="3402">+ favicon_32x32: System.Drawing.Bitmap</tspan>
  <tspan x="1288" y="3414">+ clipboard: System.Drawing.Bitmap</tspan>
  <tspan x="1288" y="3426">+ calendar: System.Drawing.Bitmap</tspan>
  <tspan x="1288" y="3438">+ apple_touch_icon: System.Drawing.Bitmap</tspan>
  <tspan x="1288" y="3450">+ alarm_clock: System.Drawing.Bitmap</tspan>
  <tspan x="1288" y="3462">+ Upevent: System.Drawing.Bitmap</tspan>
  <tspan x="1288" y="3474">+ ResourceManager: global::System.Resources.ResourceManager</tspan>
  <tspan x="1288" y="3486">+ Highlights: System.Drawing.Bitmap</tspan>
  <tspan x="1288" y="3498">+ Culture: global::System.Globalization.CultureInfo</tspan>
  <tspan x="1288" y="3522">+ Resources ()</tspan>
  <tspan x="1288" y="3534"></tspan></text>
 <polygon points="3559,1163 3104,1163 3104,1445 3565,1445 3565,1169 3559,1163" stroke="#90c4e4" fill="none"/>
 <polyline points="3559,1163 3559,1169" stroke="#90c4e4" fill="none"/>
 <polyline points="3565,1169 3559,1169" stroke="#90c4e4" fill="none"/>
 <text fill="#000000" font-family="Arial" font-size="12"
  <tspan x="3112" y="1202">System.Object</tspan>
  <tspan x="3112" y="1214">△</tspan>
  <tspan x="3112" y="1250">+ ReferenceEquals (objA: System.Object ,objB: System.Object )</tspan>
  <tspan x="3112" y="1262">+ Equals (objA: System.Object ,objB: System.Object )</tspan>
  <tspan x="3112" y="1274">+ ToString ()</tspan>
  <tspan x="3112" y="1286">+ Object ()</tspan>
  <tspan x="3112" y="1298">+ GetType ()</tspan>
  <tspan x="3112" y="1310">+ GetHashCode ()</tspan>
  <tspan x="3112" y="1322">+ Equals (obj: System.Object )</tspan>
  <tspan x="3112" y="1334"># MemberwiseClone ()</tspan>
  <tspan x="3112" y="1346"># Finalize ()</tspan>
  <tspan x="3112" y="1358"></tspan></text>
 <polyline points="1548,3267 1558,3210 1571,3149 1586,3084 1604,3017 1625,2949 1648,2879 1675,2811 1705,2743 1739,2678 1776,2616 1889,2459 2015,2309 2151,2167 2294,2032 2441,1907 2586,1791 2729,1686 2864,1592 2988,1510 3099,1441" stroke="#4e8cb9" fill="none"/>
 <polygon points="3098,1439 3103,1438 3100,1442 3098,1439" stroke="#4e8cb9" fill="#4e8cb9"/>
 <polyline points="1115,3400 1113,3348 1111,3285 1113,3212 1117,3131 1126,3046 1139,2957 1160,2867 1187,2779 1223,2695 1268,2616 1418,2420 1591,2242 1781,2079 1982,1933 2189,1803 2396,1688 2596,1589 2784,1505 2953,1436 3099,1382" stroke="#4e8cb9" fill="none"/>
 <polygon points="3098,1380 3103,1380 3099,1383 3098,1380" stroke="#4e8cb9" fill="#4e8cb9"/>
 <polyline points="748,3371 752,3315 758,3250 768,3178 781,3099 799,3017 822,2933 851,2849 886,2766 928,2688 978,2616 1162,2410 1370,2223 1596,2055 1832,1906 2072,1775 2310,1661 2538,1564 2750,1484 2939,1419 3099,1369" stroke="#4e8cb9" fill="none"/>
 <polygon points="3098,1367 3103,1367 3099,1370 3098,1367" stroke="#4e8cb9" fill="#4e8cb9"/>
 <polyline points="273,3362 277,3305 284,3239 294,3166 308,3088 327,3006 351,2923 381,2841 417,2761 461,2685 513,2616 742,2383 1001,2177 1280,1998 1572,1843 1867,1712 2158,1602 2434,1512 2689,1440 2913,1385 3098,1346" stroke="#4e8cb9" fill="none"/>
 <polygon points="3098,1344 3103,1345 3098,1348 3098,1344" stroke="#4e8cb9" fill="#4e8cb9"/>
 <polyline points="3769,3400 3764,3351 3758,3292 3750,3223 3741,3146 3731,3064 3720,2976 3708,2886 3694,2795 3679,2705 3663,2616 3637,2486 3608,2354 3578,2221 3546,2090 3515,1963 3483,1841 3453,1727 3424,1623 3399,1530 3376,1450" stroke="#4e8cb9" fill="none"/>
 <polygon points="3375,1451 3375,1445 3378,1450 3375,1451" stroke="#4e8cb9" fill="#4e8cb9"/>
 <polyline points="3489,3400 3480,3285 3469,3125 3454,2929 3438,2709 3420,2474 3403,2236 3386,2004 3370,1789 3356,1601 3345,1451" stroke="#4e8cb9" fill="none"/>
 <polygon points="3343,1450 3344,1445 3347,1450 3343,1450" stroke="#4e8cb9" fill="#4e8cb9"/>
 <polyline points="3178,3400 3187,3285 3198,3125 3213,2929 3229,2709 3247,2474 3264,2236 3282,2004 3298,1789 3312,1601 3323,1451" stroke="#4e8cb9" fill="none"/>
 <polygon points="3321,1450 3324,1445 3325,1450 3321,1450" stroke="#4e8cb9" fill="#4e8cb9"/>
 <polyline points="2682,3333 2725,3199 2779,3029 2842,2834 2911,2621 2982,2398 3054,2175 3123,1960 3187,1762 3242,1589 3287,1450" stroke="#4e8cb9" fill="none"/>
 <polygon points="3286,1449 3289,1445 3289,1450 3286,1449" stroke="#4e8cb9" fill="#4e8cb9"/>
 <polyline points="2156,3400 2154,3350 2153,3289 2153,3218 2156,3140 2161,3056 2171,2968 2184,2878 2203,2788 2228,2700 2259,2616 2328,2470 2410,2327 2500,2189 2598,2057 2699,1931 2801,1814 2902,1706 2998,1608 3087,1522 3167,1449" stroke="#4e8cb9" fill="none"/>
 <polygon points="3166,1447 3171,1445 3168,1450 3166,1447" stroke="#4e8cb9" fill="#4e8cb9"/>
 <polyline points="1919,3390 1919,3338 1921,3276 1925,3205 1932,3127 1942,3044 1956,2958 1974,2870 1998,2782 2028,2697 2064,2616 2149,2465 2247,2320 2354,2180 2469,2047 2587,1923 2707,1806 2824,1700 2936,1604 3040,1520 3133,1448" stroke="#4e8cb9" fill="none"/>
 <polygon points="3132,1447 3137,1445 3134,1449 3132,1447" stroke="#4e8cb9" fill="#4e8cb9"/>
 <polygon points="7523,4 6489,4 6489,2604 7529,2604 7529,10 7523,4" stroke="#90c4e4" fill="none"/>
 <polyline points="7523,4 7523,10" stroke="#90c4e4" fill="none"/>
 <polyline points="7529,10 7523,10" stroke="#90c4e4" fill="none"/>
 <text fill="#000000" font-family="Arial" font-size="12"
  <tspan x="6497" y="31">△</tspan>
  <tspan x="6497" y="43">System.Windows.Forms.Form</tspan>
  <tspan x="6497" y="55">△</tspan>
  <tspan x="6497" y="79">+ WindowState: System.Windows.Forms.FormWindowState</tspan>
  <tspan x="6497" y="91">+ TransparencyKey: System.Drawing.Color</tspan>
  <tspan x="6497" y="103">+ TopMost: System.Boolean</tspan>
  <tspan x="6497" y="115">+ TopLevel: System.Boolean</tspan>
  <tspan x="6497" y="127">+ Text: System.String</tspan>
  <tspan x="6497" y="139">+ TabStop: System.Boolean</tspan>
  <tspan x="6497" y="151">+ TabIndex: System.Int32</tspan>
  <tspan x="6497" y="163">+ StartPosition: System.Windows.Forms.FormStartPosition</tspan>
  <tspan x="6497" y="175">+ SizeGripStyle: System.Windows.Forms.SizeGripStyle</tspan>
  <tspan x="6497" y="187">+ Size: System.Drawing.Size</tspan>
  <tspan x="6497" y="199">+ ShowInTaskbar: System.Boolean</tspan>
  <tspan x="6497" y="211">+ ShowIcon: System.Boolean</tspan>
  <tspan x="6497" y="223">+ RightToLeftLayout: System.Boolean</tspan>
  <tspan x="6497" y="235">+ RestoreBounds: System.Drawing.Rectangle</tspan>
  <tspan x="6497" y="247">+ Owner: System.Windows.Forms.Form</tspan>
  <tspan x="6497" y="259">+ OwnedForms: System.Windows.Forms.Form[]</tspan>
  <tspan x="6497" y="271">+ Opacity: System.Double</tspan>
  <tspan x="6497" y="283">+ Modal: System.Boolean</tspan>
  <tspan x="6497" y="295">+ MinimumSize: System.Drawing.Size</tspan>
  <tspan x="6497" y="307">+ MinimizeBox: System.Boolean</tspan>
  <tspan x="6497" y="319">+ MergedMenu: System.Windows.Forms.MainMenu</tspan>
  <tspan x="6497" y="331">+ Menu: System.Windows.Forms.MainMenu</tspan>
  <tspan x="6497" y="343">+ MdiParent: System.Windows.Forms.Form</tspan>
  <tspan x="6497" y="355">+ MdiChildren: System.Windows.Forms.Form[]</tspan>
  <tspan x="6497" y="367">+ MaximumSize: System.Drawing.Size</tspan>
  <tspan x="6497" y="379">+ MaximizeBox: System.Boolean</tspan>
  <tspan x="6497" y="391">+ Margin: System.Windows.Forms.Padding</tspan>
  <tspan x="6497" y="403">+ MainMenuStrip: System.Windows.Forms.MenuStrip</tspan>
  <tspan x="6497" y="415">+ Location: System.Drawing.Point</tspan>
  <tspan x="6497" y="427">+ KeyPreview: System.Boolean</tspan>
  <tspan x="6497" y="439">+ IsRestrictedWindow: System.Boolean</tspan>
  <tspan x="6497" y="451">+ IsMdiContainer: System.Boolean</tspan>
  <tspan x="6497" y="463">+ IsMdiChild: System.Boolean</tspan>
  <tspan x="6497" y="475">+ Icon: System.Drawing.Icon</tspan>
  <tspan x="6497" y="487">+ HelpButton: System.Boolean</tspan>
  <tspan x="6497" y="499">+ FormBorderStyle: System.Windows.Forms.FormBorderStyle</tspan>
  <tspan x="6497" y="511">+ DialogResult: System.Windows.Forms.DialogResult</tspan>
  <tspan x="6497" y="523">+ DesktopLocation: System.Drawing.Point</tspan>
  <tspan x="6497" y="535">+ DesktopBounds: System.Drawing.Rectangle</tspan>
  <tspan x="6497" y="547">+ ControlBox: System.Boolean</tspan>
  <tspan x="6497" y="559">+ ClientSize: System.Drawing.Size</tspan>
  <tspan x="6497" y="571">+ CancelButton: System.Windows.Forms.IButtonControl</tspan>
  <tspan x="6497" y="583">+ BackColor: System.Drawing.Color</tspan>
  <tspan x="6497" y="595">+ AutoValidate: System.Windows.Forms.AutoValidate</tspan>
  <tspan x="6497" y="607">+ AutoSizeMode: System.Windows.Forms.AutoSizeMode</tspan>
  <tspan x="6497" y="619">+ AutoSize: System.Boolean</tspan>
  <tspan x="6497" y="631">+ AutoScroll: System.Boolean</tspan>
  <tspan x="6497" y="643">+ AutoScaleBaseSize: System.Drawing.Size</tspan>
  <tspan x="6497" y="655">+ AutoScale: System.Boolean</tspan>
  <tspan x="6497" y="667">+ AllowTransparency: System.Boolean</tspan>
  <tspan x="6497" y="679">+ ActiveMdiChild: System.Windows.Forms.Form</tspan>
  <tspan x="6497" y="691">+ ActiveForm: System.Windows.Forms.Form</tspan>
  <tspan x="6497" y="703">+ AcceptButton: System.Windows.Forms.IButtonControl</tspan>
  <tspan x="6497" y="715"># ShowWithoutActivation: System.Boolean</tspan>
  <tspan x="6497" y="727"># MaximizedBounds: System.Drawing.Rectangle</tspan>
  <tspan x="6497" y="739"># DefaultSize: System.Drawing.Size</tspan>
  <tspan x="6497" y="751"># DefaultImeMode: System.Windows.Forms.ImeMode</tspan>
  <tspan x="6497" y="763"># CreateParams: System.Windows.Forms.CreateParams</tspan>
  <tspan x="6497" y="787">+ GetAutoScaleSize (font: System.Drawing.Font )</tspan>
  <tspan x="6497" y="799">+ ValidateChildren (validationConstraints: System.Windows.Forms.ValidationConstraints )</tspan>
  <tspan x="6497" y="811">+ ToString ()</tspan>
  <tspan x="6497" y="823">+ ShowDialog (owner: System.Windows.Forms.IWin32Window )</tspan>
  <tspan x="6497" y="835">+ Show (owner: System.Windows.Forms.IWin32Window )</tspan>
  <tspan x="6497" y="847">+ SetDesktopLocation (x: System.Int32 ,y: System.Int32 )</tspan>
  <tspan x="6497" y="859">+ SetDesktopBounds (x: System.Int32 ,y: System.Int32 ,width: System.Int32 ,height: System.Int32 )</tspan>
  <tspan x="6497" y="871">+ RemoveOwnedForm (ownedForm: System.Windows.Forms.Form )</tspan>
  <tspan x="6497" y="883">+ LayoutMdi (value: System.Windows.Forms.MdiLayout )</tspan>
  <tspan x="6497" y="895">+ Form ()</tspan>
  <tspan x="6497" y="907">+ Close ()</tspan>
  <tspan x="6497" y="919">+ AddOwnedForm (ownedForm: System.Windows.Forms.Form )</tspan>
  <tspan x="6497" y="931">+ Activate ()</tspan>
  <tspan x="6497" y="943"># WndProc (m: System.Windows.Forms.Message )</tspan>
  <tspan x="6497" y="955"># UpdateDefaultButton ()</tspan>
  <tspan x="6497" y="967"># SetVisibleCore (value: System.Boolean )</tspan>
  <tspan x="6497" y="979"># SetClientSizeCore (x: System.Int32 ,y: System.Int32 )</tspan>
  <tspan x="6497" y="991"># SetBoundsCore (x: System.Int32 ,y: System.Int32 ,width: System.Int32 ,height: System.Int32 ,specified: System.Windows.Forms.BoundsSpecified )</tspan>
  <tspan x="6497" y="1003"># Select (directed: System.Boolean ,forward: System.Boolean )</tspan>
  <tspan x="6497" y="1015"># ScaleCore (x: System.Single ,y: System.Single )</tspan>
  <tspan x="6497" y="1027"># ScaleControl (factor: System.Drawing.SizeF ,specified: System.Windows.Forms.BoundsSpecified )</tspan>
  <tspan x="6497" y="1039"># ProcessTabKey (forward: System.Boolean )</tspan>
  <tspan x="6497" y="1051"># ProcessKeyPreview (m: System.Windows.Forms.Message )</tspan>
  <tspan x="6497" y="1063"># ProcessDialogKey (keyData: System.Windows.Forms.Keys )</tspan>
  <tspan x="6497" y="1075"># ProcessDialogChar (charCode: System.Char )</tspan>
  <tspan x="6497" y="1087"># ProcessCmdKey (msg: System.Windows.Forms.Message ,keyData: System.Windows.Forms.Keys )</tspan>
  <tspan x="6497" y="1099"># OnVisibleChanged (e: System.EventArgs )</tspan>
  <tspan x="6497" y="1111"># OnTextChanged (e: System.EventArgs )</tspan>
  <tspan x="6497" y="1123"># OnStyleChanged (e: System.EventArgs )</tspan>
  <tspan x="6497" y="1135"># OnShown (e: System.EventArgs )</tspan>
  <tspan x="6497" y="1147"># OnRightToLeftLayoutChanged (e: System.EventArgs )</tspan>
  <tspan x="6497" y="1159"># OnResizeEnd (e: System.EventArgs )</tspan>
  <tspan x="6497" y="1171"># OnResizeBegin (e: System.EventArgs )</tspan>
  <tspan x="6497" y="1183"># OnResize (e: System.EventArgs )</tspan>
  <tspan x="6497" y="1195"># OnPaint (e: System.Windows.Forms.PaintEventArgs )</tspan>
  <tspan x="6497" y="1207"># OnMinimumSizeChanged (e: System.EventArgs )</tspan>
  <tspan x="6497" y="1219"># OnMenuStart (e: System.EventArgs )</tspan>
  <tspan x="6497" y="1231"># OnMenuComplete (e: System.EventArgs )</tspan>
  <tspan x="6497" y="1243"># OnMdiChildActivate (e: System.EventArgs )</tspan>
  <tspan x="6497" y="1255"># OnMaximumSizeChanged (e: System.EventArgs )</tspan>
  <tspan x="6497" y="1267"># OnMaximizedBoundsChanged (e: System.EventArgs )</tspan>
  <tspan x="6497" y="1279"># OnLoad (e: System.EventArgs )</tspan>
  <tspan x="6497" y="1291"># OnLayout (levent: System.Windows.Forms.LayoutEventArgs )</tspan>
  <tspan x="6497" y="1303"># OnInputLanguageChanging (e: System.Windows.Forms.InputLanguageChangingEventArgs )</tspan>
  <tspan x="6497" y="1315"># OnInputLanguageChanged (e: System.Windows.Forms.InputLanguageChangedEventArgs )</tspan>
  <tspan x="6497" y="1327"># OnHelpButtonClicked (e: System.ComponentModel.CancelEventArgs )</tspan>
  <tspan x="6497" y="1339"># OnHandleDestroyed (e: System.EventArgs )</tspan>
  <tspan x="6497" y="1351"># OnHandleCreated (e: System.EventArgs )</tspan>
  <tspan x="6497" y="1363"># OnGetDpiScaledSize (deviceDpiOld: System.Int32 ,deviceDpiNew: System.Int32 ,desiredSize: System.Drawing.Size )</tspan>
  <tspan x="6497" y="1375"># OnFormClosing (e: System.Windows.Forms.FormClosingEventArgs )</tspan>
  <tspan x="6497" y="1387"># OnFormClosed (e: System.Windows.Forms.FormClosedEventArgs )</tspan>
  <tspan x="6497" y="1399"># OnFontChanged (e: System.EventArgs )</tspan>
  <tspan x="6497" y="1411"># OnEnter (e: System.EventArgs )</tspan>
  <tspan x="6497" y="1423"># OnEnabledChanged (e: System.EventArgs )</tspan>
  <tspan x="6497" y="1435"># OnDpiChanged (e: System.Windows.Forms.DpiChangedEventArgs )</tspan>
  <tspan x="6497" y="1447"># OnDeactivate (e: System.EventArgs )</tspan>
  <tspan x="6497" y="1459"># OnCreateControl ()</tspan>
  <tspan x="6497" y="1471"># OnClosing (e: System.ComponentModel.CancelEventArgs )</tspan>
  <tspan x="6497" y="1483"># OnClosed (e: System.EventArgs )</tspan>
  <tspan x="6497" y="1495"># OnBackgroundImageLayoutChanged (e: System.EventArgs )</tspan>
  <tspan x="6497" y="1507"># OnBackgroundImageChanged (e: System.EventArgs )</tspan>
  <tspan x="6497" y="1519"># OnActivated (e: System.EventArgs )</tspan>
  <tspan x="6497" y="1531"># GetScaledBounds (bounds: System.Drawing.Rectangle ,factor: System.Drawing.SizeF ,specified: System.Windows.Forms.BoundsSpecified )</tspan>
  <tspan x="6497" y="1543"># Dispose (disposing: System.Boolean )</tspan>
  <tspan x="6497" y="1555"># DefWndProc (m: System.Windows.Forms.Message )</tspan>
  <tspan x="6497" y="1567"># CreateHandle ()</tspan>
  <tspan x="6497" y="1579"># CreateControlsInstance ()</tspan>
  <tspan x="6497" y="1591"># CenterToScreen ()</tspan>
  <tspan x="6497" y="1603"># CenterToParent ()</tspan>
  <tspan x="6497" y="1615"># ApplyAutoScaling ()</tspan>
  <tspan x="6497" y="1627"># AdjustFormScrollbars (displayScrollbars: System.Boolean )</tspan>
  <tspan x="6497" y="1639"># ActivateMdiChild (form: System.Windows.Forms.Form )</tspan>
  <tspan x="6497" y="1651"># ProcessMnemonic (charCode: System.Char )</tspan>
  <tspan x="6497" y="1663"></tspan></text>
 <polyline points="7214,2640 7213,2637 7213,2634 7212,2631 7212,2628 7212,2625 7211,2621 7211,2618 7210,2615 7210,2612 7209,2609" stroke="#4e8cb9" fill="none"/>
 <polygon points="7207,2609 7208,2604 7211,2609 7207,2609" stroke="#4e8cb9" fill="#4e8cb9"/>
 <polyline points="6000,3400 6005,3348 6010,3284 6013,3210 6012,3129 6007,3043 5995,2954 5977,2865 5951,2777 5915,2693 5869,2616 5680,2388 5460,2187 5218,2010 4961,1857 4698,1725 4436,1615 4185,1523 3951,1450 3744,1393 3570,1352" stroke="#4e8cb9" fill="none"/>
 <polygon points="3569,1353 3565,1350 3570,1350 3569,1353" stroke="#4e8cb9" fill="#4e8cb9"/>
 <polyline points="5734,3400 5737,3348 5740,3284 5740,3211 5736,3130 5729,3044 5715,2956 5696,2866 5668,2778 5632,2694 5586,2616 5420,2408 5228,2220 5018,2052 4794,1903 4565,1772 4337,1659 4117,1562 3911,1482 3726,1418 3569,1369" stroke="#4e8cb9" fill="none"/>
 <polygon points="3569,1370 3565,1367 3570,1367 3569,1370" stroke="#4e8cb9" fill="#4e8cb9"/>
 <polyline points="5267,3371 5256,3317 5242,3253 5224,3181 5202,3104 5177,3022 5147,2939 5113,2854 5074,2771 5030,2691 4981,2616 4857,2457 4720,2305 4572,2160 4419,2025 4263,1899 4107,1783 3957,1677 3815,1584 3684,1502 3569,1434" stroke="#4e8cb9" fill="none"/>
 <polygon points="3568,1435 3565,1431 3570,1432 3568,1435" stroke="#4e8cb9" fill="#4e8cb9"/>
 <polyline points="4876,3381 4879,3328 4880,3265 4880,3194 4876,3116 4870,3034 4859,2949 4843,2863 4821,2778 4793,2695 4757,2616 4665,2459 4558,2310 4440,2168 4313,2034 4182,1909 4049,1794 3917,1690 3792,1596 3674,1514 3569,1445" stroke="#4e8cb9" fill="none"/>
 <polygon points="3568,1447 3565,1443 3570,1444 3568,1447" stroke="#4e8cb9" fill="#4e8cb9"/>
 <polyline points="4243,3286 4178,3143 4099,2971 4010,2777 3915,2569 3816,2355 3718,2141 3624,1936 3537,1748 3462,1583 3401,1450" stroke="#4e8cb9" fill="none"/>
 <polygon points="3399,1450 3398,1445 3402,1449 3399,1450" stroke="#4e8cb9" fill="#4e8cb9"/>
 <polyline points="6295,3343 6295,3285 6294,3220 6289,3148 6281,3072 6269,2993 6251,2913 6228,2834 6198,2757 6160,2684 6114,2616 5896,2378 5646,2169 5374,1988 5088,1833 4796,1701 4508,1592 4233,1503 3979,1434 3755,1381 3570,1343" stroke="#4e8cb9" fill="none"/>
 <polygon points="3569,1345 3565,1342 3570,1342 3569,1345" stroke="#4e8cb9" fill="#4e8cb9"/>
 <polyline points="6715,3219 6723,3170 6731,3118 6740,3062 6749,3004 6758,2943 6768,2880 6778,2814 6788,2747 6798,2679 6809,2609" stroke="#4e8cb9" fill="none"/>
 <polygon points="6807,2609 6810,2604 6811,2609 6807,2609" stroke="#4e8cb9" fill="#4e8cb9"/>
</svg>
