<?xml version="1.0"?>
<svg width="6671" height="4502" xmlns="http://www.w3.org/2000/svg" version="1.1">
 <polygon points="4,4498 4,4 6667,4 6667,4498 4,4498" stroke="#fffffe00" fill="none"/>
 <polygon points="24,4490 209,4490 713,4490 1455,4490 2355,4490 3336,4490 4316,4490 5216,4490 5958,4490 6462,4490 6647,4490 6649,4490 6651,4489 6652,4489 6654,4488 6655,4486 6657,4485 6658,4483 6658,4482 6659,4480 6659,4478 6659,4426 6659,4286 6659,4078 6659,3827 6659,3553 6659,3279 6659,3028 6659,2820 6659,2680 6659,2628 6659,2626 6658,2624 6658,2623 6657,2621 6655,2620 6654,2618 6652,2617 6651,2617 6649,2616 6647,2616 6462,2616 5958,2616 5216,2616 4316,2616 3336,2616 2355,2616 1455,2616 713,2616 209,2616 24,2616 22,2616 20,2617 19,2617 17,2618 16,2620 14,2621 13,2623 13,2624 12,2626 12,2628 12,2680 12,2820 12,3028 12,3279 12,3553 12,3827 12,4078 12,4286 12,4426 12,4478 12,4480 13,4482 13,4483 14,4485 16,4486 17,4488 19,4489 20,4489 22,4490 24,4490" stroke="#afd870" fill="none"/>
 <text fill="#afd870" font-family="Arial" font-size="12">
  <tspan x="3272" y="4440">△</tspan>
  <tspan x="3272" y="4452">Directory Structure</tspan>
  <tspan x="3272" y="4464"></tspan></text>
 <polygon points="32,4417 217,4417 719,4417 1459,4417 2358,4417 3336,4417 4313,4417 5212,4417 5952,4417 6454,4417 6639,4417 6641,4417 6643,4416 6644,4416 6646,4415 6647,4413 6649,4412 6650,4410 6650,4409 6651,4407 6651,4405 6651,4355 6651,4221 6651,4023 6651,3782 6651,3521 6651,3259 6651,3018 6651,2820 6651,2686 6651,2636 6651,2634 6650,2632 6650,2631 6649,2629 6647,2628 6646,2626 6644,2625 6643,2625 6641,2624 6639,2624 6454,2624 5952,2624 5212,2624 4313,2624 3336,2624 2358,2624 1459,2624 719,2624 217,2624 32,2624 30,2624 28,2625 27,2625 25,2626 24,2628 22,2629 21,2631 21,2632 20,2634 20,2636 20,2686 20,2820 20,3018 20,3259 20,3521 20,3782 20,4023 20,4221 20,4355 20,4405 20,4407 21,4409 21,4410 22,4412 24,4413 25,4415 27,4416 28,4416 30,4417 32,4417" stroke="#fcad56" fill="none"/>
 <text fill="#fcad56" font-family="Arial" font-size="12">
  <tspan x="3309" y="4367">▲</tspan>
  <tspan x="3309" y="4379">LISTED</tspan>
  <tspan x="3309" y="4391"></tspan></text>
 <polygon points="1919,3593 1924,3593 1937,3593 1956,3593 1979,3593 2004,3593 2029,3593 2052,3593 2071,3593 2084,3593 2089,3593 2091,3593 2093,3592 2094,3592 2096,3591 2097,3589 2099,3588 2100,3586 2100,3585 2101,3583 2101,3581 2101,3576 2101,3562 2101,3541 2101,3515 2101,3488 2101,3460 2101,3434 2101,3413 2101,3399 2101,3394 2101,3392 2100,3390 2100,3389 2099,3387 2097,3386 2096,3384 2094,3383 2093,3383 2091,3382 2089,3382 2084,3382 2071,3382 2052,3382 2029,3382 2004,3382 1979,3382 1956,3382 1937,3382 1924,3382 1919,3382 1917,3382 1915,3383 1914,3383 1912,3384 1911,3386 1909,3387 1908,3389 1908,3390 1907,3392 1907,3394 1907,3399 1907,3413 1907,3434 1907,3460 1907,3488 1907,3515 1907,3541 1907,3562 1907,3576 1907,3581 1907,3583 1908,3585 1908,3586 1909,3588 1911,3589 1912,3591 1914,3592 1915,3592 1917,3593 1919,3593" stroke="#569f38" fill="none"/>
 <text fill="#569f38" font-family="Arial" font-size="12">
  <tspan x="1988" y="3543">▲</tspan>
  <tspan x="1988" y="3555">Kern</tspan>
  <tspan x="1988" y="3567"></tspan></text>
 <polygon points="2087,3390 1916,3390 1916,3520 2093,3520 2093,3396 2087,3390" stroke="#90c4e4" fill="none"/>
 <polyline points="2087,3390 2087,3396" stroke="#90c4e4" fill="none"/>
 <polyline points="2093,3396 2087,3396" stroke="#90c4e4" fill="none"/>
 <text fill="#000000" font-family="Arial" font-size="12"
  <tspan x="1924" y="3417">▲</tspan>
  <tspan x="1924" y="3429">LISTED.Kern.Program</tspan>
  <tspan x="1924" y="3477">- Main ()</tspan>
  <tspan x="1924" y="3489"></tspan></text>
 <polygon points="1411,3726 1424,3726 1461,3726 1514,3726 1579,3726 1649,3726 1719,3726 1784,3726 1837,3726 1874,3726 1887,3726 1889,3726 1891,3725 1892,3725 1894,3724 1895,3722 1897,3721 1898,3719 1898,3718 1899,3716 1899,3714 1899,3701 1899,3667 1899,3616 1899,3555 1899,3488 1899,3420 1899,3359 1899,3308 1899,3274 1899,3261 1899,3259 1898,3257 1898,3256 1897,3254 1895,3253 1894,3251 1892,3250 1891,3250 1889,3249 1887,3249 1874,3249 1837,3249 1784,3249 1719,3249 1649,3249 1579,3249 1514,3249 1461,3249 1424,3249 1411,3249 1409,3249 1407,3250 1406,3250 1404,3251 1403,3253 1401,3254 1400,3256 1400,3257 1399,3259 1399,3261 1399,3274 1399,3308 1399,3359 1399,3420 1399,3488 1399,3555 1399,3616 1399,3667 1399,3701 1399,3714 1399,3716 1400,3718 1400,3719 1401,3721 1403,3722 1404,3724 1406,3725 1407,3725 1409,3726 1411,3726" stroke="#569f38" fill="none"/>
 <text fill="#569f38" font-family="Arial" font-size="12">
  <tspan x="1613" y="3676">▲</tspan>
  <tspan x="1613" y="3688">Properties</tspan>
  <tspan x="1613" y="3700"></tspan></text>
 <polygon points="1885,3257 1407,3257 1407,3653 1891,3653 1891,3263 1885,3257" stroke="#90c4e4" fill="none"/>
 <polyline points="1885,3257 1885,3263" stroke="#90c4e4" fill="none"/>
 <polyline points="1891,3263 1885,3263" stroke="#90c4e4" fill="none"/>
 <text fill="#000000" font-family="Arial" font-size="12"
  <tspan x="1415" y="3284">▲</tspan>
  <tspan x="1415" y="3296">LISTED.Properties.Resources</tspan>
  <tspan x="1415" y="3332">- resourceMan: global::System.Resources.ResourceManager</tspan>
  <tspan x="1415" y="3344">- resourceCulture: global::System.Globalization.CultureInfo</tspan>
  <tspan x="1415" y="3356">+ user: System.Drawing.Bitmap</tspan>
  <tspan x="1415" y="3368">+ logout: System.Drawing.Bitmap</tspan>
  <tspan x="1415" y="3380">+ home: System.Drawing.Bitmap</tspan>
  <tspan x="1415" y="3392">+ favicon_32x32: System.Drawing.Bitmap</tspan>
  <tspan x="1415" y="3404">+ clipboard: System.Drawing.Bitmap</tspan>
  <tspan x="1415" y="3416">+ calendar: System.Drawing.Bitmap</tspan>
  <tspan x="1415" y="3428">+ apple_touch_icon: System.Drawing.Bitmap</tspan>
  <tspan x="1415" y="3440">+ alarm_clock: System.Drawing.Bitmap</tspan>
  <tspan x="1415" y="3452">+ Upevent: System.Drawing.Bitmap</tspan>
  <tspan x="1415" y="3464">+ ResourceManager: global::System.Resources.ResourceManager</tspan>
  <tspan x="1415" y="3476">+ Highlights: System.Drawing.Bitmap</tspan>
  <tspan x="1415" y="3488">+ Culture: global::System.Globalization.CultureInfo</tspan>
  <tspan x="1415" y="3512">+ Resources ()</tspan>
  <tspan x="1415" y="3524"></tspan></text>
 <polygon points="40,3631 77,3631 179,3631 329,3631 511,3631 710,3631 908,3631 1090,3631 1240,3631 1342,3631 1379,3631 1381,3631 1383,3630 1384,3630 1386,3629 1387,3627 1389,3626 1390,3624 1390,3623 1391,3621 1391,3619 1391,3612 1391,3592 1391,3562 1391,3526 1391,3488 1391,3449 1391,3413 1391,3383 1391,3363 1391,3356 1391,3354 1390,3352 1390,3351 1389,3349 1387,3348 1386,3346 1384,3345 1383,3345 1381,3344 1379,3344 1342,3344 1240,3344 1090,3344 908,3344 710,3344 511,3344 329,3344 179,3344 77,3344 40,3344 38,3344 36,3345 35,3345 33,3346 32,3348 30,3349 29,3351 29,3352 28,3354 28,3356 28,3363 28,3383 28,3413 28,3449 28,3488 28,3526 28,3562 28,3592 28,3612 28,3619 28,3621 29,3623 29,3624 30,3626 32,3627 33,3629 35,3630 36,3630 38,3631 40,3631" stroke="#569f38" fill="none"/>
 <text fill="#569f38" font-family="Arial" font-size="12">
  <tspan x="682" y="3581">▲</tspan>
  <tspan x="682" y="3593">Adapter</tspan>
  <tspan x="682" y="3605"></tspan></text>
 <polygon points="1377,3390 1162,3390 1162,3520 1383,3520 1383,3396 1377,3390" stroke="#90c4e4" fill="none"/>
 <polyline points="1377,3390 1377,3396" stroke="#90c4e4" fill="none"/>
 <polyline points="1383,3396 1377,3396" stroke="#90c4e4" fill="none"/>
 <text fill="#000000" font-family="Arial" font-size="12"
  <tspan x="1170" y="3417">▲</tspan>
  <tspan x="1170" y="3429">LISTED.Adapter.ControlGui1</tspan>
  <tspan x="1170" y="3477">+ ControlGui1 ()</tspan>
  <tspan x="1170" y="3489"></tspan></text>
 <polygon points="1138,3390 987,3390 987,3520 1144,3520 1144,3396 1138,3390" stroke="#90c4e4" fill="none"/>
 <polyline points="1138,3390 1138,3396" stroke="#90c4e4" fill="none"/>
 <polyline points="1144,3396 1138,3396" stroke="#90c4e4" fill="none"/>
 <text fill="#000000" font-family="Arial" font-size="12"
  <tspan x="995" y="3417">▲</tspan>
  <tspan x="995" y="3429">LISTED.Adapter.Init</tspan>
  <tspan x="995" y="3477">+ Init ()</tspan>
  <tspan x="995" y="3489"></tspan></text>
 <polygon points="962,3362 522,3362 522,3549 968,3549 968,3368 962,3362" stroke="#90c4e4" fill="none"/>
 <polyline points="962,3362 962,3368" stroke="#90c4e4" fill="none"/>
 <polyline points="968,3368 962,3368" stroke="#90c4e4" fill="none"/>
 <text fill="#000000" font-family="Arial" font-size="12"
  <tspan x="530" y="3389">▲</tspan>
  <tspan x="530" y="3401">LISTED.Adapter.InputHandler</tspan>
  <tspan x="530" y="3437">- mydatastorage: IoDatastorage</tspan>
  <tspan x="530" y="3461">+ int_InputHandler_VerifyUserInput (string_UserInput: String )</tspan>
  <tspan x="530" y="3473">+ int_InputHandler_CheckDatabase (string_UserInput: String )</tspan>
  <tspan x="530" y="3485">+ InputHandler ()</tspan>
  <tspan x="530" y="3497"></tspan></text>
 <polygon points="498,3352 37,3352 37,3558 504,3558 504,3358 498,3352" stroke="#90c4e4" fill="none"/>
 <polyline points="498,3352 498,3358" stroke="#90c4e4" fill="none"/>
 <polyline points="504,3358 498,3358" stroke="#90c4e4" fill="none"/>
 <text fill="#000000" font-family="Arial" font-size="12"
  <tspan x="45" y="3379">▲</tspan>
  <tspan x="45" y="3391">LISTED.Adapter.OutputHandler</tspan>
  <tspan x="45" y="3427">- myOutputHandler: OutputHandler</tspan>
  <tspan x="45" y="3439">- myIoDatastorage: IoDatastorage</tspan>
  <tspan x="45" y="3463">+ v_OutputHandler_SplitDataStream (string_Content: String )</tspan>
  <tspan x="45" y="3475">+ v_OutputHandler_ReceiveDataStream (string_Content: String )</tspan>
  <tspan x="45" y="3487">+ OutputHandler ()</tspan>
  <tspan x="45" y="3499"></tspan></text>
 <polygon points="2121,4344 2247,4344 2590,4344 3095,4344 3709,4344 4376,4344 5043,4344 5657,4344 6162,4344 6505,4344 6631,4344 6633,4344 6635,4343 6636,4343 6638,4342 6639,4340 6641,4339 6642,4337 6642,4336 6643,4334 6643,4332 6643,4285 6643,4156 6643,3967 6643,3738 6643,3488 6643,3238 6643,3009 6643,2820 6643,2691 6643,2644 6643,2642 6642,2640 6642,2639 6641,2637 6639,2636 6638,2634 6636,2633 6635,2633 6633,2632 6631,2632 6505,2632 6162,2632 5657,2632 5043,2632 4376,2632 3709,2632 3095,2632 2590,2632 2247,2632 2121,2632 2119,2632 2117,2633 2116,2633 2114,2634 2113,2636 2111,2637 2110,2639 2110,2640 2109,2642 2109,2644 2109,2691 2109,2820 2109,3009 2109,3238 2109,3488 2109,3738 2109,3967 2109,4156 2109,4285 2109,4332 2109,4334 2110,4336 2110,4337 2111,4339 2113,4340 2114,4342 2116,4343 2117,4343 2119,4344 2121,4344" stroke="#569f38" fill="none"/>
 <text fill="#569f38" font-family="Arial" font-size="12">
  <tspan x="4355" y="4294">▲</tspan>
  <tspan x="4355" y="4306">Plugin</tspan>
  <tspan x="4355" y="4318"></tspan></text>
 <polygon points="6629,2640 5759,2640 5759,4271 6635,4271 6635,2646 6629,2640" stroke="#90c4e4" fill="none"/>
 <polyline points="6629,2640 6629,2646" stroke="#90c4e4" fill="none"/>
 <polyline points="6635,2646 6629,2646" stroke="#90c4e4" fill="none"/>
 <text fill="#000000" font-family="Arial" font-size="12"
  <tspan x="5767" y="2667">▲</tspan>
  <tspan x="5767" y="2679">LISTED.Plugin.Gui1</tspan>
  <tspan x="5767" y="2715">+ richTextBox6: System.Windows.Forms.RichTextBox</tspan>
  <tspan x="5767" y="2727">+ richTextBox1: System.Windows.Forms.RichTextBox</tspan>
  <tspan x="5767" y="2739">- userLabel: System.Windows.Forms.Label</tspan>
  <tspan x="5767" y="2751">- txtboxUpevent2: System.Windows.Forms.RichTextBox</tspan>
  <tspan x="5767" y="2763">- txtboxUpevent1: System.Windows.Forms.RichTextBox</tspan>
  <tspan x="5767" y="2775">- txtboxHlights2: System.Windows.Forms.RichTextBox</tspan>
  <tspan x="5767" y="2787">- txtboxHlights1: System.Windows.Forms.RichTextBox</tspan>
  <tspan x="5767" y="2799">- tabPageMain: System.Windows.Forms.TabPage</tspan>
  <tspan x="5767" y="2811">- tabControlMain: System.Windows.Forms.TabControl</tspan>
  <tspan x="5767" y="2823">- richTextBox9: System.Windows.Forms.RichTextBox</tspan>
  <tspan x="5767" y="2835">- richTextBox8: System.Windows.Forms.RichTextBox</tspan>
  <tspan x="5767" y="2847">- richTextBox7: System.Windows.Forms.RichTextBox</tspan>
  <tspan x="5767" y="2859">- richTextBox5: System.Windows.Forms.RichTextBox</tspan>
  <tspan x="5767" y="2871">- richTextBox4: System.Windows.Forms.RichTextBox</tspan>
  <tspan x="5767" y="2883">- richTextBox3: System.Windows.Forms.RichTextBox</tspan>
  <tspan x="5767" y="2895">- richTextBox2: System.Windows.Forms.RichTextBox</tspan>
  <tspan x="5767" y="2907">- richTextBox10: System.Windows.Forms.RichTextBox</tspan>
  <tspan x="5767" y="2919">- pnlNav: System.Windows.Forms.Panel</tspan>
  <tspan x="5767" y="2931">- pictureBox3: System.Windows.Forms.PictureBox</tspan>
  <tspan x="5767" y="2943">- pictureBox2: System.Windows.Forms.PictureBox</tspan>
  <tspan x="5767" y="2955">- pictureBox1: System.Windows.Forms.PictureBox</tspan>
  <tspan x="5767" y="2967">- panelLeft: System.Windows.Forms.Panel</tspan>
  <tspan x="5767" y="2979">- panel3: System.Windows.Forms.Panel</tspan>
  <tspan x="5767" y="2991">- panel2: System.Windows.Forms.Panel</tspan>
  <tspan x="5767" y="3003">- panel1: System.Windows.Forms.Panel</tspan>
  <tspan x="5767" y="3015">- logo: System.Windows.Forms.PictureBox</tspan>
  <tspan x="5767" y="3027">- lblHome: System.Windows.Forms.Label</tspan>
  <tspan x="5767" y="3039">- lblEvents: System.Windows.Forms.Label</tspan>
  <tspan x="5767" y="3051">- label1: System.Windows.Forms.Label</tspan>
  <tspan x="5767" y="3063">- components: System.ComponentModel.IContainer= null</tspan>
  <tspan x="5767" y="3075">- checkBox5: System.Windows.Forms.CheckBox</tspan>
  <tspan x="5767" y="3087">- checkBox4: System.Windows.Forms.CheckBox</tspan>
  <tspan x="5767" y="3099">- checkBox3: System.Windows.Forms.CheckBox</tspan>
  <tspan x="5767" y="3111">- checkBox2: System.Windows.Forms.CheckBox</tspan>
  <tspan x="5767" y="3123">- checkBox1: System.Windows.Forms.CheckBox</tspan>
  <tspan x="5767" y="3135">- btnX: System.Windows.Forms.Button</tspan>
  <tspan x="5767" y="3147">- btnTodo: System.Windows.Forms.Button</tspan>
  <tspan x="5767" y="3159">- btnLogOut: System.Windows.Forms.Button</tspan>
  <tspan x="5767" y="3171">- btnHome: System.Windows.Forms.Button</tspan>
  <tspan x="5767" y="3183">- btnCal: System.Windows.Forms.Button</tspan>
  <tspan x="5767" y="3195">- btnAlarm: System.Windows.Forms.Button</tspan>
  <tspan x="5767" y="3219">- CreateRoundRectRgn (nLeftRect: int ,nTopRect: int ,nRightRect: int ,nBottomRect: int ,nWidthEllipse: int ,nHeightEllipse: int )</tspan>
  <tspan x="5767" y="3231">+ createNewList ()</tspan>
  <tspan x="5767" y="3243">+ btn_Save_Click (sender: object ,e: EventArgs )</tspan>
  <tspan x="5767" y="3255">+ WriteDateFromDatabaseToTextBoxes (arrayPartDate: ArrayList )</tspan>
  <tspan x="5767" y="3267">+ WriteCalendarNameFromDatabaseToTextBoxes (arrayPart: ArrayList )</tspan>
  <tspan x="5767" y="3279">+ SplitDataFromStorageName (myInput: string )</tspan>
  <tspan x="5767" y="3291">+ SplitDataFromStorageDate (myInput: string )</tspan>
  <tspan x="5767" y="3303">+ FormalizeContentToString ()</tspan>
  <tspan x="5767" y="3315">+ DeleteContentFromAllTextboxes ()</tspan>
  <tspan x="5767" y="3327">+ Gui1 ()</tspan>
  <tspan x="5767" y="3339"># Dispose (disposing: bool )</tspan>
  <tspan x="5767" y="3351">- radioButton5_CheckedChanged (sender: object ,e: EventArgs )</tspan>
  <tspan x="5767" y="3363">- radioButton4_CheckedChanged (sender: object ,e: EventArgs )</tspan>
  <tspan x="5767" y="3375">- radioButton3_CheckedChanged (sender: object ,e: EventArgs )</tspan>
  <tspan x="5767" y="3387">- radioButton2_CheckedChanged (sender: object ,e: EventArgs )</tspan>
  <tspan x="5767" y="3399">- load_Database ()</tspan>
  <tspan x="5767" y="3411">- checkBox5_CheckedChanged (sender: object ,e: EventArgs )</tspan>
  <tspan x="5767" y="3423">- checkBox4_CheckedChanged (sender: object ,e: EventArgs )</tspan>
  <tspan x="5767" y="3435">- checkBox3_CheckedChanged (sender: object ,e: EventArgs )</tspan>
  <tspan x="5767" y="3447">- checkBox2_CheckedChanged (sender: object ,e: EventArgs )</tspan>
  <tspan x="5767" y="3459">- checkBox1_CheckedChanged (sender: object ,e: EventArgs )</tspan>
  <tspan x="5767" y="3471">- button1_Click (sender: object ,e: EventArgs )</tspan>
  <tspan x="5767" y="3483">- btnX_Click (sender: object ,e: EventArgs )</tspan>
  <tspan x="5767" y="3495">- btnTodo_Leave (sender: object ,e: EventArgs )</tspan>
  <tspan x="5767" y="3507">- btnTodo_Click (sender: object ,e: EventArgs )</tspan>
  <tspan x="5767" y="3519">- btnLogOut_Leave (sender: object ,e: EventArgs )</tspan>
  <tspan x="5767" y="3531">- btnLogOut_Click (sender: object ,e: EventArgs )</tspan>
  <tspan x="5767" y="3543">- btnHome_Leave (sender: object ,e: EventArgs )</tspan>
  <tspan x="5767" y="3555">- btnHome_Click (sender: object ,e: EventArgs )</tspan>
  <tspan x="5767" y="3567">- btnCal_Leave (sender: object ,e: EventArgs )</tspan>
  <tspan x="5767" y="3579">- btnCal_Click (sender: object ,e: EventArgs )</tspan>
  <tspan x="5767" y="3591">- btnAlarm_Leave (sender: object ,e: EventArgs )</tspan>
  <tspan x="5767" y="3603">- btnAlarm_Click (sender: object ,e: EventArgs )</tspan>
  <tspan x="5767" y="3615">- bg_Color (btn: Button )</tspan>
  <tspan x="5767" y="3627">- WriteContentIntoTextboxes ()</tspan>
  <tspan x="5767" y="3639">- WriteContentIntoEmptyRichTextBox ()</tspan>
  <tspan x="5767" y="3651">- InitializeComponent ()</tspan>
  <tspan x="5767" y="3663">- Gui1_Load (sender: object ,e: EventArgs )</tspan>
  <tspan x="5767" y="3675">- Gui1_FormClosing_1 (sender: object ,e: FormClosingEventArgs )</tspan>
  <tspan x="5767" y="3687"></tspan></text>
 <polygon points="5735,3210 5329,3210 5329,3701 5741,3701 5741,3216 5735,3210" stroke="#90c4e4" fill="none"/>
 <polyline points="5735,3210 5735,3216" stroke="#90c4e4" fill="none"/>
 <polyline points="5741,3216 5735,3216" stroke="#90c4e4" fill="none"/>
 <text fill="#000000" font-family="Arial" font-size="12"
  <tspan x="5337" y="3237">▲</tspan>
  <tspan x="5337" y="3249">LISTED.Plugin.Gui2</tspan>
  <tspan x="5337" y="3285">- txtName: System.Windows.Forms.TextBox</tspan>
  <tspan x="5337" y="3297">- txtBeschreibung: System.Windows.Forms.TextBox</tspan>
  <tspan x="5337" y="3309">- lblName: System.Windows.Forms.Label</tspan>
  <tspan x="5337" y="3321">- label3: System.Windows.Forms.Label</tspan>
  <tspan x="5337" y="3333">- label2: System.Windows.Forms.Label</tspan>
  <tspan x="5337" y="3345">- label1: System.Windows.Forms.Label</tspan>
  <tspan x="5337" y="3357">- dtpDatum: System.Windows.Forms.DateTimePicker</tspan>
  <tspan x="5337" y="3369">- components: System.ComponentModel.IContainer= null</tspan>
  <tspan x="5337" y="3381">- cbWecker: System.Windows.Forms.CheckBox</tspan>
  <tspan x="5337" y="3393">- btnSpeichern: System.Windows.Forms.Button</tspan>
  <tspan x="5337" y="3405">- btnAbbrechen: System.Windows.Forms.Button</tspan>
  <tspan x="5337" y="3429">+ Gui2 ()</tspan>
  <tspan x="5337" y="3441"># Dispose (disposing: bool )</tspan>
  <tspan x="5337" y="3453">- label4_Click (sender: object ,e: EventArgs )</tspan>
  <tspan x="5337" y="3465">- label3_Click (sender: object ,e: EventArgs )</tspan>
  <tspan x="5337" y="3477">- label1_Click (sender: object ,e: EventArgs )</tspan>
  <tspan x="5337" y="3489">- btn_Speichern_Click (sender: object ,e: EventArgs )</tspan>
  <tspan x="5337" y="3501">- btnAbbrechen_Click (sender: object ,e: EventArgs )</tspan>
  <tspan x="5337" y="3513">- InitializeComponent ()</tspan>
  <tspan x="5337" y="3525">- Gui2_Load (sender: object ,e: EventArgs )</tspan>
  <tspan x="5337" y="3537"></tspan></text>
 <polygon points="5305,3248 4837,3248 4837,3663 5311,3663 5311,3254 5305,3248" stroke="#90c4e4" fill="none"/>
 <polyline points="5305,3248 5305,3254" stroke="#90c4e4" fill="none"/>
 <polyline points="5311,3254 5305,3254" stroke="#90c4e4" fill="none"/>
 <text fill="#000000" font-family="Arial" font-size="12"
  <tspan x="4845" y="3275">▲</tspan>
  <tspan x="4845" y="3287">LISTED.Plugin.GuiAlarm</tspan>
  <tspan x="4845" y="3323">- timer: System.Timers.Timer</tspan>
  <tspan x="4845" y="3335">- lblStatus: System.Windows.Forms.Label</tspan>
  <tspan x="4845" y="3347">- label1: System.Windows.Forms.Label</tspan>
  <tspan x="4845" y="3359">- dateTimePickerAlarm: System.Windows.Forms.DateTimePicker</tspan>
  <tspan x="4845" y="3371">- components: System.ComponentModel.IContainer= null</tspan>
  <tspan x="4845" y="3383">- button2: System.Windows.Forms.Button</tspan>
  <tspan x="4845" y="3395">- btnStopAlarm: System.Windows.Forms.Button</tspan>
  <tspan x="4845" y="3407">- btnStartAlarm: System.Windows.Forms.Button</tspan>
  <tspan x="4845" y="3431">+ GuiAlarm ()</tspan>
  <tspan x="4845" y="3443"># Dispose (disposing: bool )</tspan>
  <tspan x="4845" y="3455">- btnStopAlarm_Click (sender: object ,e: EventArgs )</tspan>
  <tspan x="4845" y="3467">- btnStartAlarm_Click (sender: object ,e: EventArgs )</tspan>
  <tspan x="4845" y="3479">- UpdateDataLabel (lbl: Label ,value: string )</tspan>
  <tspan x="4845" y="3491">- Timer_Elapsed (sender: object ,e: ElapsedEventArgs )</tspan>
  <tspan x="4845" y="3503">- InitializeComponent ()</tspan>
  <tspan x="4845" y="3515">- GuiAlarm_Load (sender: object ,e: EventArgs )</tspan>
  <tspan x="4845" y="3527"></tspan></text>
 <polygon points="4813,3362 4232,3362 4232,3549 4819,3549 4819,3368 4813,3362" stroke="#90c4e4" fill="none"/>
 <polyline points="4813,3362 4813,3368" stroke="#90c4e4" fill="none"/>
 <polyline points="4819,3368 4813,3368" stroke="#90c4e4" fill="none"/>
 <text fill="#000000" font-family="Arial" font-size="12"
  <tspan x="4240" y="3389">▲</tspan>
  <tspan x="4240" y="3401">LISTED.Plugin.IoDatastorage</tspan>
  <tspan x="4240" y="3437">- string_Data: string= &quot;&quot;</tspan>
  <tspan x="4240" y="3461">+ string_IoDataStorage_ReadDataFromStorage (string_Path: string )</tspan>
  <tspan x="4240" y="3473">+ int_IoDatastorage_WriteDataToStorage (string_Data: string ,string_Path: string )</tspan>
  <tspan x="4240" y="3485">+ IoDatastorage ()</tspan>
  <tspan x="4240" y="3497"></tspan></text>
 <polygon points="4207,3248 3483,3248 3483,3663 4213,3663 4213,3254 4207,3248" stroke="#90c4e4" fill="none"/>
 <polyline points="4207,3248 4207,3254" stroke="#90c4e4" fill="none"/>
 <polyline points="4213,3254 4207,3254" stroke="#90c4e4" fill="none"/>
 <text fill="#000000" font-family="Arial" font-size="12"
  <tspan x="3491" y="3275">▲</tspan>
  <tspan x="3491" y="3287">LISTED.Plugin.Storage</tspan>
  <tspan x="3491" y="3323">+ string_WriteIntoDatabase: string</tspan>
  <tspan x="3491" y="3335">+ s_PathTextfile: string= MyPath</tspan>
  <tspan x="3491" y="3347">+ s_PathExcelfile: string</tspan>
  <tspan x="3491" y="3359">+ s_PathDatabase: string</tspan>
  <tspan x="3491" y="3371">+ myLocalName: string</tspan>
  <tspan x="3491" y="3383">+ myLocalDescription: string</tspan>
  <tspan x="3491" y="3395">+ myLocalDate: DateTime</tspan>
  <tspan x="3491" y="3407">+ myLocalAlarm: bool</tspan>
  <tspan x="3491" y="3419">+ myGui1: Gui1= new Gui1()</tspan>
  <tspan x="3491" y="3431">+ listNum: int= 1</tspan>
  <tspan x="3491" y="3443">+ MyPath: string= Environment.GetFolderPath(Environment.SpecialFolder.Desktop)+&quot;\DataStorage.txt&quot;</tspan>
  <tspan x="3491" y="3455">+ Count: int</tspan>
  <tspan x="3491" y="3467">+ ll_Tabs: LinkedList&lt;int&gt;= new LinkedList&lt;int&gt;(ai_TabsList)</tspan>
  <tspan x="3491" y="3479">- ai_TabsList: int[]= {0,1,2,3,4,5,6,7,8,9}</tspan>
  <tspan x="3491" y="3503">+ CreateFileStorage ()</tspan>
  <tspan x="3491" y="3515">+ Storage ()</tspan>
  <tspan x="3491" y="3527"></tspan></text>
 <polygon points="3459,3390 3237,3390 3237,3520 3465,3520 3465,3396 3459,3390" stroke="#90c4e4" fill="none"/>
 <polyline points="3459,3390 3459,3396" stroke="#90c4e4" fill="none"/>
 <polyline points="3465,3396 3459,3396" stroke="#90c4e4" fill="none"/>
 <text fill="#000000" font-family="Arial" font-size="12"
  <tspan x="3245" y="3417">▲</tspan>
  <tspan x="3245" y="3429">LISTED.Plugin.Tab</tspan>
  <tspan x="3245" y="3477">+ Tab (button_ForTab: Button )</tspan>
  <tspan x="3245" y="3489"></tspan></text>
 <polygon points="3213,3324 2467,3324 2467,3587 3219,3587 3219,3330 3213,3324" stroke="#90c4e4" fill="none"/>
 <polyline points="3213,3324 3213,3330" stroke="#90c4e4" fill="none"/>
 <polyline points="3219,3330 3213,3330" stroke="#90c4e4" fill="none"/>
 <text fill="#000000" font-family="Arial" font-size="12"
  <tspan x="2475" y="3351">▲</tspan>
  <tspan x="2475" y="3363">LISTED.Plugin.TabsControl</tspan>
  <tspan x="2475" y="3399">+ array_TabList: String[,]= new String[3,10]</tspan>
  <tspan x="2475" y="3423">+ v_TabControl_ManageTab (struct_ForTab: TabsControl )</tspan>
  <tspan x="2475" y="3435">+ v_TabControl_ManageArrayOrder (int_TabIndex: int )</tspan>
  <tspan x="2475" y="3447">+ v_TabControl_DeleteTabFromArray (int_TabIndex: int )</tspan>
  <tspan x="2475" y="3459">+ v_TabControl_CreateNewTab (TabToCreate: TabPage ,TabName: string )</tspan>
  <tspan x="2475" y="3471">+ i_TabControl_SetTabToTabArray (struct_ForTab: TabsControl ,int_TabIndexNew: int ,int_TabIndexOld: int )</tspan>
  <tspan x="2475" y="3483">+ i_TabControl_ReturnTabIndex (struct_ForTab: TabsControl )</tspan>
  <tspan x="2475" y="3495">+ TabsControl ()</tspan>
  <tspan x="2475" y="3507"></tspan></text>
 <polygon points="2443,3333 2118,3333 2118,3577 2449,3577 2449,3339 2443,3333" stroke="#90c4e4" fill="none"/>
 <polyline points="2443,3333 2443,3339" stroke="#90c4e4" fill="none"/>
 <polyline points="2449,3339 2443,3339" stroke="#90c4e4" fill="none"/>
 <text fill="#000000" font-family="Arial" font-size="12"
  <tspan x="2126" y="3360">▲</tspan>
  <tspan x="2126" y="3372">LISTED.Plugin.UserLogin</tspan>
  <tspan x="2126" y="3408">+ s_UserId: string</tspan>
  <tspan x="2126" y="3420">+ s_UserLogin: string= &quot;Model\UserLogin.txt&quot;</tspan>
  <tspan x="2126" y="3444">+ SetUserActiveById ()</tspan>
  <tspan x="2126" y="3456">+ GetUserByWindowsId ()</tspan>
  <tspan x="2126" y="3468">+ DeleteUserById ()</tspan>
  <tspan x="2126" y="3480">+ ChangeUserDataById ()</tspan>
  <tspan x="2126" y="3492">+ UserLogin ()</tspan>
  <tspan x="2126" y="3504"></tspan></text>
 <polygon points="2229,1163 1774,1163 1774,1445 2235,1445 2235,1169 2229,1163" stroke="#90c4e4" fill="none"/>
 <polyline points="2229,1163 2229,1169" stroke="#90c4e4" fill="none"/>
 <polyline points="2235,1169 2229,1169" stroke="#90c4e4" fill="none"/>
 <text fill="#000000" font-family="Arial" font-size="12"
  <tspan x="1782" y="1202">System.Object</tspan>
  <tspan x="1782" y="1214">△</tspan>
  <tspan x="1782" y="1250">+ ReferenceEquals (objA: System.Object ,objB: System.Object )</tspan>
  <tspan x="1782" y="1262">+ Equals (objA: System.Object ,objB: System.Object )</tspan>
  <tspan x="1782" y="1274">+ ToString ()</tspan>
  <tspan x="1782" y="1286">+ Object ()</tspan>
  <tspan x="1782" y="1298">+ GetType ()</tspan>
  <tspan x="1782" y="1310">+ GetHashCode ()</tspan>
  <tspan x="1782" y="1322">+ Equals (obj: System.Object )</tspan>
  <tspan x="1782" y="1334"># MemberwiseClone ()</tspan>
  <tspan x="1782" y="1346"># Finalize ()</tspan>
  <tspan x="1782" y="1358"></tspan></text>
 <polyline points="1275,3390 1278,3341 1282,3282 1289,3213 1297,3137 1307,3055 1319,2969 1334,2880 1351,2791 1371,2702 1395,2616 1438,2482 1488,2347 1542,2213 1599,2082 1657,1955 1716,1835 1773,1722 1827,1619 1876,1528 1920,1450" stroke="#4e8cb9" fill="none"/>
 <polygon points="1918,1449 1922,1445 1921,1450 1918,1449" stroke="#4e8cb9" fill="#4e8cb9"/>
 <polyline points="1062,3390 1061,3341 1060,3281 1061,3212 1064,3135 1069,3053 1078,2966 1090,2877 1106,2788 1127,2701 1153,2616 1208,2476 1273,2337 1346,2200 1424,2069 1505,1943 1586,1824 1666,1713 1743,1613 1814,1525 1877,1449" stroke="#4e8cb9" fill="none"/>
 <polygon points="1876,1448 1880,1445 1878,1450 1876,1448" stroke="#4e8cb9" fill="#4e8cb9"/>
 <polyline points="759,3362 768,3309 779,3247 793,3178 810,3103 830,3024 853,2942 879,2858 908,2775 941,2694 978,2616 1055,2475 1140,2335 1231,2199 1327,2067 1425,1941 1522,1822 1616,1712 1705,1613 1787,1524 1859,1449" stroke="#4e8cb9" fill="none"/>
 <polygon points="1858,1447 1863,1445 1861,1450 1858,1447" stroke="#4e8cb9" fill="#4e8cb9"/>
 <polyline points="281,3352 289,3298 299,3235 312,3165 328,3090 348,3011 372,2930 400,2848 433,2768 470,2690 513,2616 620,2462 739,2315 868,2174 1004,2041 1142,1917 1281,1802 1416,1696 1545,1602 1664,1519 1770,1448" stroke="#4e8cb9" fill="none"/>
 <polygon points="1770,1446 1775,1445 1771,1449 1770,1446" stroke="#4e8cb9" fill="#4e8cb9"/>
 <polyline points="2004,3390 2004,3276 2004,3116 2004,2922 2004,2703 2004,2469 2004,2232 2004,2001 2004,1786 2004,1599 2004,1450" stroke="#4e8cb9" fill="none"/>
 <polygon points="2002,1450 2004,1445 2006,1450 2002,1450" stroke="#4e8cb9" fill="#4e8cb9"/>
 <polygon points="6049,4 5015,4 5015,2604 6055,2604 6055,10 6049,4" stroke="#90c4e4" fill="none"/>
 <polyline points="6049,4 6049,10" stroke="#90c4e4" fill="none"/>
 <polyline points="6055,10 6049,10" stroke="#90c4e4" fill="none"/>
 <text fill="#000000" font-family="Arial" font-size="12"
  <tspan x="5023" y="31">△</tspan>
  <tspan x="5023" y="43">System.Windows.Forms.Form</tspan>
  <tspan x="5023" y="55">△</tspan>
  <tspan x="5023" y="79">+ WindowState: System.Windows.Forms.FormWindowState</tspan>
  <tspan x="5023" y="91">+ TransparencyKey: System.Drawing.Color</tspan>
  <tspan x="5023" y="103">+ TopMost: System.Boolean</tspan>
  <tspan x="5023" y="115">+ TopLevel: System.Boolean</tspan>
  <tspan x="5023" y="127">+ Text: System.String</tspan>
  <tspan x="5023" y="139">+ TabStop: System.Boolean</tspan>
  <tspan x="5023" y="151">+ TabIndex: System.Int32</tspan>
  <tspan x="5023" y="163">+ StartPosition: System.Windows.Forms.FormStartPosition</tspan>
  <tspan x="5023" y="175">+ SizeGripStyle: System.Windows.Forms.SizeGripStyle</tspan>
  <tspan x="5023" y="187">+ Size: System.Drawing.Size</tspan>
  <tspan x="5023" y="199">+ ShowInTaskbar: System.Boolean</tspan>
  <tspan x="5023" y="211">+ ShowIcon: System.Boolean</tspan>
  <tspan x="5023" y="223">+ RightToLeftLayout: System.Boolean</tspan>
  <tspan x="5023" y="235">+ RestoreBounds: System.Drawing.Rectangle</tspan>
  <tspan x="5023" y="247">+ Owner: System.Windows.Forms.Form</tspan>
  <tspan x="5023" y="259">+ OwnedForms: System.Windows.Forms.Form[]</tspan>
  <tspan x="5023" y="271">+ Opacity: System.Double</tspan>
  <tspan x="5023" y="283">+ Modal: System.Boolean</tspan>
  <tspan x="5023" y="295">+ MinimumSize: System.Drawing.Size</tspan>
  <tspan x="5023" y="307">+ MinimizeBox: System.Boolean</tspan>
  <tspan x="5023" y="319">+ MergedMenu: System.Windows.Forms.MainMenu</tspan>
  <tspan x="5023" y="331">+ Menu: System.Windows.Forms.MainMenu</tspan>
  <tspan x="5023" y="343">+ MdiParent: System.Windows.Forms.Form</tspan>
  <tspan x="5023" y="355">+ MdiChildren: System.Windows.Forms.Form[]</tspan>
  <tspan x="5023" y="367">+ MaximumSize: System.Drawing.Size</tspan>
  <tspan x="5023" y="379">+ MaximizeBox: System.Boolean</tspan>
  <tspan x="5023" y="391">+ Margin: System.Windows.Forms.Padding</tspan>
  <tspan x="5023" y="403">+ MainMenuStrip: System.Windows.Forms.MenuStrip</tspan>
  <tspan x="5023" y="415">+ Location: System.Drawing.Point</tspan>
  <tspan x="5023" y="427">+ KeyPreview: System.Boolean</tspan>
  <tspan x="5023" y="439">+ IsRestrictedWindow: System.Boolean</tspan>
  <tspan x="5023" y="451">+ IsMdiContainer: System.Boolean</tspan>
  <tspan x="5023" y="463">+ IsMdiChild: System.Boolean</tspan>
  <tspan x="5023" y="475">+ Icon: System.Drawing.Icon</tspan>
  <tspan x="5023" y="487">+ HelpButton: System.Boolean</tspan>
  <tspan x="5023" y="499">+ FormBorderStyle: System.Windows.Forms.FormBorderStyle</tspan>
  <tspan x="5023" y="511">+ DialogResult: System.Windows.Forms.DialogResult</tspan>
  <tspan x="5023" y="523">+ DesktopLocation: System.Drawing.Point</tspan>
  <tspan x="5023" y="535">+ DesktopBounds: System.Drawing.Rectangle</tspan>
  <tspan x="5023" y="547">+ ControlBox: System.Boolean</tspan>
  <tspan x="5023" y="559">+ ClientSize: System.Drawing.Size</tspan>
  <tspan x="5023" y="571">+ CancelButton: System.Windows.Forms.IButtonControl</tspan>
  <tspan x="5023" y="583">+ BackColor: System.Drawing.Color</tspan>
  <tspan x="5023" y="595">+ AutoValidate: System.Windows.Forms.AutoValidate</tspan>
  <tspan x="5023" y="607">+ AutoSizeMode: System.Windows.Forms.AutoSizeMode</tspan>
  <tspan x="5023" y="619">+ AutoSize: System.Boolean</tspan>
  <tspan x="5023" y="631">+ AutoScroll: System.Boolean</tspan>
  <tspan x="5023" y="643">+ AutoScaleBaseSize: System.Drawing.Size</tspan>
  <tspan x="5023" y="655">+ AutoScale: System.Boolean</tspan>
  <tspan x="5023" y="667">+ AllowTransparency: System.Boolean</tspan>
  <tspan x="5023" y="679">+ ActiveMdiChild: System.Windows.Forms.Form</tspan>
  <tspan x="5023" y="691">+ ActiveForm: System.Windows.Forms.Form</tspan>
  <tspan x="5023" y="703">+ AcceptButton: System.Windows.Forms.IButtonControl</tspan>
  <tspan x="5023" y="715"># ShowWithoutActivation: System.Boolean</tspan>
  <tspan x="5023" y="727"># MaximizedBounds: System.Drawing.Rectangle</tspan>
  <tspan x="5023" y="739"># DefaultSize: System.Drawing.Size</tspan>
  <tspan x="5023" y="751"># DefaultImeMode: System.Windows.Forms.ImeMode</tspan>
  <tspan x="5023" y="763"># CreateParams: System.Windows.Forms.CreateParams</tspan>
  <tspan x="5023" y="787">+ GetAutoScaleSize (font: System.Drawing.Font )</tspan>
  <tspan x="5023" y="799">+ ValidateChildren (validationConstraints: System.Windows.Forms.ValidationConstraints )</tspan>
  <tspan x="5023" y="811">+ ToString ()</tspan>
  <tspan x="5023" y="823">+ ShowDialog (owner: System.Windows.Forms.IWin32Window )</tspan>
  <tspan x="5023" y="835">+ Show (owner: System.Windows.Forms.IWin32Window )</tspan>
  <tspan x="5023" y="847">+ SetDesktopLocation (x: System.Int32 ,y: System.Int32 )</tspan>
  <tspan x="5023" y="859">+ SetDesktopBounds (x: System.Int32 ,y: System.Int32 ,width: System.Int32 ,height: System.Int32 )</tspan>
  <tspan x="5023" y="871">+ RemoveOwnedForm (ownedForm: System.Windows.Forms.Form )</tspan>
  <tspan x="5023" y="883">+ LayoutMdi (value: System.Windows.Forms.MdiLayout )</tspan>
  <tspan x="5023" y="895">+ Form ()</tspan>
  <tspan x="5023" y="907">+ Close ()</tspan>
  <tspan x="5023" y="919">+ AddOwnedForm (ownedForm: System.Windows.Forms.Form )</tspan>
  <tspan x="5023" y="931">+ Activate ()</tspan>
  <tspan x="5023" y="943"># WndProc (m: System.Windows.Forms.Message )</tspan>
  <tspan x="5023" y="955"># UpdateDefaultButton ()</tspan>
  <tspan x="5023" y="967"># SetVisibleCore (value: System.Boolean )</tspan>
  <tspan x="5023" y="979"># SetClientSizeCore (x: System.Int32 ,y: System.Int32 )</tspan>
  <tspan x="5023" y="991"># SetBoundsCore (x: System.Int32 ,y: System.Int32 ,width: System.Int32 ,height: System.Int32 ,specified: System.Windows.Forms.BoundsSpecified )</tspan>
  <tspan x="5023" y="1003"># Select (directed: System.Boolean ,forward: System.Boolean )</tspan>
  <tspan x="5023" y="1015"># ScaleCore (x: System.Single ,y: System.Single )</tspan>
  <tspan x="5023" y="1027"># ScaleControl (factor: System.Drawing.SizeF ,specified: System.Windows.Forms.BoundsSpecified )</tspan>
  <tspan x="5023" y="1039"># ProcessTabKey (forward: System.Boolean )</tspan>
  <tspan x="5023" y="1051"># ProcessKeyPreview (m: System.Windows.Forms.Message )</tspan>
  <tspan x="5023" y="1063"># ProcessDialogKey (keyData: System.Windows.Forms.Keys )</tspan>
  <tspan x="5023" y="1075"># ProcessDialogChar (charCode: System.Char )</tspan>
  <tspan x="5023" y="1087"># ProcessCmdKey (msg: System.Windows.Forms.Message ,keyData: System.Windows.Forms.Keys )</tspan>
  <tspan x="5023" y="1099"># OnVisibleChanged (e: System.EventArgs )</tspan>
  <tspan x="5023" y="1111"># OnTextChanged (e: System.EventArgs )</tspan>
  <tspan x="5023" y="1123"># OnStyleChanged (e: System.EventArgs )</tspan>
  <tspan x="5023" y="1135"># OnShown (e: System.EventArgs )</tspan>
  <tspan x="5023" y="1147"># OnRightToLeftLayoutChanged (e: System.EventArgs )</tspan>
  <tspan x="5023" y="1159"># OnResizeEnd (e: System.EventArgs )</tspan>
  <tspan x="5023" y="1171"># OnResizeBegin (e: System.EventArgs )</tspan>
  <tspan x="5023" y="1183"># OnResize (e: System.EventArgs )</tspan>
  <tspan x="5023" y="1195"># OnPaint (e: System.Windows.Forms.PaintEventArgs )</tspan>
  <tspan x="5023" y="1207"># OnMinimumSizeChanged (e: System.EventArgs )</tspan>
  <tspan x="5023" y="1219"># OnMenuStart (e: System.EventArgs )</tspan>
  <tspan x="5023" y="1231"># OnMenuComplete (e: System.EventArgs )</tspan>
  <tspan x="5023" y="1243"># OnMdiChildActivate (e: System.EventArgs )</tspan>
  <tspan x="5023" y="1255"># OnMaximumSizeChanged (e: System.EventArgs )</tspan>
  <tspan x="5023" y="1267"># OnMaximizedBoundsChanged (e: System.EventArgs )</tspan>
  <tspan x="5023" y="1279"># OnLoad (e: System.EventArgs )</tspan>
  <tspan x="5023" y="1291"># OnLayout (levent: System.Windows.Forms.LayoutEventArgs )</tspan>
  <tspan x="5023" y="1303"># OnInputLanguageChanging (e: System.Windows.Forms.InputLanguageChangingEventArgs )</tspan>
  <tspan x="5023" y="1315"># OnInputLanguageChanged (e: System.Windows.Forms.InputLanguageChangedEventArgs )</tspan>
  <tspan x="5023" y="1327"># OnHelpButtonClicked (e: System.ComponentModel.CancelEventArgs )</tspan>
  <tspan x="5023" y="1339"># OnHandleDestroyed (e: System.EventArgs )</tspan>
  <tspan x="5023" y="1351"># OnHandleCreated (e: System.EventArgs )</tspan>
  <tspan x="5023" y="1363"># OnGetDpiScaledSize (deviceDpiOld: System.Int32 ,deviceDpiNew: System.Int32 ,desiredSize: System.Drawing.Size )</tspan>
  <tspan x="5023" y="1375"># OnFormClosing (e: System.Windows.Forms.FormClosingEventArgs )</tspan>
  <tspan x="5023" y="1387"># OnFormClosed (e: System.Windows.Forms.FormClosedEventArgs )</tspan>
  <tspan x="5023" y="1399"># OnFontChanged (e: System.EventArgs )</tspan>
  <tspan x="5023" y="1411"># OnEnter (e: System.EventArgs )</tspan>
  <tspan x="5023" y="1423"># OnEnabledChanged (e: System.EventArgs )</tspan>
  <tspan x="5023" y="1435"># OnDpiChanged (e: System.Windows.Forms.DpiChangedEventArgs )</tspan>
  <tspan x="5023" y="1447"># OnDeactivate (e: System.EventArgs )</tspan>
  <tspan x="5023" y="1459"># OnCreateControl ()</tspan>
  <tspan x="5023" y="1471"># OnClosing (e: System.ComponentModel.CancelEventArgs )</tspan>
  <tspan x="5023" y="1483"># OnClosed (e: System.EventArgs )</tspan>
  <tspan x="5023" y="1495"># OnBackgroundImageLayoutChanged (e: System.EventArgs )</tspan>
  <tspan x="5023" y="1507"># OnBackgroundImageChanged (e: System.EventArgs )</tspan>
  <tspan x="5023" y="1519"># OnActivated (e: System.EventArgs )</tspan>
  <tspan x="5023" y="1531"># GetScaledBounds (bounds: System.Drawing.Rectangle ,factor: System.Drawing.SizeF ,specified: System.Windows.Forms.BoundsSpecified )</tspan>
  <tspan x="5023" y="1543"># Dispose (disposing: System.Boolean )</tspan>
  <tspan x="5023" y="1555"># DefWndProc (m: System.Windows.Forms.Message )</tspan>
  <tspan x="5023" y="1567"># CreateHandle ()</tspan>
  <tspan x="5023" y="1579"># CreateControlsInstance ()</tspan>
  <tspan x="5023" y="1591"># CenterToScreen ()</tspan>
  <tspan x="5023" y="1603"># CenterToParent ()</tspan>
  <tspan x="5023" y="1615"># ApplyAutoScaling ()</tspan>
  <tspan x="5023" y="1627"># AdjustFormScrollbars (displayScrollbars: System.Boolean )</tspan>
  <tspan x="5023" y="1639"># ActivateMdiChild (form: System.Windows.Forms.Form )</tspan>
  <tspan x="5023" y="1651"># ProcessMnemonic (charCode: System.Char )</tspan>
  <tspan x="5023" y="1663"></tspan></text>
 <polyline points="5946,2640 5945,2637 5944,2634 5943,2631 5942,2628 5942,2625 5941,2621 5940,2618 5939,2615 5938,2612 5937,2609" stroke="#4e8cb9" fill="none"/>
 <polygon points="5935,2609 5935,2604 5938,2608 5935,2609" stroke="#4e8cb9" fill="#4e8cb9"/>
 <polyline points="5535,3210 5535,3161 5535,3110 5535,3055 5535,2997 5535,2937 5535,2875 5535,2811 5535,2745 5535,2678 5535,2609" stroke="#4e8cb9" fill="none"/>
 <polygon points="5533,2609 5535,2604 5537,2609 5533,2609" stroke="#4e8cb9" fill="#4e8cb9"/>
 <polyline points="5118,3248 5129,3198 5140,3145 5153,3087 5166,3027 5179,2963 5194,2896 5208,2827 5224,2756 5239,2683 5255,2609" stroke="#4e8cb9" fill="none"/>
 <polygon points="5254,2609 5256,2604 5257,2609 5254,2609" stroke="#4e8cb9" fill="#4e8cb9"/>
 <polyline points="4512,3362 4503,3307 4490,3242 4473,3171 4453,3093 4428,3012 4398,2929 4363,2846 4322,2765 4275,2688 4222,2616 4045,2424 3847,2248 3636,2087 3416,1941 3193,1810 2973,1695 2762,1594 2566,1509 2390,1438 2240,1383" stroke="#4e8cb9" fill="none"/>
 <polygon points="2239,1384 2235,1381 2240,1381 2239,1384" stroke="#4e8cb9" fill="#4e8cb9"/>
 <polyline points="3783,3248 3763,3192 3741,3133 3716,3070 3689,3005 3659,2938 3627,2871 3592,2805 3555,2740 3516,2676 3474,2616 3358,2468 3233,2324 3100,2185 2962,2052 2824,1927 2687,1810 2554,1703 2429,1606 2315,1521 2214,1448" stroke="#4e8cb9" fill="none"/>
 <polygon points="2213,1449 2210,1445 2215,1446 2213,1449" stroke="#4e8cb9" fill="#4e8cb9"/>
 <polyline points="3354,3390 3355,3340 3355,3279 3353,3209 3349,3132 3341,3048 3329,2962 3313,2873 3291,2785 3263,2698 3228,2616 3148,2466 3054,2321 2951,2182 2841,2049 2727,1924 2611,1808 2498,1701 2389,1605 2288,1520 2198,1448" stroke="#4e8cb9" fill="none"/>
 <polygon points="2197,1450 2194,1445 2199,1447 2197,1450" stroke="#4e8cb9" fill="#4e8cb9"/>
 <polyline points="2792,3324 2740,3190 2674,3022 2598,2827 2515,2615 2429,2394 2343,2172 2259,1958 2182,1761 2115,1589 2061,1450" stroke="#4e8cb9" fill="none"/>
 <polygon points="2059,1451 2059,1445 2062,1449 2059,1451" stroke="#4e8cb9" fill="#4e8cb9"/>
 <polyline points="2267,3333 2250,3201 2228,3033 2203,2839 2175,2626 2147,2403 2118,2179 2090,1963 2064,1764 2041,1590 2023,1450" stroke="#4e8cb9" fill="none"/>
 <polygon points="2021,1450 2022,1445 2025,1450 2021,1450" stroke="#4e8cb9" fill="#4e8cb9"/>
 <polyline points="1682,3257 1706,3113 1734,2941 1766,2749 1799,2544 1834,2334 1868,2125 1902,1925 1932,1741 1958,1580 1980,1450" stroke="#4e8cb9" fill="none"/>
 <polygon points="1978,1450 1981,1445 1982,1450 1978,1450" stroke="#4e8cb9" fill="#4e8cb9"/>
</svg>
