<?xml version="1.0"?>
<svg width="8134" height="4502" xmlns="http://www.w3.org/2000/svg" version="1.1">
 <polygon points="4,4498 4,4 8130,4 8130,4498 4,4498" stroke="#fffffe00" fill="none"/>
 <polygon points="24,4490 250,4490 865,4490 1771,4490 2870,4490 4067,4490 5264,4490 6363,4490 7269,4490 7884,4490 8110,4490 8112,4490 8114,4489 8115,4489 8117,4488 8118,4486 8120,4485 8121,4483 8121,4482 8122,4480 8122,4478 8122,4426 8122,4286 8122,4078 8122,3827 8122,3553 8122,3279 8122,3028 8122,2820 8122,2680 8122,2628 8122,2626 8121,2624 8121,2623 8120,2621 8118,2620 8117,2618 8115,2617 8114,2617 8112,2616 8110,2616 7884,2616 7269,2616 6363,2616 5264,2616 4067,2616 2870,2616 1771,2616 865,2616 250,2616 24,2616 22,2616 20,2617 19,2617 17,2618 16,2620 14,2621 13,2623 13,2624 12,2626 12,2628 12,2680 12,2820 12,3028 12,3279 12,3553 12,3827 12,4078 12,4286 12,4426 12,4478 12,4480 13,4482 13,4483 14,4485 16,4486 17,4488 19,4489 20,4489 22,4490 24,4490" stroke="#afd870" fill="none"/>
 <text fill="#afd870" font-family="Arial" font-size="12">
  <tspan x="4003" y="4440">△</tspan>
  <tspan x="4003" y="4452">Directory Structure</tspan>
  <tspan x="4003" y="4464"></tspan></text>
 <polygon points="32,4417 258,4417 871,4417 1775,4417 2873,4417 4067,4417 5261,4417 6359,4417 7263,4417 7876,4417 8102,4417 8104,4417 8106,4416 8107,4416 8109,4415 8110,4413 8112,4412 8113,4410 8113,4409 8114,4407 8114,4405 8114,4355 8114,4221 8114,4023 8114,3782 8114,3521 8114,3259 8114,3018 8114,2820 8114,2686 8114,2636 8114,2634 8113,2632 8113,2631 8112,2629 8110,2628 8109,2626 8107,2625 8106,2625 8104,2624 8102,2624 7876,2624 7263,2624 6359,2624 5261,2624 4067,2624 2873,2624 1775,2624 871,2624 258,2624 32,2624 30,2624 28,2625 27,2625 25,2626 24,2628 22,2629 21,2631 21,2632 20,2634 20,2636 20,2686 20,2820 20,3018 20,3259 20,3521 20,3782 20,4023 20,4221 20,4355 20,4405 20,4407 21,4409 21,4410 22,4412 24,4413 25,4415 27,4416 28,4416 30,4417 32,4417" stroke="#fcad56" fill="none"/>
 <text fill="#fcad56" font-family="Arial" font-size="12">
  <tspan x="4040" y="4367">▲</tspan>
  <tspan x="4040" y="4379">LISTED</tspan>
  <tspan x="4040" y="4391"></tspan></text>
 <polygon points="7656,3593 7668,3593 7702,3593 7751,3593 7810,3593 7875,3593 7940,3593 7999,3593 8048,3593 8082,3593 8094,3593 8096,3593 8098,3592 8099,3592 8101,3591 8102,3589 8104,3588 8105,3586 8105,3585 8106,3583 8106,3581 8106,3576 8106,3562 8106,3541 8106,3515 8106,3488 8106,3460 8106,3434 8106,3413 8106,3399 8106,3394 8106,3392 8105,3390 8105,3389 8104,3387 8102,3386 8101,3384 8099,3383 8098,3383 8096,3382 8094,3382 8082,3382 8048,3382 7999,3382 7940,3382 7875,3382 7810,3382 7751,3382 7702,3382 7668,3382 7656,3382 7654,3382 7652,3383 7651,3383 7649,3384 7648,3386 7646,3387 7645,3389 7645,3390 7644,3392 7644,3394 7644,3399 7644,3413 7644,3434 7644,3460 7644,3488 7644,3515 7644,3541 7644,3562 7644,3576 7644,3581 7644,3583 7645,3585 7645,3586 7646,3588 7648,3589 7649,3591 7651,3592 7652,3592 7654,3593 7656,3593" stroke="#569f38" fill="none"/>
 <text fill="#569f38" font-family="Arial" font-size="12">
  <tspan x="7859" y="3543">▲</tspan>
  <tspan x="7859" y="3555">Kern</tspan>
  <tspan x="7859" y="3567"></tspan></text>
 <polygon points="8092,3390 7885,3390 7885,3520 8098,3520 8098,3396 8092,3390" stroke="#90c4e4" fill="none"/>
 <polyline points="8092,3390 8092,3396" stroke="#90c4e4" fill="none"/>
 <polyline points="8098,3396 8092,3396" stroke="#90c4e4" fill="none"/>
 <text fill="#000000" font-family="Arial" font-size="12"
  <tspan x="7893" y="3417">▲</tspan>
  <tspan x="7893" y="3429">Test_LISTED.Kern.ListView</tspan>
  <tspan x="7893" y="3489"></tspan></text>
 <polygon points="7860,3390 7652,3390 7652,3520 7866,3520 7866,3396 7860,3390" stroke="#90c4e4" fill="none"/>
 <polyline points="7860,3390 7860,3396" stroke="#90c4e4" fill="none"/>
 <polyline points="7866,3396 7860,3396" stroke="#90c4e4" fill="none"/>
 <text fill="#000000" font-family="Arial" font-size="12"
  <tspan x="7660" y="3417">▲</tspan>
  <tspan x="7660" y="3429">Test_LISTED.Kern.Program</tspan>
  <tspan x="7660" y="3477">- Main ()</tspan>
  <tspan x="7660" y="3489"></tspan></text>
 <polygon points="7148,3726 7161,3726 7198,3726 7251,3726 7316,3726 7386,3726 7456,3726 7521,3726 7574,3726 7611,3726 7624,3726 7626,3726 7628,3725 7629,3725 7631,3724 7632,3722 7634,3721 7635,3719 7635,3718 7636,3716 7636,3714 7636,3701 7636,3667 7636,3616 7636,3555 7636,3488 7636,3420 7636,3359 7636,3308 7636,3274 7636,3261 7636,3259 7635,3257 7635,3256 7634,3254 7632,3253 7631,3251 7629,3250 7628,3250 7626,3249 7624,3249 7611,3249 7574,3249 7521,3249 7456,3249 7386,3249 7316,3249 7251,3249 7198,3249 7161,3249 7148,3249 7146,3249 7144,3250 7143,3250 7141,3251 7140,3253 7138,3254 7137,3256 7137,3257 7136,3259 7136,3261 7136,3274 7136,3308 7136,3359 7136,3420 7136,3488 7136,3555 7136,3616 7136,3667 7136,3701 7136,3714 7136,3716 7137,3718 7137,3719 7138,3721 7140,3722 7141,3724 7143,3725 7144,3725 7146,3726 7148,3726" stroke="#569f38" fill="none"/>
 <text fill="#569f38" font-family="Arial" font-size="12">
  <tspan x="7350" y="3676">▲</tspan>
  <tspan x="7350" y="3688">Properties</tspan>
  <tspan x="7350" y="3700"></tspan></text>
 <polygon points="7622,3257 7144,3257 7144,3653 7628,3653 7628,3263 7622,3257" stroke="#90c4e4" fill="none"/>
 <polyline points="7622,3257 7622,3263" stroke="#90c4e4" fill="none"/>
 <polyline points="7628,3263 7622,3263" stroke="#90c4e4" fill="none"/>
 <text fill="#000000" font-family="Arial" font-size="12"
  <tspan x="7152" y="3284">▲</tspan>
  <tspan x="7152" y="3296">LISTED.Properties.Resources</tspan>
  <tspan x="7152" y="3332">- resourceMan: global::System.Resources.ResourceManager</tspan>
  <tspan x="7152" y="3344">- resourceCulture: global::System.Globalization.CultureInfo</tspan>
  <tspan x="7152" y="3356">+ user: System.Drawing.Bitmap</tspan>
  <tspan x="7152" y="3368">+ logout: System.Drawing.Bitmap</tspan>
  <tspan x="7152" y="3380">+ home: System.Drawing.Bitmap</tspan>
  <tspan x="7152" y="3392">+ favicon_32x32: System.Drawing.Bitmap</tspan>
  <tspan x="7152" y="3404">+ clipboard: System.Drawing.Bitmap</tspan>
  <tspan x="7152" y="3416">+ calendar: System.Drawing.Bitmap</tspan>
  <tspan x="7152" y="3428">+ apple_touch_icon: System.Drawing.Bitmap</tspan>
  <tspan x="7152" y="3440">+ alarm_clock: System.Drawing.Bitmap</tspan>
  <tspan x="7152" y="3452">+ Upevent: System.Drawing.Bitmap</tspan>
  <tspan x="7152" y="3464">+ ResourceManager: global::System.Resources.ResourceManager</tspan>
  <tspan x="7152" y="3476">+ Highlights: System.Drawing.Bitmap</tspan>
  <tspan x="7152" y="3488">+ Culture: global::System.Globalization.CultureInfo</tspan>
  <tspan x="7152" y="3512">+ Resources ()</tspan>
  <tspan x="7152" y="3524"></tspan></text>
 <polygon points="4688,3660 4756,3660 4941,3660 5212,3660 5543,3660 5902,3660 6261,3660 6592,3660 6863,3660 7048,3660 7116,3660 7118,3660 7120,3659 7121,3659 7123,3658 7124,3656 7126,3655 7127,3653 7127,3652 7128,3650 7128,3648 7128,3639 7128,3615 7128,3579 7128,3535 7128,3488 7128,3441 7128,3397 7128,3361 7128,3337 7128,3328 7128,3326 7127,3324 7127,3323 7126,3321 7124,3320 7123,3318 7121,3317 7120,3317 7118,3316 7116,3316 7048,3316 6863,3316 6592,3316 6261,3316 5902,3316 5543,3316 5212,3316 4941,3316 4756,3316 4688,3316 4686,3316 4684,3317 4683,3317 4681,3318 4680,3320 4678,3321 4677,3323 4677,3324 4676,3326 4676,3328 4676,3337 4676,3361 4676,3397 4676,3441 4676,3488 4676,3535 4676,3579 4676,3615 4676,3639 4676,3648 4676,3650 4677,3652 4677,3653 4678,3655 4680,3656 4681,3658 4683,3659 4684,3659 4686,3660 4688,3660" stroke="#569f38" fill="none"/>
 <text fill="#569f38" font-family="Arial" font-size="12">
  <tspan x="5874" y="3610">▲</tspan>
  <tspan x="5874" y="3622">Adapter</tspan>
  <tspan x="5874" y="3634"></tspan></text>
 <polygon points="7114,3390 6862,3390 6862,3520 7120,3520 7120,3396 7114,3390" stroke="#90c4e4" fill="none"/>
 <polyline points="7114,3390 7114,3396" stroke="#90c4e4" fill="none"/>
 <polyline points="7120,3396 7114,3396" stroke="#90c4e4" fill="none"/>
 <text fill="#000000" font-family="Arial" font-size="12"
  <tspan x="6870" y="3417">▲</tspan>
  <tspan x="6870" y="3429">Test_LISTED.Adapter.ControlGui1</tspan>
  <tspan x="6870" y="3477">+ ControlGui1 ()</tspan>
  <tspan x="6870" y="3489"></tspan></text>
 <polygon points="6838,3390 6650,3390 6650,3520 6844,3520 6844,3396 6838,3390" stroke="#90c4e4" fill="none"/>
 <polyline points="6838,3390 6838,3396" stroke="#90c4e4" fill="none"/>
 <polyline points="6844,3396 6838,3396" stroke="#90c4e4" fill="none"/>
 <text fill="#000000" font-family="Arial" font-size="12"
  <tspan x="6658" y="3417">▲</tspan>
  <tspan x="6658" y="3429">Test_LISTED.Adapter.Init</tspan>
  <tspan x="6658" y="3477">+ Init ()</tspan>
  <tspan x="6658" y="3489"></tspan></text>
 <polygon points="6626,3362 6186,3362 6186,3549 6632,3549 6632,3368 6626,3362" stroke="#90c4e4" fill="none"/>
 <polyline points="6626,3362 6626,3368" stroke="#90c4e4" fill="none"/>
 <polyline points="6632,3368 6626,3368" stroke="#90c4e4" fill="none"/>
 <text fill="#000000" font-family="Arial" font-size="12"
  <tspan x="6194" y="3389">▲</tspan>
  <tspan x="6194" y="3401">Test_LISTED.Adapter.InputHandler</tspan>
  <tspan x="6194" y="3437">- mydatastorage: IoDatastorage</tspan>
  <tspan x="6194" y="3461">+ int_InputHandler_VerifyUserInput (string_UserInput: String )</tspan>
  <tspan x="6194" y="3473">+ int_InputHandler_CheckDatabase (string_UserInput: String )</tspan>
  <tspan x="6194" y="3485">+ InputHandler ()</tspan>
  <tspan x="6194" y="3497"></tspan></text>
 <polygon points="6162,3352 5701,3352 5701,3558 6168,3558 6168,3358 6162,3352" stroke="#90c4e4" fill="none"/>
 <polyline points="6162,3352 6162,3358" stroke="#90c4e4" fill="none"/>
 <polyline points="6168,3358 6162,3358" stroke="#90c4e4" fill="none"/>
 <text fill="#000000" font-family="Arial" font-size="12"
  <tspan x="5709" y="3379">▲</tspan>
  <tspan x="5709" y="3391">Test_LISTED.Adapter.OutputHandler</tspan>
  <tspan x="5709" y="3427">- myOutputHandler: OutputHandler</tspan>
  <tspan x="5709" y="3439">- myIoDatastorage: IoDatastorage</tspan>
  <tspan x="5709" y="3463">+ v_OutputHandler_SplitDataStream (string_Content: String )</tspan>
  <tspan x="5709" y="3475">+ v_OutputHandler_ReceiveDataStream (string_Content: String )</tspan>
  <tspan x="5709" y="3487">+ OutputHandler ()</tspan>
  <tspan x="5709" y="3499"></tspan></text>
 <polygon points="5676,3390 5454,3390 5454,3520 5682,3520 5682,3396 5676,3390" stroke="#90c4e4" fill="none"/>
 <polyline points="5676,3390 5676,3396" stroke="#90c4e4" fill="none"/>
 <polyline points="5682,3396 5676,3396" stroke="#90c4e4" fill="none"/>
 <text fill="#000000" font-family="Arial" font-size="12"
  <tspan x="5462" y="3417">▲</tspan>
  <tspan x="5462" y="3429">Test_LISTED.Adapter.Tab</tspan>
  <tspan x="5462" y="3477">+ Tab (button_ForTab: Button )</tspan>
  <tspan x="5462" y="3489"></tspan></text>
 <polygon points="5430,3324 4684,3324 4684,3587 5436,3587 5436,3330 5430,3324" stroke="#90c4e4" fill="none"/>
 <polyline points="5430,3324 5430,3330" stroke="#90c4e4" fill="none"/>
 <polyline points="5436,3330 5430,3330" stroke="#90c4e4" fill="none"/>
 <text fill="#000000" font-family="Arial" font-size="12"
  <tspan x="4692" y="3351">▲</tspan>
  <tspan x="4692" y="3363">Test_LISTED.Adapter.TabsControl</tspan>
  <tspan x="4692" y="3399">+ array_TabList: String[,]= new String[3,10]</tspan>
  <tspan x="4692" y="3423">+ v_TabControl_ManageTab (struct_ForTab: TabsControl )</tspan>
  <tspan x="4692" y="3435">+ v_TabControl_ManageArrayOrder (int_TabIndex: int )</tspan>
  <tspan x="4692" y="3447">+ v_TabControl_DeleteTabFromArray (int_TabIndex: int )</tspan>
  <tspan x="4692" y="3459">+ v_TabControl_CreateNewTab (TabToCreate: TabPage ,TabName: string )</tspan>
  <tspan x="4692" y="3471">+ i_TabControl_SetTabToTabArray (struct_ForTab: TabsControl ,int_TabIndexNew: int ,int_TabIndexOld: int )</tspan>
  <tspan x="4692" y="3483">+ i_TabControl_ReturnTabIndex (struct_ForTab: TabsControl )</tspan>
  <tspan x="4692" y="3495">+ TabsControl ()</tspan>
  <tspan x="4692" y="3507"></tspan></text>
 <polygon points="40,4344 169,4344 520,4344 1037,4344 1665,4344 2348,4344 3031,4344 3659,4344 4176,4344 4527,4344 4656,4344 4658,4344 4660,4343 4661,4343 4663,4342 4664,4340 4666,4339 4667,4337 4667,4336 4668,4334 4668,4332 4668,4285 4668,4156 4668,3967 4668,3738 4668,3488 4668,3238 4668,3009 4668,2820 4668,2691 4668,2644 4668,2642 4667,2640 4667,2639 4666,2637 4664,2636 4663,2634 4661,2633 4660,2633 4658,2632 4656,2632 4527,2632 4176,2632 3659,2632 3031,2632 2348,2632 1665,2632 1037,2632 520,2632 169,2632 40,2632 38,2632 36,2633 35,2633 33,2634 32,2636 30,2637 29,2639 29,2640 28,2642 28,2644 28,2691 28,2820 28,3009 28,3238 28,3488 28,3738 28,3967 28,4156 28,4285 28,4332 28,4334 29,4336 29,4337 30,4339 32,4340 33,4342 35,4343 36,4343 38,4344 40,4344" stroke="#569f38" fill="none"/>
 <text fill="#569f38" font-family="Arial" font-size="12">
  <tspan x="2323" y="4294">▲</tspan>
  <tspan x="2323" y="4306">Plugins</tspan>
  <tspan x="2323" y="4318"></tspan></text>
 <polygon points="1828,3248 1360,3248 1360,3663 1834,3663 1834,3254 1828,3248" stroke="#90c4e4" fill="none"/>
 <polyline points="1828,3248 1828,3254" stroke="#90c4e4" fill="none"/>
 <polyline points="1834,3254 1828,3254" stroke="#90c4e4" fill="none"/>
 <text fill="#000000" font-family="Arial" font-size="12"
  <tspan x="1368" y="3275">▲</tspan>
  <tspan x="1368" y="3287">LISTED.Plugin.GuiAlarm</tspan>
  <tspan x="1368" y="3323">- timer: System.Timers.Timer</tspan>
  <tspan x="1368" y="3335">- lblStatus: System.Windows.Forms.Label</tspan>
  <tspan x="1368" y="3347">- label1: System.Windows.Forms.Label</tspan>
  <tspan x="1368" y="3359">- dateTimePickerAlarm: System.Windows.Forms.DateTimePicker</tspan>
  <tspan x="1368" y="3371">- components: System.ComponentModel.IContainer= null</tspan>
  <tspan x="1368" y="3383">- button2: System.Windows.Forms.Button</tspan>
  <tspan x="1368" y="3395">- btnStopAlarm: System.Windows.Forms.Button</tspan>
  <tspan x="1368" y="3407">- btnStartAlarm: System.Windows.Forms.Button</tspan>
  <tspan x="1368" y="3431">+ GuiAlarm ()</tspan>
  <tspan x="1368" y="3443"># Dispose (disposing: bool )</tspan>
  <tspan x="1368" y="3455">- btnStopAlarm_Click (sender: object ,e: EventArgs )</tspan>
  <tspan x="1368" y="3467">- btnStartAlarm_Click (sender: object ,e: EventArgs )</tspan>
  <tspan x="1368" y="3479">- UpdateDataLabel (lbl: Label ,value: string )</tspan>
  <tspan x="1368" y="3491">- Timer_Elapsed (sender: object ,e: ElapsedEventArgs )</tspan>
  <tspan x="1368" y="3503">- InitializeComponent ()</tspan>
  <tspan x="1368" y="3515">- GuiAlarm_Load (sender: object ,e: EventArgs )</tspan>
  <tspan x="1368" y="3527"></tspan></text>
 <polygon points="1336,2640 466,2640 466,4271 1342,4271 1342,2646 1336,2640" stroke="#90c4e4" fill="none"/>
 <polyline points="1336,2640 1336,2646" stroke="#90c4e4" fill="none"/>
 <polyline points="1342,2646 1336,2646" stroke="#90c4e4" fill="none"/>
 <text fill="#000000" font-family="Arial" font-size="12"
  <tspan x="474" y="2667">▲</tspan>
  <tspan x="474" y="2679">Test_LISTED.Gui1</tspan>
  <tspan x="474" y="2715">+ richTextBox6: System.Windows.Forms.RichTextBox</tspan>
  <tspan x="474" y="2727">+ richTextBox1: System.Windows.Forms.RichTextBox</tspan>
  <tspan x="474" y="2739">- userLabel: System.Windows.Forms.Label</tspan>
  <tspan x="474" y="2751">- txtboxUpevent2: System.Windows.Forms.RichTextBox</tspan>
  <tspan x="474" y="2763">- txtboxUpevent1: System.Windows.Forms.RichTextBox</tspan>
  <tspan x="474" y="2775">- txtboxHlights2: System.Windows.Forms.RichTextBox</tspan>
  <tspan x="474" y="2787">- txtboxHlights1: System.Windows.Forms.RichTextBox</tspan>
  <tspan x="474" y="2799">- tabPageMain: System.Windows.Forms.TabPage</tspan>
  <tspan x="474" y="2811">- tabControlMain: System.Windows.Forms.TabControl</tspan>
  <tspan x="474" y="2823">- richTextBox9: System.Windows.Forms.RichTextBox</tspan>
  <tspan x="474" y="2835">- richTextBox8: System.Windows.Forms.RichTextBox</tspan>
  <tspan x="474" y="2847">- richTextBox7: System.Windows.Forms.RichTextBox</tspan>
  <tspan x="474" y="2859">- richTextBox5: System.Windows.Forms.RichTextBox</tspan>
  <tspan x="474" y="2871">- richTextBox4: System.Windows.Forms.RichTextBox</tspan>
  <tspan x="474" y="2883">- richTextBox3: System.Windows.Forms.RichTextBox</tspan>
  <tspan x="474" y="2895">- richTextBox2: System.Windows.Forms.RichTextBox</tspan>
  <tspan x="474" y="2907">- richTextBox10: System.Windows.Forms.RichTextBox</tspan>
  <tspan x="474" y="2919">- pnlNav: System.Windows.Forms.Panel</tspan>
  <tspan x="474" y="2931">- pictureBox3: System.Windows.Forms.PictureBox</tspan>
  <tspan x="474" y="2943">- pictureBox2: System.Windows.Forms.PictureBox</tspan>
  <tspan x="474" y="2955">- pictureBox1: System.Windows.Forms.PictureBox</tspan>
  <tspan x="474" y="2967">- panelLeft: System.Windows.Forms.Panel</tspan>
  <tspan x="474" y="2979">- panel3: System.Windows.Forms.Panel</tspan>
  <tspan x="474" y="2991">- panel2: System.Windows.Forms.Panel</tspan>
  <tspan x="474" y="3003">- panel1: System.Windows.Forms.Panel</tspan>
  <tspan x="474" y="3015">- logo: System.Windows.Forms.PictureBox</tspan>
  <tspan x="474" y="3027">- lblHome: System.Windows.Forms.Label</tspan>
  <tspan x="474" y="3039">- lblEvents: System.Windows.Forms.Label</tspan>
  <tspan x="474" y="3051">- label1: System.Windows.Forms.Label</tspan>
  <tspan x="474" y="3063">- components: System.ComponentModel.IContainer= null</tspan>
  <tspan x="474" y="3075">- checkBox5: System.Windows.Forms.CheckBox</tspan>
  <tspan x="474" y="3087">- checkBox4: System.Windows.Forms.CheckBox</tspan>
  <tspan x="474" y="3099">- checkBox3: System.Windows.Forms.CheckBox</tspan>
  <tspan x="474" y="3111">- checkBox2: System.Windows.Forms.CheckBox</tspan>
  <tspan x="474" y="3123">- checkBox1: System.Windows.Forms.CheckBox</tspan>
  <tspan x="474" y="3135">- btnX: System.Windows.Forms.Button</tspan>
  <tspan x="474" y="3147">- btnTodo: System.Windows.Forms.Button</tspan>
  <tspan x="474" y="3159">- btnLogOut: System.Windows.Forms.Button</tspan>
  <tspan x="474" y="3171">- btnHome: System.Windows.Forms.Button</tspan>
  <tspan x="474" y="3183">- btnCal: System.Windows.Forms.Button</tspan>
  <tspan x="474" y="3195">- btnAlarm: System.Windows.Forms.Button</tspan>
  <tspan x="474" y="3219">- CreateRoundRectRgn (nLeftRect: int ,nTopRect: int ,nRightRect: int ,nBottomRect: int ,nWidthEllipse: int ,nHeightEllipse: int )</tspan>
  <tspan x="474" y="3231">+ createNewList ()</tspan>
  <tspan x="474" y="3243">+ btn_Save_Click (sender: object ,e: EventArgs )</tspan>
  <tspan x="474" y="3255">+ WriteDateFromDatabaseToTextBoxes (arrayPartDate: ArrayList )</tspan>
  <tspan x="474" y="3267">+ WriteCalendarNameFromDatabaseToTextBoxes (arrayPart: ArrayList )</tspan>
  <tspan x="474" y="3279">+ SplitDataFromStorageName (myInput: string )</tspan>
  <tspan x="474" y="3291">+ SplitDataFromStorageDate (myInput: string )</tspan>
  <tspan x="474" y="3303">+ FormalizeContentToString ()</tspan>
  <tspan x="474" y="3315">+ DeleteContentFromAllTextboxes ()</tspan>
  <tspan x="474" y="3327">+ Gui1 ()</tspan>
  <tspan x="474" y="3339"># Dispose (disposing: bool )</tspan>
  <tspan x="474" y="3351">- radioButton5_CheckedChanged (sender: object ,e: EventArgs )</tspan>
  <tspan x="474" y="3363">- radioButton4_CheckedChanged (sender: object ,e: EventArgs )</tspan>
  <tspan x="474" y="3375">- radioButton3_CheckedChanged (sender: object ,e: EventArgs )</tspan>
  <tspan x="474" y="3387">- radioButton2_CheckedChanged (sender: object ,e: EventArgs )</tspan>
  <tspan x="474" y="3399">- load_Database ()</tspan>
  <tspan x="474" y="3411">- checkBox5_CheckedChanged (sender: object ,e: EventArgs )</tspan>
  <tspan x="474" y="3423">- checkBox4_CheckedChanged (sender: object ,e: EventArgs )</tspan>
  <tspan x="474" y="3435">- checkBox3_CheckedChanged (sender: object ,e: EventArgs )</tspan>
  <tspan x="474" y="3447">- checkBox2_CheckedChanged (sender: object ,e: EventArgs )</tspan>
  <tspan x="474" y="3459">- checkBox1_CheckedChanged (sender: object ,e: EventArgs )</tspan>
  <tspan x="474" y="3471">- button1_Click (sender: object ,e: EventArgs )</tspan>
  <tspan x="474" y="3483">- btnX_Click (sender: object ,e: EventArgs )</tspan>
  <tspan x="474" y="3495">- btnTodo_Leave (sender: object ,e: EventArgs )</tspan>
  <tspan x="474" y="3507">- btnTodo_Click (sender: object ,e: EventArgs )</tspan>
  <tspan x="474" y="3519">- btnLogOut_Leave (sender: object ,e: EventArgs )</tspan>
  <tspan x="474" y="3531">- btnLogOut_Click (sender: object ,e: EventArgs )</tspan>
  <tspan x="474" y="3543">- btnHome_Leave (sender: object ,e: EventArgs )</tspan>
  <tspan x="474" y="3555">- btnHome_Click (sender: object ,e: EventArgs )</tspan>
  <tspan x="474" y="3567">- btnCal_Leave (sender: object ,e: EventArgs )</tspan>
  <tspan x="474" y="3579">- btnCal_Click (sender: object ,e: EventArgs )</tspan>
  <tspan x="474" y="3591">- btnAlarm_Leave (sender: object ,e: EventArgs )</tspan>
  <tspan x="474" y="3603">- btnAlarm_Click (sender: object ,e: EventArgs )</tspan>
  <tspan x="474" y="3615">- bg_Color (btn: Button )</tspan>
  <tspan x="474" y="3627">- WriteContentIntoTextboxes ()</tspan>
  <tspan x="474" y="3639">- WriteContentIntoEmptyRichTextBox ()</tspan>
  <tspan x="474" y="3651">- InitializeComponent ()</tspan>
  <tspan x="474" y="3663">- Gui1_Load (sender: object ,e: EventArgs )</tspan>
  <tspan x="474" y="3675">- Gui1_FormClosing_1 (sender: object ,e: FormClosingEventArgs )</tspan>
  <tspan x="474" y="3687"></tspan></text>
 <polygon points="3288,3362 2707,3362 2707,3549 3294,3549 3294,3368 3288,3362" stroke="#90c4e4" fill="none"/>
 <polyline points="3288,3362 3288,3368" stroke="#90c4e4" fill="none"/>
 <polyline points="3294,3368 3288,3368" stroke="#90c4e4" fill="none"/>
 <text fill="#000000" font-family="Arial" font-size="12"
  <tspan x="2715" y="3389">▲</tspan>
  <tspan x="2715" y="3401">Test_LISTED.Plugins.IoDatastorage</tspan>
  <tspan x="2715" y="3437">- string_Data: string= &quot;&quot;</tspan>
  <tspan x="2715" y="3461">+ string_IoDataStorage_ReadDataFromStorage (string_Path: string )</tspan>
  <tspan x="2715" y="3473">+ int_IoDatastorage_WriteDataToStorage (string_Data: string ,string_Path: string )</tspan>
  <tspan x="2715" y="3485">+ IoDatastorage ()</tspan>
  <tspan x="2715" y="3497"></tspan></text>
 <polygon points="2682,3267 1852,3267 1852,3644 2688,3644 2688,3273 2682,3267" stroke="#90c4e4" fill="none"/>
 <polyline points="2682,3267 2682,3273" stroke="#90c4e4" fill="none"/>
 <polyline points="2688,3273 2682,3273" stroke="#90c4e4" fill="none"/>
 <text fill="#000000" font-family="Arial" font-size="12"
  <tspan x="1860" y="3294">▲</tspan>
  <tspan x="1860" y="3306">Test_LISTED.Plugins.Storage</tspan>
  <tspan x="1860" y="3342">+ string_WriteIntoDatabase: string</tspan>
  <tspan x="1860" y="3354">+ s_PathTextfile: string= &quot;C:\Users\mfle\Documents\GitHub\adv-software-engineering\LISTED\Plugins\DataStorage.txt&quot;</tspan>
  <tspan x="1860" y="3366">+ s_PathExcelfile: string</tspan>
  <tspan x="1860" y="3378">+ s_PathDatabase: string</tspan>
  <tspan x="1860" y="3390">+ myLocalName: string</tspan>
  <tspan x="1860" y="3402">+ myLocalDescription: string</tspan>
  <tspan x="1860" y="3414">+ myLocalDate: DateTime</tspan>
  <tspan x="1860" y="3426">+ myLocalAlarm: bool</tspan>
  <tspan x="1860" y="3438">+ myGui1: Gui1= new Gui1()</tspan>
  <tspan x="1860" y="3450">+ listNum: int= 0</tspan>
  <tspan x="1860" y="3462">+ Count: int</tspan>
  <tspan x="1860" y="3474">+ ll_Tabs: LinkedList&lt;int&gt;= new LinkedList&lt;int&gt;(ai_TabsList)</tspan>
  <tspan x="1860" y="3486">- ai_TabsList: int[]= {0,1,2,3,4,5,6,7,8,9}</tspan>
  <tspan x="1860" y="3522"></tspan></text>
 <polygon points="4654,3333 4329,3333 4329,3577 4660,3577 4660,3339 4654,3333" stroke="#90c4e4" fill="none"/>
 <polyline points="4654,3333 4654,3339" stroke="#90c4e4" fill="none"/>
 <polyline points="4660,3339 4654,3339" stroke="#90c4e4" fill="none"/>
 <text fill="#000000" font-family="Arial" font-size="12"
  <tspan x="4337" y="3360">▲</tspan>
  <tspan x="4337" y="3372">Test_LISTED.Plugins.UserLogin</tspan>
  <tspan x="4337" y="3408">+ s_UserId: string</tspan>
  <tspan x="4337" y="3420">+ s_UserLogin: string= &quot;Model\UserLogin.txt&quot;</tspan>
  <tspan x="4337" y="3444">+ SetUserActiveById ()</tspan>
  <tspan x="4337" y="3456">+ GetUserByWindowsId ()</tspan>
  <tspan x="4337" y="3468">+ DeleteUserById ()</tspan>
  <tspan x="4337" y="3480">+ ChangeUserDataById ()</tspan>
  <tspan x="4337" y="3492">+ UserLogin ()</tspan>
  <tspan x="4337" y="3504"></tspan></text>
 <polygon points="4304,3390 4082,3390 4082,3520 4310,3520 4310,3396 4304,3390" stroke="#90c4e4" fill="none"/>
 <polyline points="4304,3390 4304,3396" stroke="#90c4e4" fill="none"/>
 <polyline points="4310,3396 4304,3396" stroke="#90c4e4" fill="none"/>
 <text fill="#000000" font-family="Arial" font-size="12"
  <tspan x="4090" y="3417">▲</tspan>
  <tspan x="4090" y="3429">Test_LISTED.Tab</tspan>
  <tspan x="4090" y="3477">+ Tab (button_ForTab: Button )</tspan>
  <tspan x="4090" y="3489"></tspan></text>
 <polygon points="4058,3324 3312,3324 3312,3587 4064,3587 4064,3330 4058,3324" stroke="#90c4e4" fill="none"/>
 <polyline points="4058,3324 4058,3330" stroke="#90c4e4" fill="none"/>
 <polyline points="4064,3330 4058,3330" stroke="#90c4e4" fill="none"/>
 <text fill="#000000" font-family="Arial" font-size="12"
  <tspan x="3320" y="3351">▲</tspan>
  <tspan x="3320" y="3363">Test_LISTED.TabsControl</tspan>
  <tspan x="3320" y="3399">+ array_TabList: String[,]= new String[3,10]</tspan>
  <tspan x="3320" y="3423">+ v_TabControl_ManageTab (struct_ForTab: TabsControl )</tspan>
  <tspan x="3320" y="3435">+ v_TabControl_ManageArrayOrder (int_TabIndex: int )</tspan>
  <tspan x="3320" y="3447">+ v_TabControl_DeleteTabFromArray (int_TabIndex: int )</tspan>
  <tspan x="3320" y="3459">+ v_TabControl_CreateNewTab (TabToCreate: TabPage ,TabName: string )</tspan>
  <tspan x="3320" y="3471">+ i_TabControl_SetTabToTabArray (struct_ForTab: TabsControl ,int_TabIndexNew: int ,int_TabIndexOld: int )</tspan>
  <tspan x="3320" y="3483">+ i_TabControl_ReturnTabIndex (struct_ForTab: TabsControl )</tspan>
  <tspan x="3320" y="3495">+ TabsControl ()</tspan>
  <tspan x="3320" y="3507"></tspan></text>
 <polygon points="442,3210 36,3210 36,3701 448,3701 448,3216 442,3210" stroke="#90c4e4" fill="none"/>
 <polyline points="442,3210 442,3216" stroke="#90c4e4" fill="none"/>
 <polyline points="448,3216 442,3216" stroke="#90c4e4" fill="none"/>
 <text fill="#000000" font-family="Arial" font-size="12"
  <tspan x="44" y="3237">▲</tspan>
  <tspan x="44" y="3249">Test_LISTED.View.Gui2</tspan>
  <tspan x="44" y="3285">- txtName: System.Windows.Forms.TextBox</tspan>
  <tspan x="44" y="3297">- txtBeschreibung: System.Windows.Forms.TextBox</tspan>
  <tspan x="44" y="3309">- lblName: System.Windows.Forms.Label</tspan>
  <tspan x="44" y="3321">- label3: System.Windows.Forms.Label</tspan>
  <tspan x="44" y="3333">- label2: System.Windows.Forms.Label</tspan>
  <tspan x="44" y="3345">- label1: System.Windows.Forms.Label</tspan>
  <tspan x="44" y="3357">- dtpDatum: System.Windows.Forms.DateTimePicker</tspan>
  <tspan x="44" y="3369">- components: System.ComponentModel.IContainer= null</tspan>
  <tspan x="44" y="3381">- cbWecker: System.Windows.Forms.CheckBox</tspan>
  <tspan x="44" y="3393">- btnSpeichern: System.Windows.Forms.Button</tspan>
  <tspan x="44" y="3405">- btnAbbrechen: System.Windows.Forms.Button</tspan>
  <tspan x="44" y="3429">+ Gui2 ()</tspan>
  <tspan x="44" y="3441"># Dispose (disposing: bool )</tspan>
  <tspan x="44" y="3453">- label4_Click (sender: object ,e: EventArgs )</tspan>
  <tspan x="44" y="3465">- label3_Click (sender: object ,e: EventArgs )</tspan>
  <tspan x="44" y="3477">- label1_Click (sender: object ,e: EventArgs )</tspan>
  <tspan x="44" y="3489">- btn_Speichern_Click (sender: object ,e: EventArgs )</tspan>
  <tspan x="44" y="3501">- btnAbbrechen_Click (sender: object ,e: EventArgs )</tspan>
  <tspan x="44" y="3513">- InitializeComponent ()</tspan>
  <tspan x="44" y="3525">- Gui2_Load (sender: object ,e: EventArgs )</tspan>
  <tspan x="44" y="3537"></tspan></text>
 <polygon points="1418,4 384,4 384,2604 1424,2604 1424,10 1418,4" stroke="#90c4e4" fill="none"/>
 <polyline points="1418,4 1418,10" stroke="#90c4e4" fill="none"/>
 <polyline points="1424,10 1418,10" stroke="#90c4e4" fill="none"/>
 <text fill="#000000" font-family="Arial" font-size="12"
  <tspan x="392" y="31">△</tspan>
  <tspan x="392" y="43">System.Windows.Forms.Form</tspan>
  <tspan x="392" y="55">△</tspan>
  <tspan x="392" y="79">+ WindowState: System.Windows.Forms.FormWindowState</tspan>
  <tspan x="392" y="91">+ TransparencyKey: System.Drawing.Color</tspan>
  <tspan x="392" y="103">+ TopMost: System.Boolean</tspan>
  <tspan x="392" y="115">+ TopLevel: System.Boolean</tspan>
  <tspan x="392" y="127">+ Text: System.String</tspan>
  <tspan x="392" y="139">+ TabStop: System.Boolean</tspan>
  <tspan x="392" y="151">+ TabIndex: System.Int32</tspan>
  <tspan x="392" y="163">+ StartPosition: System.Windows.Forms.FormStartPosition</tspan>
  <tspan x="392" y="175">+ SizeGripStyle: System.Windows.Forms.SizeGripStyle</tspan>
  <tspan x="392" y="187">+ Size: System.Drawing.Size</tspan>
  <tspan x="392" y="199">+ ShowInTaskbar: System.Boolean</tspan>
  <tspan x="392" y="211">+ ShowIcon: System.Boolean</tspan>
  <tspan x="392" y="223">+ RightToLeftLayout: System.Boolean</tspan>
  <tspan x="392" y="235">+ RestoreBounds: System.Drawing.Rectangle</tspan>
  <tspan x="392" y="247">+ Owner: System.Windows.Forms.Form</tspan>
  <tspan x="392" y="259">+ OwnedForms: System.Windows.Forms.Form[]</tspan>
  <tspan x="392" y="271">+ Opacity: System.Double</tspan>
  <tspan x="392" y="283">+ Modal: System.Boolean</tspan>
  <tspan x="392" y="295">+ MinimumSize: System.Drawing.Size</tspan>
  <tspan x="392" y="307">+ MinimizeBox: System.Boolean</tspan>
  <tspan x="392" y="319">+ MergedMenu: System.Windows.Forms.MainMenu</tspan>
  <tspan x="392" y="331">+ Menu: System.Windows.Forms.MainMenu</tspan>
  <tspan x="392" y="343">+ MdiParent: System.Windows.Forms.Form</tspan>
  <tspan x="392" y="355">+ MdiChildren: System.Windows.Forms.Form[]</tspan>
  <tspan x="392" y="367">+ MaximumSize: System.Drawing.Size</tspan>
  <tspan x="392" y="379">+ MaximizeBox: System.Boolean</tspan>
  <tspan x="392" y="391">+ Margin: System.Windows.Forms.Padding</tspan>
  <tspan x="392" y="403">+ MainMenuStrip: System.Windows.Forms.MenuStrip</tspan>
  <tspan x="392" y="415">+ Location: System.Drawing.Point</tspan>
  <tspan x="392" y="427">+ KeyPreview: System.Boolean</tspan>
  <tspan x="392" y="439">+ IsRestrictedWindow: System.Boolean</tspan>
  <tspan x="392" y="451">+ IsMdiContainer: System.Boolean</tspan>
  <tspan x="392" y="463">+ IsMdiChild: System.Boolean</tspan>
  <tspan x="392" y="475">+ Icon: System.Drawing.Icon</tspan>
  <tspan x="392" y="487">+ HelpButton: System.Boolean</tspan>
  <tspan x="392" y="499">+ FormBorderStyle: System.Windows.Forms.FormBorderStyle</tspan>
  <tspan x="392" y="511">+ DialogResult: System.Windows.Forms.DialogResult</tspan>
  <tspan x="392" y="523">+ DesktopLocation: System.Drawing.Point</tspan>
  <tspan x="392" y="535">+ DesktopBounds: System.Drawing.Rectangle</tspan>
  <tspan x="392" y="547">+ ControlBox: System.Boolean</tspan>
  <tspan x="392" y="559">+ ClientSize: System.Drawing.Size</tspan>
  <tspan x="392" y="571">+ CancelButton: System.Windows.Forms.IButtonControl</tspan>
  <tspan x="392" y="583">+ BackColor: System.Drawing.Color</tspan>
  <tspan x="392" y="595">+ AutoValidate: System.Windows.Forms.AutoValidate</tspan>
  <tspan x="392" y="607">+ AutoSizeMode: System.Windows.Forms.AutoSizeMode</tspan>
  <tspan x="392" y="619">+ AutoSize: System.Boolean</tspan>
  <tspan x="392" y="631">+ AutoScroll: System.Boolean</tspan>
  <tspan x="392" y="643">+ AutoScaleBaseSize: System.Drawing.Size</tspan>
  <tspan x="392" y="655">+ AutoScale: System.Boolean</tspan>
  <tspan x="392" y="667">+ AllowTransparency: System.Boolean</tspan>
  <tspan x="392" y="679">+ ActiveMdiChild: System.Windows.Forms.Form</tspan>
  <tspan x="392" y="691">+ ActiveForm: System.Windows.Forms.Form</tspan>
  <tspan x="392" y="703">+ AcceptButton: System.Windows.Forms.IButtonControl</tspan>
  <tspan x="392" y="715"># ShowWithoutActivation: System.Boolean</tspan>
  <tspan x="392" y="727"># MaximizedBounds: System.Drawing.Rectangle</tspan>
  <tspan x="392" y="739"># DefaultSize: System.Drawing.Size</tspan>
  <tspan x="392" y="751"># DefaultImeMode: System.Windows.Forms.ImeMode</tspan>
  <tspan x="392" y="763"># CreateParams: System.Windows.Forms.CreateParams</tspan>
  <tspan x="392" y="787">+ GetAutoScaleSize (font: System.Drawing.Font )</tspan>
  <tspan x="392" y="799">+ ValidateChildren (validationConstraints: System.Windows.Forms.ValidationConstraints )</tspan>
  <tspan x="392" y="811">+ ToString ()</tspan>
  <tspan x="392" y="823">+ ShowDialog (owner: System.Windows.Forms.IWin32Window )</tspan>
  <tspan x="392" y="835">+ Show (owner: System.Windows.Forms.IWin32Window )</tspan>
  <tspan x="392" y="847">+ SetDesktopLocation (x: System.Int32 ,y: System.Int32 )</tspan>
  <tspan x="392" y="859">+ SetDesktopBounds (x: System.Int32 ,y: System.Int32 ,width: System.Int32 ,height: System.Int32 )</tspan>
  <tspan x="392" y="871">+ RemoveOwnedForm (ownedForm: System.Windows.Forms.Form )</tspan>
  <tspan x="392" y="883">+ LayoutMdi (value: System.Windows.Forms.MdiLayout )</tspan>
  <tspan x="392" y="895">+ Form ()</tspan>
  <tspan x="392" y="907">+ Close ()</tspan>
  <tspan x="392" y="919">+ AddOwnedForm (ownedForm: System.Windows.Forms.Form )</tspan>
  <tspan x="392" y="931">+ Activate ()</tspan>
  <tspan x="392" y="943"># WndProc (m: System.Windows.Forms.Message )</tspan>
  <tspan x="392" y="955"># UpdateDefaultButton ()</tspan>
  <tspan x="392" y="967"># SetVisibleCore (value: System.Boolean )</tspan>
  <tspan x="392" y="979"># SetClientSizeCore (x: System.Int32 ,y: System.Int32 )</tspan>
  <tspan x="392" y="991"># SetBoundsCore (x: System.Int32 ,y: System.Int32 ,width: System.Int32 ,height: System.Int32 ,specified: System.Windows.Forms.BoundsSpecified )</tspan>
  <tspan x="392" y="1003"># Select (directed: System.Boolean ,forward: System.Boolean )</tspan>
  <tspan x="392" y="1015"># ScaleCore (x: System.Single ,y: System.Single )</tspan>
  <tspan x="392" y="1027"># ScaleControl (factor: System.Drawing.SizeF ,specified: System.Windows.Forms.BoundsSpecified )</tspan>
  <tspan x="392" y="1039"># ProcessTabKey (forward: System.Boolean )</tspan>
  <tspan x="392" y="1051"># ProcessKeyPreview (m: System.Windows.Forms.Message )</tspan>
  <tspan x="392" y="1063"># ProcessDialogKey (keyData: System.Windows.Forms.Keys )</tspan>
  <tspan x="392" y="1075"># ProcessDialogChar (charCode: System.Char )</tspan>
  <tspan x="392" y="1087"># ProcessCmdKey (msg: System.Windows.Forms.Message ,keyData: System.Windows.Forms.Keys )</tspan>
  <tspan x="392" y="1099"># OnVisibleChanged (e: System.EventArgs )</tspan>
  <tspan x="392" y="1111"># OnTextChanged (e: System.EventArgs )</tspan>
  <tspan x="392" y="1123"># OnStyleChanged (e: System.EventArgs )</tspan>
  <tspan x="392" y="1135"># OnShown (e: System.EventArgs )</tspan>
  <tspan x="392" y="1147"># OnRightToLeftLayoutChanged (e: System.EventArgs )</tspan>
  <tspan x="392" y="1159"># OnResizeEnd (e: System.EventArgs )</tspan>
  <tspan x="392" y="1171"># OnResizeBegin (e: System.EventArgs )</tspan>
  <tspan x="392" y="1183"># OnResize (e: System.EventArgs )</tspan>
  <tspan x="392" y="1195"># OnPaint (e: System.Windows.Forms.PaintEventArgs )</tspan>
  <tspan x="392" y="1207"># OnMinimumSizeChanged (e: System.EventArgs )</tspan>
  <tspan x="392" y="1219"># OnMenuStart (e: System.EventArgs )</tspan>
  <tspan x="392" y="1231"># OnMenuComplete (e: System.EventArgs )</tspan>
  <tspan x="392" y="1243"># OnMdiChildActivate (e: System.EventArgs )</tspan>
  <tspan x="392" y="1255"># OnMaximumSizeChanged (e: System.EventArgs )</tspan>
  <tspan x="392" y="1267"># OnMaximizedBoundsChanged (e: System.EventArgs )</tspan>
  <tspan x="392" y="1279"># OnLoad (e: System.EventArgs )</tspan>
  <tspan x="392" y="1291"># OnLayout (levent: System.Windows.Forms.LayoutEventArgs )</tspan>
  <tspan x="392" y="1303"># OnInputLanguageChanging (e: System.Windows.Forms.InputLanguageChangingEventArgs )</tspan>
  <tspan x="392" y="1315"># OnInputLanguageChanged (e: System.Windows.Forms.InputLanguageChangedEventArgs )</tspan>
  <tspan x="392" y="1327"># OnHelpButtonClicked (e: System.ComponentModel.CancelEventArgs )</tspan>
  <tspan x="392" y="1339"># OnHandleDestroyed (e: System.EventArgs )</tspan>
  <tspan x="392" y="1351"># OnHandleCreated (e: System.EventArgs )</tspan>
  <tspan x="392" y="1363"># OnGetDpiScaledSize (deviceDpiOld: System.Int32 ,deviceDpiNew: System.Int32 ,desiredSize: System.Drawing.Size )</tspan>
  <tspan x="392" y="1375"># OnFormClosing (e: System.Windows.Forms.FormClosingEventArgs )</tspan>
  <tspan x="392" y="1387"># OnFormClosed (e: System.Windows.Forms.FormClosedEventArgs )</tspan>
  <tspan x="392" y="1399"># OnFontChanged (e: System.EventArgs )</tspan>
  <tspan x="392" y="1411"># OnEnter (e: System.EventArgs )</tspan>
  <tspan x="392" y="1423"># OnEnabledChanged (e: System.EventArgs )</tspan>
  <tspan x="392" y="1435"># OnDpiChanged (e: System.Windows.Forms.DpiChangedEventArgs )</tspan>
  <tspan x="392" y="1447"># OnDeactivate (e: System.EventArgs )</tspan>
  <tspan x="392" y="1459"># OnCreateControl ()</tspan>
  <tspan x="392" y="1471"># OnClosing (e: System.ComponentModel.CancelEventArgs )</tspan>
  <tspan x="392" y="1483"># OnClosed (e: System.EventArgs )</tspan>
  <tspan x="392" y="1495"># OnBackgroundImageLayoutChanged (e: System.EventArgs )</tspan>
  <tspan x="392" y="1507"># OnBackgroundImageChanged (e: System.EventArgs )</tspan>
  <tspan x="392" y="1519"># OnActivated (e: System.EventArgs )</tspan>
  <tspan x="392" y="1531"># GetScaledBounds (bounds: System.Drawing.Rectangle ,factor: System.Drawing.SizeF ,specified: System.Windows.Forms.BoundsSpecified )</tspan>
  <tspan x="392" y="1543"># Dispose (disposing: System.Boolean )</tspan>
  <tspan x="392" y="1555"># DefWndProc (m: System.Windows.Forms.Message )</tspan>
  <tspan x="392" y="1567"># CreateHandle ()</tspan>
  <tspan x="392" y="1579"># CreateControlsInstance ()</tspan>
  <tspan x="392" y="1591"># CenterToScreen ()</tspan>
  <tspan x="392" y="1603"># CenterToParent ()</tspan>
  <tspan x="392" y="1615"># ApplyAutoScaling ()</tspan>
  <tspan x="392" y="1627"># AdjustFormScrollbars (displayScrollbars: System.Boolean )</tspan>
  <tspan x="392" y="1639"># ActivateMdiChild (form: System.Windows.Forms.Form )</tspan>
  <tspan x="392" y="1651"># ProcessMnemonic (charCode: System.Char )</tspan>
  <tspan x="392" y="1663"></tspan></text>
 <polyline points="1539,3248 1524,3195 1508,3138 1490,3077 1472,3014 1453,2949 1433,2882 1413,2815 1392,2748 1371,2681 1351,2616 1351,2615 1351,2615 1350,2614 1350,2614 1350,2613 1350,2612 1350,2611 1349,2611 1349,2610 1349,2609" stroke="#4e8cb9" fill="none"/>
 <polygon points="1347,2610 1347,2604 1350,2609 1347,2610" stroke="#4e8cb9" fill="#4e8cb9"/>
 <polyline points="904,2640 904,2637 904,2634 904,2631 904,2628 904,2625 904,2621 904,2618 904,2615 904,2612 904,2609" stroke="#4e8cb9" fill="none"/>
 <polygon points="902,2609 904,2604 906,2609 902,2609" stroke="#4e8cb9" fill="#4e8cb9"/>
 <polygon points="5976,1163 5521,1163 5521,1445 5982,1445 5982,1169 5976,1163" stroke="#90c4e4" fill="none"/>
 <polyline points="5976,1163 5976,1169" stroke="#90c4e4" fill="none"/>
 <polyline points="5982,1169 5976,1169" stroke="#90c4e4" fill="none"/>
 <text fill="#000000" font-family="Arial" font-size="12"
  <tspan x="5529" y="1202">System.Object</tspan>
  <tspan x="5529" y="1214">△</tspan>
  <tspan x="5529" y="1250">+ ReferenceEquals (objA: System.Object ,objB: System.Object )</tspan>
  <tspan x="5529" y="1262">+ Equals (objA: System.Object ,objB: System.Object )</tspan>
  <tspan x="5529" y="1274">+ ToString ()</tspan>
  <tspan x="5529" y="1286">+ Object ()</tspan>
  <tspan x="5529" y="1298">+ GetType ()</tspan>
  <tspan x="5529" y="1310">+ GetHashCode ()</tspan>
  <tspan x="5529" y="1322">+ Equals (obj: System.Object )</tspan>
  <tspan x="5529" y="1334"># MemberwiseClone ()</tspan>
  <tspan x="5529" y="1346"># Finalize ()</tspan>
  <tspan x="5529" y="1358"></tspan></text>
 <polyline points="3011,3362 3020,3306 3033,3241 3049,3169 3069,3091 3094,3010 3124,2927 3160,2844 3201,2763 3249,2687 3303,2616 3502,2411 3724,2225 3962,2058 4210,1909 4460,1777 4706,1663 4941,1566 5159,1484 5352,1419 5515,1369" stroke="#4e8cb9" fill="none"/>
 <polygon points="5515,1367 5520,1367 5516,1370 5515,1367" stroke="#4e8cb9" fill="#4e8cb9"/>
 <polyline points="2324,3267 2345,3208 2369,3145 2396,3078 2428,3009 2463,2939 2502,2869 2544,2800 2591,2734 2643,2673 2698,2616 2969,2390 3264,2190 3577,2013 3897,1859 4217,1727 4528,1615 4822,1523 5090,1449 5324,1391 5515,1349" stroke="#4e8cb9" fill="none"/>
 <polygon points="5515,1347 5520,1348 5516,1351 5515,1347" stroke="#4e8cb9" fill="#4e8cb9"/>
 <polyline points="4502,3333 4507,3279 4514,3217 4523,3149 4535,3077 4549,3001 4567,2923 4587,2844 4612,2766 4640,2689 4672,2616 4748,2472 4834,2331 4928,2193 5027,2061 5129,1936 5231,1818 5331,1709 5426,1610 5513,1523 5591,1449" stroke="#4e8cb9" fill="none"/>
 <polygon points="5590,1448 5595,1445 5592,1450 5590,1448" stroke="#4e8cb9" fill="#4e8cb9"/>
 <polyline points="4191,3390 4189,3340 4188,3278 4190,3208 4194,3130 4201,3046 4213,2959 4230,2871 4253,2783 4283,2697 4320,2616 4413,2460 4521,2310 4641,2168 4768,2035 4901,1910 5035,1795 5166,1691 5293,1597 5410,1515 5516,1446" stroke="#4e8cb9" fill="none"/>
 <polygon points="5515,1444 5520,1443 5517,1447 5515,1444" stroke="#4e8cb9" fill="#4e8cb9"/>
 <polyline points="3726,3324 3745,3268 3767,3204 3793,3136 3822,3063 3855,2987 3892,2910 3932,2833 3975,2758 4023,2685 4073,2616 4205,2460 4349,2311 4502,2168 4659,2034 4818,1908 4975,1791 5127,1685 5270,1590 5401,1508 5516,1438" stroke="#4e8cb9" fill="none"/>
 <polygon points="5515,1436 5520,1435 5517,1439 5515,1436" stroke="#4e8cb9" fill="#4e8cb9"/>
 <polyline points="299,3210 312,3158 326,3103 340,3045 355,2985 371,2924 388,2862 405,2800 422,2738 439,2676 457,2616 457,2615 457,2615 458,2614 458,2614 458,2613 458,2612 458,2611 459,2611 459,2610 459,2609" stroke="#4e8cb9" fill="none"/>
 <polygon points="457,2609 460,2604 461,2610 457,2609" stroke="#4e8cb9" fill="#4e8cb9"/>
 <polyline points="7356,3257 7345,3201 7331,3142 7316,3078 7298,3013 7277,2945 7254,2877 7228,2809 7199,2742 7167,2678 7132,2616 7031,2466 6919,2321 6798,2181 6671,2049 6542,1924 6413,1807 6287,1701 6168,1605 6058,1520 5960,1448" stroke="#4e8cb9" fill="none"/>
 <polygon points="5959,1449 5956,1445 5961,1447 5959,1449" stroke="#4e8cb9" fill="#4e8cb9"/>
 <polyline points="6992,3390 6991,3341 6989,3280 6985,3210 6978,3133 6968,3050 6955,2963 6937,2874 6915,2786 6887,2699 6853,2616 6779,2470 6693,2327 6598,2189 6498,2057 6394,1932 6290,1814 6187,1706 6090,1608 5999,1522 5919,1449" stroke="#4e8cb9" fill="none"/>
 <polygon points="5918,1450 5915,1445 5920,1447 5918,1450" stroke="#4e8cb9" fill="#4e8cb9"/>
 <polyline points="6749,3390 6749,3341 6748,3281 6746,3212 6742,3135 6734,3052 6724,2966 6710,2877 6692,2788 6669,2700 6641,2616 6582,2475 6513,2336 6437,2199 6356,2068 6271,1942 6186,1823 6103,1713 6023,1613 5949,1525 5884,1449" stroke="#4e8cb9" fill="none"/>
 <polygon points="5882,1450 5880,1445 5885,1448 5882,1450" stroke="#4e8cb9" fill="#4e8cb9"/>
 <polyline points="6385,3362 6371,3311 6355,3251 6337,3184 6317,3110 6296,3032 6273,2951 6250,2867 6226,2782 6201,2698 6177,2616 6138,2486 6097,2354 6055,2222 6013,2091 5971,1964 5931,1842 5893,1728 5858,1623 5827,1530 5800,1450" stroke="#4e8cb9" fill="none"/>
 <polygon points="5799,1450 5799,1445 5802,1449 5799,1450" stroke="#4e8cb9" fill="#4e8cb9"/>
 <polyline points="5925,3352 5914,3225 5900,3059 5884,2864 5866,2649 5846,2423 5827,2195 5808,1975 5791,1771 5775,1593 5763,1450" stroke="#4e8cb9" fill="none"/>
 <polygon points="5762,1450 5763,1445 5765,1450 5762,1450" stroke="#4e8cb9" fill="#4e8cb9"/>
 <polyline points="5573,3390 5583,3276 5596,3116 5613,2922 5632,2703 5652,2469 5672,2232 5692,2001 5710,1786 5726,1599 5739,1450" stroke="#4e8cb9" fill="none"/>
 <polygon points="5737,1450 5739,1445 5740,1450 5737,1450" stroke="#4e8cb9" fill="#4e8cb9"/>
 <polyline points="5102,3324 5145,3190 5199,3022 5262,2827 5330,2615 5401,2394 5472,2172 5541,1958 5604,1761 5660,1589 5704,1450" stroke="#4e8cb9" fill="none"/>
 <polygon points="5703,1450 5706,1445 5706,1451 5703,1450" stroke="#4e8cb9" fill="#4e8cb9"/>
 <polyline points="7999,3390 8004,3339 8008,3276 8010,3204 8009,3125 8004,3040 7994,2953 7976,2864 7952,2777 7918,2694 7875,2616 7723,2414 7546,2231 7350,2066 7142,1918 6928,1788 6715,1674 6507,1576 6313,1494 6137,1428 5987,1376" stroke="#4e8cb9" fill="none"/>
 <polygon points="5986,1377 5982,1374 5987,1374 5986,1377" stroke="#4e8cb9" fill="#4e8cb9"/>
 <polyline points="7766,3390 7770,3339 7773,3277 7774,3205 7772,3126 7766,3042 7755,2955 7738,2866 7714,2779 7682,2695 7640,2616 7508,2430 7355,2258 7186,2100 7005,1956 6819,1827 6632,1712 6450,1611 6278,1524 6122,1452 5986,1394" stroke="#4e8cb9" fill="none"/>
 <polygon points="5985,1395 5982,1392 5987,1392 5985,1395" stroke="#4e8cb9" fill="#4e8cb9"/>
</svg>
